<svg xmlns:dc="http://purl.org/dc/elements/1.1/" xmlns:cc="http://creativecommons.org/ns#" xmlns:rdf="http://www.w3.org/1999/02/22-rdf-syntax-ns#" xmlns:svg="http://www.w3.org/2000/svg" xmlns="http://www.w3.org/2000/svg" xmlns:xlink="http://www.w3.org/1999/xlink" id="svg993" viewBox="0 0 1024 768" height="768px" width="1024px" version="1.1">
  <metadata id="metadata999">
    <rdf:rdf>
      <cc:work rdf:about="">
        <dc:format>image/svg+xml</dc:format>
        <dc:type rdf:resource="http://purl.org/dc/dcmitype/StillImage"></dc:type>
      </cc:work>
    </rdf:rdf>
  </metadata>
  <defs id="defs997"></defs>
  <linearGradient spreadMethod="pad" y2="30%" x2="-10%" y1="120%" x1="30%" id="3d_gradient2-logo-417b6a21-26ae-48bf-a348-2da4bd1bef59">
    <stop id="stop974" stop-opacity="1" stop-color="#ffffff" offset="0%"></stop>
    <stop id="stop976" stop-opacity="1" stop-color="#000000" offset="100%"></stop>
  </linearGradient>
  <linearGradient gradientTransform="rotate(-30)" spreadMethod="pad" y2="30%" x2="-10%" y1="120%" x1="30%" id="3d_gradient3-logo-417b6a21-26ae-48bf-a348-2da4bd1bef59">
    <stop id="stop979" stop-opacity="1" stop-color="#ffffff" offset="0%"></stop>
    <stop id="stop981" stop-opacity="1" stop-color="#cccccc" offset="50%"></stop>
    <stop id="stop983" stop-opacity="1" stop-color="#000000" offset="100%"></stop>
  </linearGradient>
  <g id="logo-group">
    <image xlink:href="" id="container" x="272" y="144" width="480" height="480" style="display: none;" transform="translate(0 0)"></image>
    <g id="logo-center" transform="translate(0 0)">
      <image xlink:href="" id="icon_container" x="0" y="0" style="display: none;"></image>
      <g id="slogan" style="font-style:normal;font-weight:500;font-size:32px;line-height:1;font-family:'Raleway Medium Alt1';font-variant-ligatures:none;text-align:center;text-anchor:middle" transform="translate(132 0)">
        <path id="path1001" style="font-style:normal;font-weight:500;font-size:32px;line-height:1;font-family:'Raleway Medium Alt1';font-variant-ligatures:none;text-align:center;text-anchor:middle" d="M 616.3125,-6.421875 620.76562,0 H 617.375 l -6.5,-9.375 q -0.4375,0.21875 -0.71875,0.390625 -0.26563,0.15625 -0.70313,0.578125 -0.4375,0.40625 -0.70312,0.921875 -0.25,0.5 -0.45313,1.359375 -0.20312,0.859375 -0.20312,1.9375 V 0 h -2.875 v -2.890625 q 0,-1.265625 0.15625,-2.34375 0.15625,-1.078125 0.39062,-1.828125 0.25,-0.75 0.64063,-1.375 0.39062,-0.640625 0.73437,-1.03125 Q 607.5,-9.859375 608,-10.203125 q 0.51562,-0.34375 0.85937,-0.5 0.34375,-0.171875 0.82813,-0.375 L 605.25,-17.5 h 3.39062 l 6.5,9.375 q 0.42188,-0.203125 0.6875,-0.359375 0.28125,-0.171875 0.71875,-0.59375 Q 616.98437,-9.5 617.25,-10 q 0.26562,-0.515625 0.46875,-1.375 0.20312,-0.859375 0.20312,-1.9375 V -17.5 h 2.875 v 2.890625 q 0,1.28125 -0.15625,2.359375 -0.15625,1.0625 -0.40625,1.828125 -0.23437,0.75 -0.625,1.390625 -0.39062,0.625 -0.75,1.015625 -0.35937,0.375 -0.85937,0.71875 -0.5,0.34375 -0.84375,0.515625 -0.34375,0.15625 -0.84375,0.359375 z" stroke-width="0" stroke-linejoin="miter" stroke-miterlimit="2" fill="#191d3e" stroke="#191d3e" transform="translate(-131.26263700000004 396.55740625) translate(634.694671 54.078125) scale(1.1) translate(-605.21875 17.5)"></path>
        <path id="path1003" style="font-style:normal;font-weight:500;font-size:32px;line-height:1;font-family:'Raleway Medium Alt1';font-variant-ligatures:none;text-align:center;text-anchor:middle" d="m 600.15625,-17.5 v 9.78125 L 597.25,-6.53125 V -17.5 Z" stroke-width="0" stroke-linejoin="miter" stroke-miterlimit="2" fill="#191d3e" stroke="#191d3e" transform="translate(-131.26263700000004 396.55740625) translate(622.299046 54.078125) scale(1.1) translate(-597.25 17.5)"></path>
        <path id="path1005" style="font-style:normal;font-weight:500;font-size:32px;line-height:1;font-family:'Raleway Medium Alt1';font-variant-ligatures:none;text-align:center;text-anchor:middle" d="M 592.1875,-9.46875 V 0 h -2.90625 v -9.5 q 0,-1.15625 -0.0781,-1.921875 -0.0781,-0.78125 -0.35937,-1.5625 -0.28125,-0.796875 -0.78125,-1.25 -0.5,-0.453125 -1.375,-0.734375 -0.875,-0.296875 -2.125,-0.296875 h -3.84375 v 8.796875 q 0,3.34375 -0.96875,4.96875 -0.95313,1.625 -3.32813,1.625 -0.82812,0 -2.04687,-0.25 v -2.234375 q 1.01562,0.21875 1.60937,0.21875 1.10938,0 1.46875,-0.890625 0.35938,-0.890625 0.35938,-3.4375 v -8.796875 h -2.70313 V -17.5 h 9.45313 q 2.23437,0 3.73437,0.53125 1.51563,0.515625 2.35938,1.59375 0.84375,1.078125 1.1875,2.484375 0.34375,1.40625 0.34375,3.421875 z" stroke-width="0" stroke-linejoin="miter" stroke-miterlimit="2" fill="#191d3e" stroke="#191d3e" transform="translate(-131.26263700000004 396.55740625) translate(593.506579 54.078125) scale(1.1) translate(-574.37503 17.5)"></path>
        <path id="path1007" style="font-style:normal;font-weight:500;font-size:32px;line-height:1;font-family:'Raleway Medium Alt1';font-variant-ligatures:none;text-align:center;text-anchor:middle" d="m 571.15625,-7.71875 v 14.375 H 568.25 v -14.375 q 0,-1.78125 -0.17188,-2.984375 -0.15625,-1.21875 -0.54687,-2.125 -0.39063,-0.921875 -1.07813,-1.4375 -0.6875,-0.515625 -1.6875,-0.75 -0.98437,-0.25 -2.4375,-0.25 H 558.25 V -17.5 h 4.01562 q 2.625,0 4.29688,0.484375 1.67187,0.46875 2.71875,1.65625 1.04687,1.171875 1.45312,2.984375 0.42188,1.8125 0.42188,4.65625 z" stroke-width="0" stroke-linejoin="miter" stroke-miterlimit="2" fill="#191d3e" stroke="#191d3e" transform="translate(-131.26263700000004 396.55740625) translate(572.1390459999999 54.078125) scale(1.1) translate(-558.25 17.5)"></path>
        <path id="path1009" style="font-style:normal;font-weight:500;font-size:32px;line-height:1;font-family:'Raleway Medium Alt1';font-variant-ligatures:none;text-align:center;text-anchor:middle" d="M 539.8125,-2.234375 V -9.46875 q 0,-1.171875 -0.0937,-1.9375 -0.0781,-0.78125 -0.375,-1.578125 -0.29688,-0.796875 -0.84375,-1.25 -0.53125,-0.453125 -1.48438,-0.734375 -0.9375,-0.296875 -2.29687,-0.296875 H 529.5625 V -17.5 h 5.15625 q 1.92187,0 3.29687,0.359375 1.39063,0.359375 2.29688,1.03125 0.90625,0.65625 1.4375,1.75 0.54687,1.078125 0.75,2.375 0.21875,1.296875 0.21875,3.078125 v 6.671875 h 2.59375 V 0 h -15.75 v -2.234375 z" stroke-width="0" stroke-linejoin="miter" stroke-miterlimit="2" fill="#191d3e" stroke="#191d3e" transform="translate(-131.26263700000004 396.55740625) translate(536.9527959999999 54.078125) scale(1.1) translate(-529.5625 17.5)"></path>
        <path id="path1011" style="font-style:normal;font-weight:500;font-size:32px;line-height:1;font-family:'Raleway Medium Alt1';font-variant-ligatures:none;text-align:center;text-anchor:middle" d="m 527.04687,-15.265625 h -3.09375 V 0 h -2.90625 V -15.265625 H 512.0625 V -17.5 h 14.98437 z" stroke-width="0" stroke-linejoin="miter" stroke-miterlimit="2" fill="#191d3e" stroke="#191d3e" transform="translate(-131.26263700000004 396.55740625) translate(514.0727959999999 54.078125) scale(1.1) translate(-512.0625 17.5)"></path>
        <path id="path1013" style="font-style:normal;font-weight:500;font-size:32px;line-height:1;font-family:'Raleway Medium Alt1';font-variant-ligatures:none;text-align:center;text-anchor:middle" d="M 507.78125,-8.90625 V 0 H 504.875 v -8.90625 q 0,-1.140625 -0.17188,-2.0625 -0.15625,-0.921875 -0.5625,-1.734375 -0.39062,-0.828125 -1.01562,-1.375 Q 502.5,-14.625 501.51562,-14.9375 500.53125,-15.265625 499.25,-15.265625 H 494 V -17.5 h 5.23437 q 1.96875,0 3.45313,0.421875 1.5,0.40625 2.45312,1.140625 0.95313,0.71875 1.54688,1.828125 0.60937,1.09375 0.84375,2.359375 0.25,1.25 0.25,2.84375 z" stroke-width="0" stroke-linejoin="miter" stroke-miterlimit="2" fill="#191d3e" stroke="#191d3e" transform="translate(-131.26263700000004 396.55740625) translate(490.5740459999999 54.078125) scale(1.1) translate(-494 17.5)"></path>
        <path id="path1015" style="font-style:normal;font-weight:500;font-size:32px;line-height:1;font-family:'Raleway Medium Alt1';font-variant-ligatures:none;text-align:center;text-anchor:middle" d="m 489.71875,-7.71875 v 14.375 h -2.90625 v -14.375 q 0,-1.78125 -0.17188,-2.984375 -0.15625,-1.21875 -0.54687,-2.125 -0.39063,-0.921875 -1.07813,-1.4375 -0.6875,-0.515625 -1.6875,-0.75 -0.98437,-0.25 -2.4375,-0.25 H 476.8125 V -17.5 h 4.01562 q 2.625,0 4.29688,0.484375 1.67187,0.46875 2.71875,1.65625 1.04687,1.171875 1.45312,2.984375 0.42188,1.8125 0.42188,4.65625 z" stroke-width="0" stroke-linejoin="miter" stroke-miterlimit="2" fill="#191d3e" stroke="#191d3e" transform="translate(-131.26263700000004 396.55740625) translate(468.0377959999999 54.078125) scale(1.1) translate(-476.8125 17.5)"></path>
        <path id="path1017" style="font-style:normal;font-weight:500;font-size:32px;line-height:1;font-family:'Raleway Medium Alt1';font-variant-ligatures:none;text-align:center;text-anchor:middle" d="m 453.07812,0 6.3125,-15.265625 H 448.4375 v -8.0625 h 2.92187 V -17.5 l 11.45313,0.01563 -0.0469,1.71875 L 456.125,0 Z" stroke-width="0" stroke-linejoin="miter" stroke-miterlimit="2" fill="#191d3e" stroke="#191d3e" transform="translate(-131.26263700000004 396.55740625) translate(433.19529599999987 47.6671875) scale(1.1) translate(-448.4375 23.328125)"></path>
        <path id="path1019" style="font-style:normal;font-weight:500;font-size:32px;line-height:1;font-family:'Raleway Medium Alt1';font-variant-ligatures:none;text-align:center;text-anchor:middle" d="M 440.1875,-2.234375 V -9.46875 q 0,-1.171875 -0.0937,-1.9375 -0.0781,-0.78125 -0.375,-1.578125 -0.29688,-0.796875 -0.84375,-1.25 -0.53125,-0.453125 -1.48438,-0.734375 -0.9375,-0.296875 -2.29687,-0.296875 H 429.9375 V -17.5 h 5.15625 q 1.92187,0 3.29687,0.359375 1.39063,0.359375 2.29688,1.03125 0.90625,0.65625 1.4375,1.75 0.54687,1.078125 0.75,2.375 0.21875,1.296875 0.21875,3.078125 v 6.671875 h 2.59375 V 0 h -15.75 v -2.234375 z" stroke-width="0" stroke-linejoin="miter" stroke-miterlimit="2" fill="#191d3e" stroke="#191d3e" transform="translate(-131.26263700000004 396.55740625) translate(409.21529599999985 54.078125) scale(1.1) translate(-429.9375 17.5)"></path>
        <path id="path1021" style="font-style:normal;font-weight:500;font-size:32px;line-height:1;font-family:'Raleway Medium Alt1';font-variant-ligatures:none;text-align:center;text-anchor:middle" d="m 426.40625,-17.5 v 9.78125 L 423.5,-6.53125 V -17.5 Z" stroke-width="0" stroke-linejoin="miter" stroke-miterlimit="2" fill="#191d3e" stroke="#191d3e" transform="translate(-131.26263700000004 396.55740625) translate(398.50404599999985 54.078125) scale(1.1) translate(-423.5 17.5)"></path>
        <path id="path1023" style="font-style:normal;font-weight:500;font-size:32px;line-height:1;font-family:'Raleway Medium Alt1';font-variant-ligatures:none;text-align:center;text-anchor:middle" d="M 418.4375,-9.46875 V 0 h -2.90625 v -9.5 q 0,-1.15625 -0.0781,-1.921875 -0.0781,-0.78125 -0.35937,-1.5625 -0.28125,-0.796875 -0.78125,-1.25 -0.5,-0.453125 -1.375,-0.734375 -0.875,-0.296875 -2.125,-0.296875 h -3.84375 v 8.796875 q 0,3.34375 -0.96875,4.96875 -0.95313,1.625 -3.32813,1.625 -0.82812,0 -2.04687,-0.25 v -2.234375 q 1.01562,0.21875 1.60937,0.21875 1.10938,0 1.46875,-0.890625 0.35938,-0.890625 0.35938,-3.4375 v -8.796875 h -2.70313 V -17.5 h 9.45313 q 2.23437,0 3.73437,0.53125 1.51563,0.515625 2.35938,1.59375 0.84375,1.078125 1.1875,2.484375 0.34375,1.40625 0.34375,3.421875 z" stroke-width="0" stroke-linejoin="miter" stroke-miterlimit="2" fill="#191d3e" stroke="#191d3e" transform="translate(-131.26263700000004 396.55740625) translate(369.7115789999998 54.078125) scale(1.1) translate(-400.62503 17.5)"></path>
      </g>
      <g id="title" style="font-style:normal;font-weight:300;font-size:72px;line-height:1;font-family:'Montserrat Light Alt1';font-variant-ligatures:none;text-align:center;text-anchor:middle" transform="translate(0 0)">
        <path id="path1026" style="font-style:normal;font-weight:300;font-size:72px;line-height:1;font-family:'Montserrat Light Alt1';font-variant-ligatures:none;text-align:center;text-anchor:middle" d="m 464.10425,0 h 3.6 l -0.072,-50.4 h -3.024 l -22.536,38.952 -22.536,-38.952 h -3.096 V 0 h 3.6 v -42.984 l 21.096,36.288 h 1.8 l 21.096,-36.432 z" stroke-width="0" stroke-linejoin="miter" stroke-miterlimit="2" fill="#191d3e" stroke="#191d3e" transform="translate(0 293.35259375) translate(298.5562499999999 1.7600000000000051) scale(2) translate(-416.44025 50.4)"></path>
        <path id="path1028" style="font-style:normal;font-weight:300;font-size:72px;line-height:1;font-family:'Montserrat Light Alt1';font-variant-ligatures:none;text-align:center;text-anchor:middle" d="m 489.09388,-2.16 c 2.88,1.656 6.048,2.448 9.64799,2.448 3.52801,0 6.69601,-0.792 9.57601,-2.448 2.87999,-1.584 5.112,-3.888 6.76799,-6.768 1.58401,-2.88 2.448,-6.192 2.448,-9.864 0,-3.6 -0.86399,-6.912 -2.448,-9.792 -1.65599,-2.88 -3.888,-5.184 -6.76799,-6.84 -2.88,-1.584 -6.048,-2.448 -9.57601,-2.448 -3.59999,0 -6.76799,0.864 -9.64799,2.448 -2.88,1.656 -5.11201,3.96 -6.69601,6.84 -1.656,2.88 -2.44799,6.192 -2.44799,9.792 0,3.672 0.79199,6.984 2.44799,9.864 1.584,2.88 3.81601,5.184 6.69601,6.768 z m 17.35199,-2.808 c -2.30399,1.368 -4.824,2.016 -7.704,2.016 -2.88,0 -5.47199,-0.648 -7.776,-2.016 -2.304,-1.296 -4.104,-3.168 -5.4,-5.616 -1.29599,-2.376 -1.944,-5.112 -1.944,-8.208 0,-3.024 0.64801,-5.76 1.944,-8.208 1.296,-2.376 3.096,-4.248 5.4,-5.616 2.30401,-1.296 4.896,-2.016 7.776,-2.016 2.88,0 5.40001,0.72 7.704,2.016 2.304,1.368 4.104,3.24 5.4,5.616 1.29601,2.448 2.01601,5.184 2.01601,8.208 0,3.096 -0.72,5.832 -2.01601,8.208 -1.296,2.448 -3.096,4.32 -5.4,5.616 z" stroke-width="0" stroke-linejoin="miter" stroke-miterlimit="2" fill="#2b2f6d" stroke="#2b2f6d" transform="translate(0 293.35259375) translate(435.57550999999995 26.816000000000003) scale(2) translate(-479.94988 37.872)"></path>
        <path id="path1030" style="font-style:normal;font-weight:300;font-size:72px;line-height:1;font-family:'Montserrat Light Alt1';font-variant-ligatures:none;text-align:center;text-anchor:middle" d="m 537.488,-35.64 c -2.448,1.44 -4.248,3.528 -5.4,6.264 v -8.208 h -3.456 V 0 h 3.6 v -19.584 c 0,-4.608 1.152,-8.28 3.528,-10.872 2.304,-2.592 5.616,-3.96 9.792,-3.96 l 0.864,0.072 v -3.528 c -3.528,0 -6.48,0.792 -8.928,2.232 z" stroke-width="0" stroke-linejoin="miter" stroke-miterlimit="2" fill="#3c419c" stroke="#3c419c" transform="translate(0 293.35259375) translate(542.9397499999999 26.816000000000003) scale(2) translate(-528.632 37.872)"></path>
        <path id="path1032" style="font-style:normal;font-weight:300;font-size:72px;line-height:1;font-family:'Montserrat Light Alt1';font-variant-ligatures:none;text-align:center;text-anchor:middle" d="m 589.89387,-37.584 h -3.456 v 8.496 c -1.51199,-2.736 -3.67199,-4.896 -6.408,-6.48 -2.808,-1.512 -5.904,-2.304 -9.35999,-2.304 -3.528,0 -6.696,0.792 -9.576,2.304 -2.88,1.584 -5.11201,3.744 -6.69601,6.48 -1.65599,2.808 -2.44799,5.976 -2.44799,9.432 0,3.528 0.792,6.696 2.44799,9.432 1.584,2.808 3.81601,4.968 6.69601,6.552 2.88,1.584 6.048,2.304 9.576,2.304 3.38399,0 6.47999,-0.72 9.21599,-2.232 2.73601,-1.44 4.824,-3.6 6.408,-6.336 V -3.6 c 0,5.04 -1.22399,8.712 -3.59999,11.088 -2.44801,2.376 -6.12,3.528 -11.08801,3.528 -3.024,0 -5.832,-0.432 -8.424,-1.44 -2.664,-0.936 -4.89599,-2.304 -6.768,-4.032 l -1.944,2.736 c 1.872,1.872 4.32001,3.384 7.41601,4.392 3.024,1.08 6.33599,1.584 9.79199,1.584 6.048,0 10.65601,-1.44 13.68001,-4.464 3.024,-2.952 4.53599,-7.56 4.53599,-13.824 z M 578.87788,-6.48 c -2.376,1.296 -5.04001,1.872 -7.92,1.872 -2.952,0 -5.61601,-0.576 -7.92001,-1.872 -2.304,-1.296 -4.17599,-3.024 -5.472,-5.328 -1.296,-2.304 -1.94399,-4.896 -1.94399,-7.848 0,-2.88 0.64799,-5.472 1.94399,-7.776 1.29601,-2.232 3.168,-3.96 5.472,-5.256 2.304,-1.296 4.96801,-1.944 7.92001,-1.944 2.87999,0 5.544,0.648 7.92,1.944 2.30399,1.296 4.17599,3.024 5.47199,5.256 1.29601,2.304 2.016,4.896 2.016,7.776 0,2.952 -0.71999,5.544 -2.016,7.848 -1.296,2.304 -3.168,4.032 -5.47199,5.328 z" stroke-width="0" stroke-linejoin="miter" stroke-miterlimit="2" fill="#4e52cb" stroke="#4e52cb" transform="translate(0 293.35259375) translate(599.57551 26.816000000000003) scale(2) translate(-551.94988 37.872)"></path>
        <path id="path1034" style="font-style:normal;font-weight:300;font-size:72px;line-height:1;font-family:'Montserrat Light Alt1';font-variant-ligatures:none;text-align:center;text-anchor:middle" d="M 605.132,-37.584 V 0 h 3.6 v -37.584 z m -0.288,-9.936 c 0.576,0.576 1.224,0.792 2.088,0.792 0.792,0 1.512,-0.288 2.088,-0.864 0.576,-0.576 0.864,-1.224 0.864,-2.088 0,-0.792 -0.288,-1.44 -0.864,-2.016 -0.576,-0.576 -1.296,-0.864 -2.088,-0.864 -0.864,0 -1.512,0.288 -2.088,0.864 -0.576,0.576 -0.864,1.296 -0.864,2.088 0,0.864 0.288,1.512 0.864,2.088 z" stroke-width="0" stroke-linejoin="miter" stroke-miterlimit="2" fill="#5f64fa" stroke="#5f64fa" transform="translate(0 293.35259375) translate(713.63575 -2.5600000000000023) scale(2) translate(-603.98 52.56)"></path>
      </g>
      <image xlink:href="" id="icon" x="0" y="0" style="display: none;"></image>
    </g>
  </g>
</svg>