<?xml version="1.0" encoding="UTF-8"?>
<!DOCTYPE svg PUBLIC "-//W3C//DTD SVG 1.1//EN" "http://www.w3.org/Graphics/SVG/1.1/DTD/svg11.dtd">
<svg xmlns="http://www.w3.org/2000/svg" version="1.1" width="250px" height="336px" style="shape-rendering:geometricPrecision; text-rendering:geometricPrecision; image-rendering:optimizeQuality; fill-rule:evenodd; clip-rule:evenodd" xmlns:xlink="http://www.w3.org/1999/xlink">
<g><path style="opacity:1" fill="#f2f3f5" d="M -0.5,-0.5 C 82.8333,-0.5 166.167,-0.5 249.5,-0.5C 249.5,111.5 249.5,223.5 249.5,335.5C 200.833,335.5 152.167,335.5 103.5,335.5C 105.687,328.761 107.187,321.761 108,314.5C 107.978,319.341 108.311,324.341 109,329.5C 113.134,328.014 117.301,327.014 121.5,326.5C 122.882,325.199 124.548,324.366 126.5,324C 125.234,323.691 124.067,323.191 123,322.5C 122.11,319.294 122.443,316.294 124,313.5C 124.667,314.167 125.333,314.833 126,315.5C 128.664,314.302 131.164,312.969 133.5,311.5C 136.059,311.198 138.393,311.532 140.5,312.5C 140.334,319.175 140.5,325.842 141,332.5C 141.383,331.944 141.883,331.611 142.5,331.5C 143.328,325.681 143.828,319.681 144,313.5C 144.414,313.043 144.914,312.709 145.5,312.5C 146.182,313.243 146.849,313.909 147.5,314.5C 147.68,318.682 147.013,322.682 145.5,326.5C 146.918,328.308 148.918,328.975 151.5,328.5C 151.351,329.552 151.517,330.552 152,331.5C 152.714,328.405 153.714,325.405 155,322.5C 155.756,320.191 155.256,318.191 153.5,316.5C 154.63,315.378 155.297,314.044 155.5,312.5C 156.338,312.842 156.672,313.508 156.5,314.5C 156.176,318.555 156.509,322.555 157.5,326.5C 158.107,326.376 158.44,326.043 158.5,325.5C 158.666,320.489 158.499,315.489 158,310.5C 157.283,309.956 156.783,309.289 156.5,308.5C 156.606,305.892 157.772,303.892 160,302.5C 160.395,304.179 160.228,305.845 159.5,307.5C 160.123,309.814 160.456,309.481 160.5,306.5C 161.5,306.5 162.5,306.5 163.5,306.5C 163.5,305.5 163.5,304.5 163.5,303.5C 164.5,303.5 165.5,303.5 166.5,303.5C 166.5,304.5 166.5,305.5 166.5,306.5C 167.959,306.433 169.292,306.766 170.5,307.5C 169.959,310.652 170.959,313.152 173.5,315C 172.667,315.833 171.833,316.667 171,317.5C 171.011,320.437 170.845,323.27 170.5,326C 171.793,326.49 173.127,326.657 174.5,326.5C 174.538,323.819 173.871,321.319 172.5,319C 172.63,317.941 173.13,317.108 174,316.5C 176.698,320.025 179.531,323.358 182.5,326.5C 183.907,324.468 185.24,322.301 186.5,320C 185.833,319.667 185.167,319.333 184.5,319C 187.212,315.256 186.712,314.756 183,317.5C 182.275,314.623 182.775,311.957 184.5,309.5C 183.345,308.05 181.845,307.05 180,306.5C 179.251,305.365 179.417,304.365 180.5,303.5C 181.833,304.5 183.167,305.5 184.5,306.5C 185.5,306.167 186.167,305.5 186.5,304.5C 181.53,303.98 181.197,302.48 185.5,300C 185.167,299.667 184.833,299.333 184.5,299C 185.5,298.5 186.5,298 187.5,297.5C 192.63,298.804 197.63,298.804 202.5,297.5C 205.85,297.665 209.183,297.498 212.5,297C 213.505,295.493 214.838,294.327 216.5,293.5C 218.972,286.392 219.972,279.058 219.5,271.5C 216.203,271.671 215.869,271.005 218.5,269.5C 219.478,269.977 220.311,270.643 221,271.5C 221.196,280.225 221.363,288.892 221.5,297.5C 221.833,297.833 222.167,298.167 222.5,298.5C 228.298,297.874 233.964,297.207 239.5,296.5C 240.675,296.719 241.675,296.386 242.5,295.5C 240.922,294.702 239.256,294.202 237.5,294C 236.663,292.989 236.33,291.822 236.5,290.5C 236.333,276.496 236.5,262.496 237,248.5C 237.237,243.985 238.903,243.318 242,246.5C 243.262,244.697 244.929,243.364 247,242.5C 247.493,236.991 244.993,233.824 239.5,233C 233.833,232.333 228.167,232.333 222.5,233C 218.572,236.573 218.738,239.74 223,242.5C 223.333,242.167 223.667,241.833 224,241.5C 224.579,245.203 224.412,248.869 223.5,252.5C 222.5,252.5 221.5,252.5 220.5,252.5C 220.5,253.5 220.5,254.5 220.5,255.5C 223.718,255.651 224.051,256.484 221.5,258C 224.167,259 224.167,260 221.5,261C 224.23,262.232 224.063,263.065 221,263.5C 211.76,262.004 202.594,262.338 193.5,264.5C 193.977,265.478 194.643,266.311 195.5,267C 198.426,267.218 201.26,267.718 204,268.5C 204.167,271.667 204.333,274.833 204.5,278C 204.45,281.603 203.783,284.936 202.5,288C 203.793,288.49 205.127,288.657 206.5,288.5C 206.5,289.5 206.5,290.5 206.5,291.5C 203.423,291.347 200.589,292.014 198,293.5C 193.458,292.471 189.458,290.471 186,287.5C 184.845,283.326 183.178,279.326 181,275.5C 180.5,268.842 180.334,262.175 180.5,255.5C 184.025,241.82 192.359,237.654 205.5,243C 209.077,246.671 211.744,250.838 213.5,255.5C 215.085,254.526 216.085,253.026 216.5,251C 220.334,250.407 222.334,248.241 222.5,244.5C 221.167,244.5 219.833,244.5 218.5,244.5C 217.976,240.995 216.976,237.661 215.5,234.5C 213.876,234.64 212.71,233.973 212,232.5C 211.366,235.633 209.533,237.633 206.5,238.5C 199.64,236.558 192.64,235.725 185.5,236C 184.77,239.198 182.77,240.698 179.5,240.5C 178.889,237.039 180.056,234.372 183,232.5C 183.333,232.833 183.667,233.167 184,233.5C 185.995,231.253 188.495,230.253 191.5,230.5C 191.5,231.833 191.5,233.167 191.5,234.5C 196.862,234.472 202.195,234.806 207.5,235.5C 207.5,234.5 207.5,233.5 207.5,232.5C 203.625,232.915 199.958,232.415 196.5,231C 197.5,230.5 198.5,230 199.5,229.5C 202.084,230.393 204.751,230.726 207.5,230.5C 207.5,229.5 207.5,228.5 207.5,227.5C 201.139,226.985 194.806,226.152 188.5,225C 192.308,221.641 191.974,221.141 187.5,223.5C 186.548,221.955 186.215,220.288 186.5,218.5C 188.484,218.617 190.15,217.95 191.5,216.5C 189.234,215.686 186.9,215.186 184.5,215C 185.381,214.292 186.047,213.458 186.5,212.5C 193.6,207.245 200.6,201.745 207.5,196C 205.48,196.451 203.48,197.284 201.5,198.5C 200.183,198.179 198.849,197.846 197.5,197.5C 195.513,199.327 193.179,200.327 190.5,200.5C 190.719,201.675 190.386,202.675 189.5,203.5C 188.281,188.611 188.948,173.945 191.5,159.5C 191.034,167.672 191.534,175.672 193,183.5C 193.5,134.501 193.667,85.5011 193.5,36.5C 192.5,36.5 191.5,36.5 190.5,36.5C 181.56,31.4046 172.226,27.0713 162.5,23.5C 158.479,25.1789 154.479,26.8456 150.5,28.5C 149.5,28.5 148.5,28.5 147.5,28.5C 147.165,63.0122 146.165,97.3455 144.5,131.5C 133.063,125.406 121.397,119.74 109.5,114.5C 107.729,115.035 107.396,115.869 108.5,117C 118.648,122.653 128.981,127.819 139.5,132.5C 141.438,134.163 143.772,134.829 146.5,134.5C 146.823,138.226 146.489,141.893 145.5,145.5C 144.378,144.37 143.044,143.703 141.5,143.5C 135.043,138.883 128.71,134.049 122.5,129C 121.833,128.333 121.167,128.333 120.5,129C 127.174,134.712 133.841,140.379 140.5,146C 141.823,146.816 142.489,147.983 142.5,149.5C 118.158,149.833 93.8242,149.5 69.5,148.5C 75.5309,142.303 82.0309,136.636 89,131.5C 93.5,126.333 98,121.167 102.5,116C 102.167,115.833 101.833,115.667 101.5,115.5C 89.8674,126.295 78.0341,136.961 66,147.5C 65.51,146.207 65.3433,144.873 65.5,143.5C 66.3171,141.031 66.8171,138.365 67,135.5C 70.4101,134.126 70.2434,133.459 66.5,133.5C 66.5,131.833 66.5,130.167 66.5,128.5C 70.5,128.167 70.5,127.833 66.5,127.5C 65.8703,116.41 66.5369,105.577 68.5,95C 66.5053,93.0053 64.5053,91.0053 62.5,89C 63.4091,87.2108 63.5758,85.3774 63,83.5C 62.4387,84.0219 61.772,84.3552 61,84.5C 57.0436,81.9025 53.2102,81.9025 49.5,84.5C 42.5142,85.3787 35.5142,86.212 28.5,87C 25.9746,87.4238 23.9746,88.5905 22.5,90.5C 21.6618,90.8417 21.3284,91.5084 21.5,92.5C 16.7581,96.5752 12.4248,100.909 8.5,105.5C 7.83333,140.002 7.16667,174.669 6.5,209.5C 4.14955,208.139 1.81621,206.806 -0.5,205.5C -0.5,136.833 -0.5,68.1667 -0.5,-0.5 Z"/></g>
<g><path style="opacity:1" fill="#f0f2f5" d="M 186.5,37.5 C 187.952,38.3019 189.618,38.8019 191.5,39C 187.644,39.1773 183.977,39.6773 180.5,40.5C 180.5,41.5 180.5,42.5 180.5,43.5C 182.167,43.5 183.833,43.5 185.5,43.5C 187.262,43.6427 188.929,43.3094 190.5,42.5C 191.499,54.8153 191.832,67.1487 191.5,79.5C 190.5,79.5 189.5,79.5 188.5,79.5C 188.167,78.8333 187.833,78.1667 187.5,77.5C 187.123,75.742 186.456,74.0754 185.5,72.5C 185.863,71.8165 186.196,71.1499 186.5,70.5C 187.117,70.6107 187.617,70.944 188,71.5C 188.499,67.5138 188.666,63.5138 188.5,59.5C 188.833,56.5 187.5,55.1667 184.5,55.5C 184.51,73.1688 184.343,90.8354 184,108.5C 183.667,108.833 183.333,109.167 183,109.5C 182.832,98.4849 182.332,87.4849 181.5,76.5C 180.614,77.325 180.281,78.325 180.5,79.5C 179.5,79.5 178.5,79.5 177.5,79.5C 177.492,76.4552 177.159,73.4552 176.5,70.5C 173.918,70.9746 171.918,70.3079 170.5,68.5C 172.042,69.3007 173.708,69.634 175.5,69.5C 175.5,64.8333 175.5,60.1667 175.5,55.5C 173.194,55.0074 170.861,54.6741 168.5,54.5C 168.337,56.8568 168.503,59.1902 169,61.5C 169.49,60.2068 169.657,58.8734 169.5,57.5C 170.5,57.5 171.5,57.5 172.5,57.5C 172.813,60.2469 172.48,62.9135 171.5,65.5C 170.081,66.0047 169.415,67.0047 169.5,68.5C 167.953,64.0095 166.286,59.6762 164.5,55.5C 163.833,54.1667 163.167,52.8333 162.5,51.5C 161.5,51.5 160.5,51.5 159.5,51.5C 159.5,51.1667 159.5,50.8333 159.5,50.5C 158.852,48.9142 158.352,47.2475 158,45.5C 157.586,45.9574 157.086,46.2907 156.5,46.5C 154.821,44.8955 152.821,44.2289 150.5,44.5C 150.185,40.6286 150.518,36.9619 151.5,33.5C 157.145,34.7749 162.811,35.6083 168.5,36C 164.186,33.3399 159.519,31.6732 154.5,31C 157.112,29.1105 159.945,27.6105 163,26.5C 171.071,29.7871 178.904,33.4538 186.5,37.5 Z"/></g>
<g><path style="opacity:1" fill="#4f89aa" d="M 180.5,40.5 C 183.85,40.335 187.183,40.5017 190.5,41C 188.685,41.7568 187.019,42.5902 185.5,43.5C 183.833,43.5 182.167,43.5 180.5,43.5C 180.5,42.5 180.5,41.5 180.5,40.5 Z"/></g>
<g><path style="opacity:1" fill="#4c8aa7" d="M 190.5,36.5 C 189.432,37.4345 188.099,37.7678 186.5,37.5C 178.904,33.4538 171.071,29.7871 163,26.5C 159.945,27.6105 157.112,29.1105 154.5,31C 159.519,31.6732 164.186,33.3399 168.5,36C 162.811,35.6083 157.145,34.7749 151.5,33.5C 151.44,32.9569 151.107,32.6236 150.5,32.5C 149.5,50.1541 149.167,67.8208 149.5,85.5C 148.834,76.3394 148.5,67.0061 148.5,57.5C 148.526,47.6049 149.192,37.9383 150.5,28.5C 154.479,26.8456 158.479,25.1789 162.5,23.5C 172.226,27.0713 181.56,31.4046 190.5,36.5 Z"/></g>
<g><path style="opacity:1" fill="#88abb8" d="M 159.5,50.5 C 159.5,50.8333 159.5,51.1667 159.5,51.5C 158.022,51.238 156.689,51.5713 155.5,52.5C 156.949,53.1719 158.282,53.8386 159.5,54.5C 158.5,54.5 157.5,54.5 156.5,54.5C 156.66,56.1992 156.494,57.8659 156,59.5C 154.711,56.6492 154.211,53.6492 154.5,50.5C 156.167,50.5 157.833,50.5 159.5,50.5 Z"/></g>
<g><path style="opacity:1" fill="#6d99a7" d="M 188.5,59.5 C 188.666,63.5138 188.499,67.5138 188,71.5C 187.617,70.944 187.117,70.6107 186.5,70.5C 186.589,67.2914 186.256,64.1248 185.5,61C 185.682,58.4219 186.682,57.9219 188.5,59.5 Z"/></g>
<g><path style="opacity:1" fill="#6498b3" d="M 170.5,68.5 C 170.167,68.5 169.833,68.5 169.5,68.5C 169.415,67.0047 170.081,66.0047 171.5,65.5C 172.48,62.9135 172.813,60.2469 172.5,57.5C 171.5,57.5 170.5,57.5 169.5,57.5C 169.657,58.8734 169.49,60.2068 169,61.5C 168.503,59.1902 168.337,56.8568 168.5,54.5C 170.861,54.6741 173.194,55.0074 175.5,55.5C 175.5,60.1667 175.5,64.8333 175.5,69.5C 173.708,69.634 172.042,69.3007 170.5,68.5 Z"/></g>
<g><path style="opacity:1" fill="#def3fd" d="M 147.5,28.5 C 147.5,67.5 147.5,106.5 147.5,145.5C 147.869,147.993 147.203,148.66 145.5,147.5C 143.861,146.527 142.527,145.194 141.5,143.5C 143.044,143.703 144.378,144.37 145.5,145.5C 146.489,141.893 146.823,138.226 146.5,134.5C 143.772,134.829 141.438,134.163 139.5,132.5C 141.415,132.784 143.081,132.451 144.5,131.5C 146.165,97.3455 147.165,63.0122 147.5,28.5 Z"/></g>
<g><path style="opacity:1" fill="#5d93b1" d="M 170.5,73.5 C 172.167,73.5 173.833,73.5 175.5,73.5C 176.108,78.9443 175.442,83.9443 173.5,88.5C 172.34,87.735 171.34,86.735 170.5,85.5C 172.429,82.7751 172.929,79.7751 172,76.5C 171.586,76.0426 171.086,75.7093 170.5,75.5C 169.719,76.7287 169.219,78.062 169,79.5C 168.833,78.5 168.667,77.5 168.5,76.5C 168.64,74.9704 169.307,73.9704 170.5,73.5 Z"/></g>
<g><path style="opacity:1" fill="#629cb9" d="M 147.5,28.5 C 148.5,28.5 149.5,28.5 150.5,28.5C 149.192,37.9383 148.526,47.6049 148.5,57.5C 148.5,67.0061 148.834,76.3394 149.5,85.5C 149.5,86.1667 149.5,86.8333 149.5,87.5C 148.833,106.833 148.167,126.167 147.5,145.5C 147.5,106.5 147.5,67.5 147.5,28.5 Z"/></g>
<g><path style="opacity:1" fill="#d3e7ee" d="M 170.5,73.5 C 169.307,73.9704 168.64,74.9704 168.5,76.5C 168.667,77.5 168.833,78.5 169,79.5C 169.219,78.062 169.719,76.7287 170.5,75.5C 171.086,75.7093 171.586,76.0426 172,76.5C 172.929,79.7751 172.429,82.7751 170.5,85.5C 171.34,86.735 172.34,87.735 173.5,88.5C 173.5,89.8333 173.5,91.1667 173.5,92.5C 175.401,92.2465 176.067,92.5798 175.5,93.5C 175.167,93.5 174.833,93.5 174.5,93.5C 172.194,93.0074 169.861,92.6741 167.5,92.5C 168.919,91.5489 170.585,91.2155 172.5,91.5C 171.199,89.3281 170.199,86.9948 169.5,84.5C 169.5,83.5 169.5,82.5 169.5,81.5C 168.5,81.5 167.5,81.5 166.5,81.5C 166.177,77.774 166.511,74.1073 167.5,70.5C 168.548,71.548 169.548,72.548 170.5,73.5 Z"/></g>
<g><path style="opacity:1" fill="#7da7b7" d="M 187.5,77.5 C 187.833,78.1667 188.167,78.8333 188.5,79.5C 188.838,93.993 187.838,94.1596 185.5,80C 185.684,78.6244 186.351,77.7911 187.5,77.5 Z"/></g>
<g><path style="opacity:1" fill="#5491b0" d="M 43.5,88.5 C 37.8434,89.5936 32.1767,90.5936 26.5,91.5C 24.901,91.7678 23.5676,91.4345 22.5,90.5C 23.9746,88.5905 25.9746,87.4238 28.5,87C 35.5142,86.212 42.5142,85.3787 49.5,84.5C 51.8194,83.833 54.1527,83.6664 56.5,84C 55.1667,85 53.8333,86 52.5,87C 49.3054,87.1805 46.3054,87.6805 43.5,88.5 Z"/></g>
<g><path style="opacity:1" fill="#5c93ab" d="M 56.5,95.5 C 53.8991,98.6043 51.0657,101.604 48,104.5C 48.2253,100.403 50.0586,97.0699 53.5,94.5C 55.767,91.7291 58.267,89.0625 61,86.5C 60.2737,89.7714 58.7737,92.7714 56.5,95.5 Z"/></g>
<g><path style="opacity:1" fill="#9ebed0" d="M 22.5,90.5 C 23.5676,91.4345 24.901,91.7678 26.5,91.5C 24.7056,92.2329 23.0389,93.2329 21.5,94.5C 21.5,93.8333 21.5,93.1667 21.5,92.5C 21.3284,91.5084 21.6618,90.8417 22.5,90.5 Z"/></g>
<g><path style="opacity:1" fill="#578da5" d="M 167.5,92.5 C 169.861,92.6741 172.194,93.0074 174.5,93.5C 174.5,97.8333 174.5,102.167 174.5,106.5C 172.833,106.5 171.167,106.5 169.5,106.5C 172.081,103.416 173.081,99.7496 172.5,95.5C 171.5,95.5 170.5,95.5 169.5,95.5C 169.66,97.1992 169.494,98.8659 169,100.5C 167.921,97.9373 167.421,95.2706 167.5,92.5 Z"/></g>
<g><path style="opacity:1" fill="#a8c4cf" d="M 28.5,103.5 C 32.3112,102.355 36.3112,102.188 40.5,103C 37.5259,103.993 34.5259,104.826 31.5,105.5C 31.1788,103.952 30.1788,103.285 28.5,103.5 Z"/></g>
<g><path style="opacity:1" fill="#f2f3f5" d="M 53.5,94.5 C 50.0586,97.0699 48.2253,100.403 48,104.5C 51.0657,101.604 53.8991,98.6043 56.5,95.5C 57.552,95.3505 58.552,95.5172 59.5,96C 56.8333,99.3333 54.1667,102.667 51.5,106C 52.9389,108.225 54.6055,110.225 56.5,112C 54.4299,112.948 52.9299,114.448 52,116.5C 50.2602,115.284 49.2602,113.618 49,111.5C 48.1376,113.087 47.4709,114.754 47,116.5C 46.6667,115.833 46.3333,115.167 46,114.5C 45.6667,115.833 45.3333,117.167 45,118.5C 44.1741,130.008 44.3407,141.341 45.5,152.5C 45.5,154.833 45.5,157.167 45.5,159.5C 44.6981,158.048 44.1981,156.382 44,154.5C 42.5981,156.973 41.0981,156.973 39.5,154.5C 38.6906,152.929 38.3573,151.262 38.5,149.5C 39.5,149.5 40.5,149.5 41.5,149.5C 41.7947,147.265 41.4614,145.265 40.5,143.5C 40.634,141.708 40.3007,140.042 39.5,138.5C 39.6781,135.678 40.3448,133.011 41.5,130.5C 41.4805,129.274 41.1471,128.274 40.5,127.5C 40.6747,125.379 40.3414,123.379 39.5,121.5C 38.6868,120.347 37.6868,120.347 36.5,121.5C 35.8333,120.5 35.1667,119.5 34.5,118.5C 33.914,118.709 33.414,119.043 33,119.5C 31.978,124.905 32.478,130.071 34.5,135C 32.7208,138.956 32.0541,143.123 32.5,147.5C 31.1667,147.5 29.8333,147.5 28.5,147.5C 27.8333,147.5 27.1667,147.5 26.5,147.5C 23.8327,146.894 21.166,146.061 18.5,145C 22.8206,144.501 27.1539,144.334 31.5,144.5C 31.5,143.5 31.5,142.5 31.5,141.5C 29.3193,141.716 27.6526,140.883 26.5,139C 28.6679,137.126 30.1679,135.293 31,133.5C 31.4828,132.552 31.6495,131.552 31.5,130.5C 30.4324,129.566 29.099,129.232 27.5,129.5C 23.3002,128.78 18.9669,128.114 14.5,127.5C 13.2011,128.09 12.3678,129.09 12,130.5C 11.5005,124.175 11.3338,117.842 11.5,111.5C 15.8461,111.666 20.1794,111.499 24.5,111C 21.4465,110.821 18.4465,110.321 15.5,109.5C 20.0498,108.861 24.3831,107.861 28.5,106.5C 29.209,105.596 30.209,105.263 31.5,105.5C 34.5259,104.826 37.5259,103.993 40.5,103C 36.3112,102.188 32.3112,102.355 28.5,103.5C 23.7869,104.18 19.1202,104.18 14.5,103.5C 16.6116,100.25 18.9449,97.25 21.5,94.5C 23.0389,93.2329 24.7056,92.2329 26.5,91.5C 32.1767,90.5936 37.8434,89.5936 43.5,88.5C 46.8499,88.665 50.1832,88.4983 53.5,88C 54.7979,85.8596 55.4646,86.0263 55.5,88.5C 54.9904,90.0879 53.9904,91.2545 52.5,92C 53.2524,92.6708 53.5858,93.5041 53.5,94.5 Z"/></g>
<g><path style="opacity:1" fill="#93b7ca" d="M 151.5,33.5 C 150.518,36.9619 150.185,40.6286 150.5,44.5C 150.5,100.833 150.5,157.167 150.5,213.5C 150.5,216.833 150.5,220.167 150.5,223.5C 149.501,178.336 149.168,133.003 149.5,87.5C 149.5,86.8333 149.5,86.1667 149.5,85.5C 149.167,67.8208 149.5,50.1541 150.5,32.5C 151.107,32.6236 151.44,32.9569 151.5,33.5 Z"/></g>
<g><path style="opacity:1" fill="#e9f3f8" d="M 188.5,59.5 C 186.682,57.9219 185.682,58.4219 185.5,61C 186.256,64.1248 186.589,67.2914 186.5,70.5C 186.196,71.1499 185.863,71.8165 185.5,72.5C 186.456,74.0754 187.123,75.742 187.5,77.5C 186.351,77.7911 185.684,78.6244 185.5,80C 187.838,94.1596 188.838,93.993 188.5,79.5C 189.5,79.5 190.5,79.5 191.5,79.5C 191.5,96.8333 191.5,114.167 191.5,131.5C 190.675,127.353 190.175,123.019 190,118.5C 189.617,117.944 189.117,117.611 188.5,117.5C 188.167,117.5 187.833,117.5 187.5,117.5C 186.307,117.97 185.64,118.97 185.5,120.5C 185.997,122.818 186.33,125.152 186.5,127.5C 184.8,129.888 183.466,132.555 182.5,135.5C 181.914,119.506 181.414,103.506 181,87.5C 180.5,128.832 180.333,170.165 180.5,211.5C 179.833,211.5 179.167,211.5 178.5,211.5C 177.325,211.719 176.325,211.386 175.5,210.5C 177.238,204.376 178.071,198.043 178,191.5C 178.264,173.158 178.764,154.825 179.5,136.5C 178.495,130.649 178.495,124.816 179.5,119C 179.002,113.653 178.002,108.486 176.5,103.5C 178.807,95.6779 179.14,87.6779 177.5,79.5C 178.5,79.5 179.5,79.5 180.5,79.5C 180.281,78.325 180.614,77.325 181.5,76.5C 182.332,87.4849 182.832,98.4849 183,109.5C 183.333,109.167 183.667,108.833 184,108.5C 184.343,90.8354 184.51,73.1688 184.5,55.5C 187.5,55.1667 188.833,56.5 188.5,59.5 Z"/></g>
<g><path style="opacity:1" fill="#a0b5c7" d="M 187.5,99.5 C 188.809,103.351 188.809,107.351 187.5,111.5C 186.702,111.043 186.369,110.376 186.5,109.5C 187.479,106.375 187.813,103.042 187.5,99.5 Z"/></g>
<g><path style="opacity:1" fill="#538ca7" d="M 187.5,99.5 C 187.813,103.042 187.479,106.375 186.5,109.5C 186.251,106.998 185.917,104.498 185.5,102C 185.833,100.833 186.167,99.6667 186.5,98.5C 187.107,98.6236 187.44,98.9569 187.5,99.5 Z"/></g>
<g><path style="opacity:1" fill="#a3bbcb" d="M 64.5,95.5 C 63.8333,113.833 63.1667,132.167 62.5,150.5C 62.1671,131.488 62.5004,112.488 63.5,93.5C 64.2975,93.9569 64.6309,94.6236 64.5,95.5 Z"/></g>
<g><path style="opacity:1" fill="#4e8ba4" d="M 187.5,117.5 C 187.813,121.042 187.479,124.375 186.5,127.5C 186.33,125.152 185.997,122.818 185.5,120.5C 185.64,118.97 186.307,117.97 187.5,117.5 Z"/></g>
<g><path style="opacity:1" fill="#9dbec4" d="M 187.5,117.5 C 187.833,117.5 188.167,117.5 188.5,117.5C 188.666,121.846 188.499,126.179 188,130.5C 186.961,129.756 186.461,128.756 186.5,127.5C 187.479,124.375 187.813,121.042 187.5,117.5 Z"/></g>
<g><path style="opacity:1" fill="#9cbece" d="M 13.5,107.5 C 12.791,108.404 11.791,108.737 10.5,108.5C 10.5,142.167 10.5,175.833 10.5,209.5C 9.50167,175.671 9.16834,141.671 9.5,107.5C 10.8333,107.5 12.1667,107.5 13.5,107.5 Z"/></g>
<g><path style="opacity:1" fill="#e5f0f6" d="M 65.5,143.5 C 65.8297,127.325 65.4964,111.325 64.5,95.5C 64.6309,94.6236 64.2975,93.9569 63.5,93.5C 62.5004,112.488 62.1671,131.488 62.5,150.5C 59.8136,151.988 60.1469,152.655 63.5,152.5C 63.5,159.833 63.5,167.167 63.5,174.5C 63.5,180.167 63.5,185.833 63.5,191.5C 62.6424,181.336 61.9757,171.002 61.5,160.5C 61.4714,157.731 60.8048,155.397 59.5,153.5C 59.5,152.833 59.1667,152.5 58.5,152.5C 58.5,152.167 58.5,151.833 58.5,151.5C 59.8333,145.833 59.8333,140.167 58.5,134.5C 58.5,132.833 58.5,131.167 58.5,129.5C 59.8157,123.987 59.8157,118.32 58.5,112.5C 57.8933,112.624 57.56,112.957 57.5,113.5C 56.5,114.167 55.5,114.833 54.5,115.5C 53.469,117.961 52.8023,120.627 52.5,123.5C 51.5176,121.594 50.5176,119.594 49.5,117.5C 47.4835,119.529 46.4835,122.029 46.5,125C 46.6206,131.881 47.1206,132.048 48,125.5C 49.1562,124.007 49.9896,124.174 50.5,126C 49.2778,129.686 48.6111,133.519 48.5,137.5C 48.6667,140.833 48.8333,144.167 49,147.5C 49.3768,148.942 50.2101,149.942 51.5,150.5C 51.5,151.5 51.5,152.5 51.5,153.5C 50.2921,152.766 48.9587,152.433 47.5,152.5C 47.5,177.167 47.5,201.833 47.5,226.5C 46.8333,226.5 46.5,226.167 46.5,225.5C 46.8793,192.484 46.5459,168.151 45.5,152.5C 44.3407,141.341 44.1741,130.008 45,118.5C 45.3333,117.167 45.6667,115.833 46,114.5C 46.3333,115.167 46.6667,115.833 47,116.5C 47.4709,114.754 48.1376,113.087 49,111.5C 49.2602,113.618 50.2602,115.284 52,116.5C 52.9299,114.448 54.4299,112.948 56.5,112C 54.6055,110.225 52.9389,108.225 51.5,106C 54.1667,102.667 56.8333,99.3333 59.5,96C 58.552,95.5172 57.552,95.3505 56.5,95.5C 58.7737,92.7714 60.2737,89.7714 61,86.5C 58.267,89.0625 55.767,91.7291 53.5,94.5C 53.5858,93.5041 53.2524,92.6708 52.5,92C 53.9904,91.2545 54.9904,90.0879 55.5,88.5C 55.4646,86.0263 54.7979,85.8596 53.5,88C 50.1832,88.4983 46.8499,88.665 43.5,88.5C 46.3054,87.6805 49.3054,87.1805 52.5,87C 53.8333,86 55.1667,85 56.5,84C 54.1527,83.6664 51.8194,83.833 49.5,84.5C 53.2102,81.9025 57.0436,81.9025 61,84.5C 61.772,84.3552 62.4387,84.0219 63,83.5C 63.5758,85.3774 63.4091,87.2108 62.5,89C 64.5053,91.0053 66.5053,93.0053 68.5,95C 66.5369,105.577 65.8703,116.41 66.5,127.5C 70.5,127.833 70.5,128.167 66.5,128.5C 66.5,130.167 66.5,131.833 66.5,133.5C 70.2434,133.459 70.4101,134.126 67,135.5C 66.8171,138.365 66.3171,141.031 65.5,143.5 Z"/></g>
<g><path style="opacity:1" fill="#8fbcd3" d="M 57.5,113.5 C 57.56,112.957 57.8933,112.624 58.5,112.5C 59.8157,118.32 59.8157,123.987 58.5,129.5C 58.8214,123.974 58.4881,118.64 57.5,113.5 Z"/></g>
<g><path style="opacity:1" fill="#4f849f" d="M 21.5,92.5 C 21.5,93.1667 21.5,93.8333 21.5,94.5C 18.9449,97.25 16.6116,100.25 14.5,103.5C 19.1202,104.18 23.7869,104.18 28.5,103.5C 30.1788,103.285 31.1788,103.952 31.5,105.5C 30.209,105.263 29.209,105.596 28.5,106.5C 23.5275,107.164 18.5275,107.497 13.5,107.5C 12.1667,107.5 10.8333,107.5 9.5,107.5C 9.16834,141.671 9.50167,175.671 10.5,209.5C 12.5368,210.846 14.5368,212.18 16.5,213.5C 14.5853,213.216 12.9187,213.549 11.5,214.5C 9.61145,213.396 7.94478,212.063 6.5,210.5C 8.49338,175.849 9.16004,140.849 8.5,105.5C 12.4248,100.909 16.7581,96.5752 21.5,92.5 Z"/></g>
<g><path style="opacity:1" fill="#6e97b1" d="M 39.5,121.5 C 40.3414,123.379 40.6747,125.379 40.5,127.5C 40.762,128.978 40.4287,130.311 39.5,131.5C 38.1944,128.02 38.1944,124.687 39.5,121.5 Z"/></g>
<g><path style="opacity:1" fill="#5288a6" d="M 57.5,113.5 C 58.4881,118.64 58.8214,123.974 58.5,129.5C 57.1765,130.85 56.1765,130.683 55.5,129C 56.562,125.211 56.7287,121.377 56,117.5C 55.6667,119.5 55.3333,121.5 55,123.5C 54.5026,120.854 54.3359,118.187 54.5,115.5C 55.5,114.833 56.5,114.167 57.5,113.5 Z"/></g>
<g><path style="opacity:1" fill="#f4f4f2" d="M 52.5,123.5 C 51.7302,131.676 52.0636,139.843 53.5,148C 53.3613,149.301 52.6946,150.134 51.5,150.5C 50.2101,149.942 49.3768,148.942 49,147.5C 48.8333,144.167 48.6667,140.833 48.5,137.5C 48.6111,133.519 49.2778,129.686 50.5,126C 49.9896,124.174 49.1562,124.007 48,125.5C 47.1206,132.048 46.6206,131.881 46.5,125C 46.4835,122.029 47.4835,119.529 49.5,117.5C 50.5176,119.594 51.5176,121.594 52.5,123.5 Z"/></g>
<g><path style="opacity:1" fill="#a8cbe0" d="M 14.5,130.5 C 18.6344,129.515 22.9677,129.182 27.5,129.5C 29.099,129.232 30.4324,129.566 31.5,130.5C 30.8333,130.833 30.1667,131.167 29.5,131.5C 24.6946,130.513 19.6946,130.179 14.5,130.5 Z"/></g>
<g><path style="opacity:1" fill="#a8d1e7" d="M 8.5,105.5 C 9.16004,140.849 8.49338,175.849 6.5,210.5C 4.0202,209.758 1.68686,208.758 -0.5,207.5C -0.5,206.833 -0.5,206.167 -0.5,205.5C 1.81621,206.806 4.14955,208.139 6.5,209.5C 7.16667,174.669 7.83333,140.002 8.5,105.5 Z"/></g>
<g><path style="opacity:1" fill="#6f94ac" d="M 39.5,138.5 C 40.3007,140.042 40.634,141.708 40.5,143.5C 40.7852,145.288 40.4519,146.955 39.5,148.5C 38.1944,145.02 38.1944,141.687 39.5,138.5 Z"/></g>
<g><path style="opacity:1" fill="#8abed0" d="M 57.5,135.5 C 57.5,134.833 57.8333,134.5 58.5,134.5C 59.8333,140.167 59.8333,145.833 58.5,151.5C 58.8214,145.974 58.4881,140.64 57.5,135.5 Z"/></g>
<g><path style="opacity:1" fill="#ecf3f6" d="M 28.5,106.5 C 24.3831,107.861 20.0498,108.861 15.5,109.5C 18.4465,110.321 21.4465,110.821 24.5,111C 20.1794,111.499 15.8461,111.666 11.5,111.5C 11.3338,117.842 11.5005,124.175 12,130.5C 12.3678,129.09 13.2011,128.09 14.5,127.5C 18.9669,128.114 23.3002,128.78 27.5,129.5C 22.9677,129.182 18.6344,129.515 14.5,130.5C 13.596,131.209 13.2627,132.209 13.5,133.5C 18.0323,133.818 22.3656,133.485 26.5,132.5C 27.609,132.443 28.609,132.11 29.5,131.5C 30.1667,131.167 30.8333,130.833 31.5,130.5C 31.6495,131.552 31.4828,132.552 31,133.5C 30.1679,135.293 28.6679,137.126 26.5,139C 27.6526,140.883 29.3193,141.716 31.5,141.5C 31.5,142.5 31.5,143.5 31.5,144.5C 27.1539,144.334 22.8206,144.501 18.5,145C 21.166,146.061 23.8327,146.894 26.5,147.5C 22.1434,147.414 17.81,147.08 13.5,146.5C 13.3601,148.124 14.0267,149.29 15.5,150C 19.8206,150.499 24.1539,150.666 28.5,150.5C 30.3146,149.37 32.3146,148.704 34.5,148.5C 34.8333,148.5 35.1667,148.5 35.5,148.5C 36.8522,151.781 37.5188,155.281 37.5,159C 37.4944,161.033 37.1611,162.866 36.5,164.5C 36.4249,161.794 36.0916,159.127 35.5,156.5C 35.5,156.167 35.5,155.833 35.5,155.5C 34.791,154.596 33.791,154.263 32.5,154.5C 32.0963,160.177 32.763,165.677 34.5,171C 32.5229,173.043 31.5229,175.543 31.5,178.5C 27.5483,177.728 23.5483,177.395 19.5,177.5C 11.7682,176.69 11.7682,177.856 19.5,181C 22.4816,181.498 25.4816,181.665 28.5,181.5C 26.0314,182.317 23.3647,182.817 20.5,183C 24.1667,183.333 27.8333,183.667 31.5,184C 24.0583,187.938 17.5583,186.771 12,180.5C 11.168,189.518 11.3347,198.518 12.5,207.5C 13.354,208.522 14.354,209.355 15.5,210C 18.1019,211.14 20.7686,211.973 23.5,212.5C 23.5271,214.199 24.1938,215.533 25.5,216.5C 22.2084,216.353 19.2084,215.353 16.5,213.5C 14.5368,212.18 12.5368,210.846 10.5,209.5C 10.5,175.833 10.5,142.167 10.5,108.5C 11.791,108.737 12.791,108.404 13.5,107.5C 18.5275,107.497 23.5275,107.164 28.5,106.5 Z"/></g>
<g><path style="opacity:1" fill="#8fb6c9" d="M 14.5,130.5 C 18.0293,132.423 22.0293,133.089 26.5,132.5C 22.3656,133.485 18.0323,133.818 13.5,133.5C 13.2627,132.209 13.596,131.209 14.5,130.5 Z"/></g>
<g><path style="opacity:1" fill="#4b82a3" d="M 14.5,130.5 C 19.6946,130.179 24.6946,130.513 29.5,131.5C 28.609,132.11 27.609,132.443 26.5,132.5C 22.0293,133.089 18.0293,132.423 14.5,130.5 Z"/></g>
<g><path style="opacity:1" fill="#5289a6" d="M 57.5,135.5 C 58.4881,140.64 58.8214,145.974 58.5,151.5C 58.5,151.833 58.5,152.167 58.5,152.5C 57.5041,152.414 56.6708,152.748 56,153.5C 56.3932,148.868 56.3932,144.201 56,139.5C 55.6667,141.5 55.3333,143.5 55,145.5C 54.1786,142.446 54.3452,139.446 55.5,136.5C 56.1835,136.137 56.8501,135.804 57.5,135.5 Z"/></g>
<g><path style="opacity:1" fill="#9bbed2" d="M 190.5,36.5 C 191.5,36.5 192.5,36.5 193.5,36.5C 193.667,85.5011 193.5,134.501 193,183.5C 191.534,175.672 191.034,167.672 191.5,159.5C 191.5,150.167 191.5,140.833 191.5,131.5C 191.5,114.167 191.5,96.8333 191.5,79.5C 191.832,67.1487 191.499,54.8153 190.5,42.5C 188.929,43.3094 187.262,43.6427 185.5,43.5C 187.019,42.5902 188.685,41.7568 190.5,41C 187.183,40.5017 183.85,40.335 180.5,40.5C 183.977,39.6773 187.644,39.1773 191.5,39C 189.618,38.8019 187.952,38.3019 186.5,37.5C 188.099,37.7678 189.432,37.4345 190.5,36.5 Z"/></g>
<g><path style="opacity:1" fill="#e7f1f7" d="M 150.5,44.5 C 152.821,44.2289 154.821,44.8955 156.5,46.5C 157.086,46.2907 157.586,45.9574 158,45.5C 158.352,47.2475 158.852,48.9142 159.5,50.5C 157.833,50.5 156.167,50.5 154.5,50.5C 154.211,53.6492 154.711,56.6492 156,59.5C 156.494,57.8659 156.66,56.1992 156.5,54.5C 157.5,54.5 158.5,54.5 159.5,54.5C 160.473,56.9479 160.806,59.6146 160.5,62.5C 158.284,62.2746 156.617,63.1079 155.5,65C 156.905,66.2692 158.571,66.7692 160.5,66.5C 162.442,61.9443 163.108,56.9443 162.5,51.5C 163.167,52.8333 163.833,54.1667 164.5,55.5C 164.524,61.857 164.19,68.1903 163.5,74.5C 164.479,77.6248 164.813,80.9581 164.5,84.5C 166.167,84.5 167.833,84.5 169.5,84.5C 170.199,86.9948 171.199,89.3281 172.5,91.5C 170.585,91.2155 168.919,91.5489 167.5,92.5C 167.421,95.2706 167.921,97.9373 169,100.5C 169.494,98.8659 169.66,97.1992 169.5,95.5C 170.5,95.5 171.5,95.5 172.5,95.5C 173.081,99.7496 172.081,103.416 169.5,106.5C 169.5,106.833 169.5,107.167 169.5,107.5C 168.504,107.586 167.671,107.252 167,106.5C 166.828,102.129 166.328,97.7956 165.5,93.5C 164.692,93.8076 164.025,94.3076 163.5,95C 164.303,99.4145 164.803,103.914 165,108.5C 165.692,109.025 166.192,109.692 166.5,110.5C 164.475,114.931 163.975,119.598 165,124.5C 165.885,121.048 166.718,117.714 167.5,114.5C 168.567,121.379 169.234,121.712 169.5,115.5C 170.5,115.5 171.5,115.5 172.5,115.5C 172.5,118.167 172.5,120.833 172.5,123.5C 171.5,123.5 170.5,123.5 169.5,123.5C 169.5,124.5 169.5,125.5 169.5,126.5C 171.167,126.5 172.833,126.5 174.5,126.5C 174.5,121.833 174.5,117.167 174.5,112.5C 172.5,112.5 170.5,112.5 168.5,112.5C 170.948,111.527 173.615,111.194 176.5,111.5C 176.241,115.24 176.574,118.906 177.5,122.5C 177.154,123.696 176.654,123.696 176,122.5C 176.613,136.476 176.446,150.476 175.5,164.5C 174.5,164.5 173.5,164.5 172.5,164.5C 174.36,159.807 175.026,154.807 174.5,149.5C 172.139,149.674 169.806,150.007 167.5,150.5C 167.508,153.545 167.841,156.545 168.5,159.5C 167.778,159.082 167.278,158.416 167,157.5C 166.503,154.854 166.336,152.187 166.5,149.5C 167.5,149.5 168.5,149.5 169.5,149.5C 169.657,148.127 169.49,146.793 169,145.5C 168.259,144.359 167.425,144.359 166.5,145.5C 165.571,144.311 165.238,142.978 165.5,141.5C 166.833,141.5 168.167,141.5 169.5,141.5C 169.5,142.5 169.5,143.5 169.5,144.5C 171.167,144.5 172.833,144.5 174.5,144.5C 174.5,139.833 174.5,135.167 174.5,130.5C 172.139,130.674 169.806,131.007 167.5,131.5C 167.575,134.206 167.908,136.873 168.5,139.5C 167.883,139.389 167.383,139.056 167,138.5C 166.895,134.63 166.062,130.963 164.5,127.5C 164.719,132.178 164.385,136.844 163.5,141.5C 163.5,137.833 163.5,134.167 163.5,130.5C 161.901,130.232 160.568,130.566 159.5,131.5C 158.5,131.5 157.5,131.5 156.5,131.5C 155.252,132.334 154.585,133.667 154.5,135.5C 154.833,136.833 155.167,138.167 155.5,139.5C 156.452,137.955 156.785,136.288 156.5,134.5C 157.833,134.5 159.167,134.5 160.5,134.5C 160.5,137.167 160.5,139.833 160.5,142.5C 158.654,142.222 157.32,142.889 156.5,144.5C 158.396,145.466 160.396,145.799 162.5,145.5C 162.833,145.5 163.167,145.5 163.5,145.5C 160.236,147.601 156.569,149.267 152.5,150.5C 154.045,151.452 155.712,151.785 157.5,151.5C 157.158,152.338 156.492,152.672 155.5,152.5C 154.258,155.74 154.424,159.074 156,162.5C 156.497,159.854 156.664,157.187 156.5,154.5C 157.833,154.5 159.167,154.5 160.5,154.5C 160.664,157.187 160.497,159.854 160,162.5C 155.459,165.619 156.293,166.952 162.5,166.5C 162.5,161.5 162.5,156.5 162.5,151.5C 161.5,151.5 160.5,151.5 159.5,151.5C 160.568,150.566 161.901,150.232 163.5,150.5C 163.5,156.167 163.5,161.833 163.5,167.5C 160.518,167.963 157.518,168.296 154.5,168.5C 154.5,166.5 154.5,164.5 154.5,162.5C 153.5,162.5 152.5,162.5 151.5,162.5C 151.83,179.675 151.497,196.675 150.5,213.5C 150.5,157.167 150.5,100.833 150.5,44.5 Z"/></g>
<g><path style="opacity:1" fill="#5188a4" d="M 156.5,131.5 C 157.5,131.5 158.5,131.5 159.5,131.5C 160.5,131.5 161.5,131.5 162.5,131.5C 162.5,136.167 162.5,140.833 162.5,145.5C 160.396,145.799 158.396,145.466 156.5,144.5C 157.32,142.889 158.654,142.222 160.5,142.5C 160.5,139.833 160.5,137.167 160.5,134.5C 159.167,134.5 157.833,134.5 156.5,134.5C 155.375,133.652 155.375,132.652 156.5,131.5 Z"/></g>
<g><path style="opacity:1" fill="#99b8bd" d="M 156.5,131.5 C 155.375,132.652 155.375,133.652 156.5,134.5C 156.785,136.288 156.452,137.955 155.5,139.5C 155.167,138.167 154.833,136.833 154.5,135.5C 154.585,133.667 155.252,132.334 156.5,131.5 Z"/></g>
<g><path style="opacity:1" fill="#b3d6ec" d="M 159.5,131.5 C 160.568,130.566 161.901,130.232 163.5,130.5C 163.5,134.167 163.5,137.833 163.5,141.5C 163.5,142.833 163.5,144.167 163.5,145.5C 163.167,145.5 162.833,145.5 162.5,145.5C 162.5,140.833 162.5,136.167 162.5,131.5C 161.5,131.5 160.5,131.5 159.5,131.5 Z"/></g>
<g><path style="opacity:1" fill="#5d8ca3" d="M 168.5,112.5 C 170.5,112.5 172.5,112.5 174.5,112.5C 174.5,117.167 174.5,121.833 174.5,126.5C 172.833,126.5 171.167,126.5 169.5,126.5C 169.5,125.5 169.5,124.5 169.5,123.5C 170.5,123.5 171.5,123.5 172.5,123.5C 172.5,120.833 172.5,118.167 172.5,115.5C 171.5,115.5 170.5,115.5 169.5,115.5C 169.234,121.712 168.567,121.379 167.5,114.5C 167.328,113.508 167.662,112.842 168.5,112.5 Z"/></g>
<g><path style="opacity:1" fill="#548ba6" d="M 155.5,111.5 C 157.833,111.5 160.167,111.5 162.5,111.5C 162.5,116.5 162.5,121.5 162.5,126.5C 160.143,126.663 157.81,126.497 155.5,126C 156.617,124.108 158.284,123.275 160.5,123.5C 160.5,120.5 160.5,117.5 160.5,114.5C 158.833,114.5 157.167,114.5 155.5,114.5C 155.5,113.5 155.5,112.5 155.5,111.5 Z"/></g>
<g><path style="opacity:1" fill="#528aa6" d="M 162.5,91.5 C 162.5,96.5 162.5,101.5 162.5,106.5C 160.5,106.5 158.5,106.5 156.5,106.5C 156.5,105.5 156.5,104.5 156.5,103.5C 157.833,103.5 159.167,103.5 160.5,103.5C 160.5,100.5 160.5,97.5 160.5,94.5C 159.167,94.5 157.833,94.5 156.5,94.5C 155.596,93.791 155.263,92.791 155.5,91.5C 157.833,91.5 160.167,91.5 162.5,91.5 Z"/></g>
<g><path style="opacity:1" fill="#a8bbc4" d="M 162.5,91.5 C 160.167,91.5 157.833,91.5 155.5,91.5C 155.263,92.791 155.596,93.791 156.5,94.5C 156.66,96.1992 156.494,97.8659 156,99.5C 154.711,96.6492 154.211,93.6492 154.5,90.5C 157.385,90.1936 160.052,90.5269 162.5,91.5 Z"/></g>
<g><path style="opacity:1" fill="#9ac7d8" d="M 162.5,74.5 C 162.833,74.5 163.167,74.5 163.5,74.5C 163.5,78.5 163.5,82.5 163.5,86.5C 161.901,86.7678 160.568,86.4345 159.5,85.5C 160.5,85.5 161.5,85.5 162.5,85.5C 162.5,81.8333 162.5,78.1667 162.5,74.5 Z"/></g>
<g><path style="opacity:1" fill="#5a8fa9" d="M 162.5,74.5 C 162.5,78.1667 162.5,81.8333 162.5,85.5C 161.5,85.5 160.5,85.5 159.5,85.5C 158.127,85.6567 156.793,85.49 155.5,85C 156.617,83.1079 158.284,82.2746 160.5,82.5C 160.5,79.5 160.5,76.5 160.5,73.5C 159.167,73.5 157.833,73.5 156.5,73.5C 156.662,75.5273 156.495,77.5273 156,79.5C 154.711,76.6492 154.211,73.6492 154.5,70.5C 157.167,70.5 159.833,70.5 162.5,70.5C 162.5,71.8333 162.5,73.1667 162.5,74.5 Z"/></g>
<g><path style="opacity:1" fill="#90b2c4" d="M 160.5,62.5 C 159.602,63.1577 158.602,63.8243 157.5,64.5C 158.602,65.1757 159.602,65.8423 160.5,66.5C 158.571,66.7692 156.905,66.2692 155.5,65C 156.617,63.1079 158.284,62.2746 160.5,62.5 Z"/></g>
<g><path style="opacity:1" fill="#5187a7" d="M 159.5,51.5 C 160.5,51.5 161.5,51.5 162.5,51.5C 163.108,56.9443 162.442,61.9443 160.5,66.5C 159.602,65.8423 158.602,65.1757 157.5,64.5C 158.602,63.8243 159.602,63.1577 160.5,62.5C 160.806,59.6146 160.473,56.9479 159.5,54.5C 158.282,53.8386 156.949,53.1719 155.5,52.5C 156.689,51.5713 158.022,51.238 159.5,51.5 Z"/></g>
<g><path style="opacity:1" fill="#5c94af" d="M 26.5,147.5 C 27.1667,147.5 27.8333,147.5 28.5,147.5C 29.8333,148.5 29.8333,149.5 28.5,150.5C 24.1539,150.666 19.8206,150.499 15.5,150C 14.0267,149.29 13.3601,148.124 13.5,146.5C 17.81,147.08 22.1434,147.414 26.5,147.5 Z"/></g>
<g><path style="opacity:1" fill="#d9eaf4" d="M 54.5,115.5 C 54.3359,118.187 54.5026,120.854 55,123.5C 55.3333,121.5 55.6667,119.5 56,117.5C 56.7287,121.377 56.562,125.211 55.5,129C 56.1765,130.683 57.1765,130.85 58.5,129.5C 58.5,131.167 58.5,132.833 58.5,134.5C 57.8333,134.5 57.5,134.833 57.5,135.5C 56.8501,135.804 56.1835,136.137 55.5,136.5C 54.3452,139.446 54.1786,142.446 55,145.5C 55.3333,143.5 55.6667,141.5 56,139.5C 56.3932,144.201 56.3932,148.868 56,153.5C 56.6708,152.748 57.5041,152.414 58.5,152.5C 59.1667,152.5 59.5,152.833 59.5,153.5C 58.9033,153.735 58.5699,154.235 58.5,155C 60.0022,158.487 60.6688,162.154 60.5,166C 60.4752,168.929 59.8086,171.429 58.5,173.5C 57.8166,175.176 56.4832,175.843 54.5,175.5C 52.9495,170.816 51.9495,165.316 51.5,159C 54.0663,157.121 54.0663,155.288 51.5,153.5C 51.5,152.5 51.5,151.5 51.5,150.5C 52.6946,150.134 53.3613,149.301 53.5,148C 52.0636,139.843 51.7302,131.676 52.5,123.5C 52.8023,120.627 53.469,117.961 54.5,115.5 Z"/></g>
<g><path style="opacity:1" fill="#eff4f7" d="M 188.5,117.5 C 189.117,117.611 189.617,117.944 190,118.5C 190.175,123.019 190.675,127.353 191.5,131.5C 191.5,140.833 191.5,150.167 191.5,159.5C 188.948,173.945 188.281,188.611 189.5,203.5C 190.386,202.675 190.719,201.675 190.5,200.5C 193.179,200.327 195.513,199.327 197.5,197.5C 198.849,197.846 200.183,198.179 201.5,198.5C 196.68,202.078 191.68,205.412 186.5,208.5C 185.5,208.5 184.5,208.5 183.5,208.5C 183.83,190.326 183.497,172.326 182.5,154.5C 182.5,148.167 182.5,141.833 182.5,135.5C 183.466,132.555 184.8,129.888 186.5,127.5C 186.461,128.756 186.961,129.756 188,130.5C 188.499,126.179 188.666,121.846 188.5,117.5 Z"/></g>
<g><path style="opacity:1" fill="#6b9bb1" d="M 185.5,137.5 C 186.496,137.414 187.329,137.748 188,138.5C 188.827,142.541 188.66,146.541 187.5,150.5C 186.088,146.283 185.421,141.95 185.5,137.5 Z"/></g>
<g><path style="opacity:1" fill="#a2b5c3" d="M 155.5,152.5 C 155.328,153.492 155.662,154.158 156.5,154.5C 156.664,157.187 156.497,159.854 156,162.5C 154.424,159.074 154.258,155.74 155.5,152.5 Z"/></g>
<g><path style="opacity:1" fill="#86a6b7" d="M 182.5,135.5 C 182.5,141.833 182.5,148.167 182.5,154.5C 182.5,156.167 182.5,157.833 182.5,159.5C 181.833,176.833 181.167,194.167 180.5,211.5C 180.333,170.165 180.5,128.832 181,87.5C 181.414,103.506 181.914,119.506 182.5,135.5 Z"/></g>
<g><path style="opacity:1" fill="#588aa3" d="M 157.5,151.5 C 158.167,151.5 158.833,151.5 159.5,151.5C 160.5,151.5 161.5,151.5 162.5,151.5C 162.5,156.5 162.5,161.5 162.5,166.5C 156.293,166.952 155.459,165.619 160,162.5C 160.497,159.854 160.664,157.187 160.5,154.5C 159.167,154.5 157.833,154.5 156.5,154.5C 155.662,154.158 155.328,153.492 155.5,152.5C 156.492,152.672 157.158,152.338 157.5,151.5 Z"/></g>
<g><path style="opacity:1" fill="#4c88a8" d="M 28.5,163.5 C 26.3647,165.369 23.6981,166.036 20.5,165.5C 17.6544,165.97 15.3211,165.137 13.5,163C 14.0253,162.308 14.6919,161.808 15.5,161.5C 19.7686,162.538 24.102,163.205 28.5,163.5 Z"/></g>
<g><path style="opacity:1" fill="#c5dbe9" d="M 28.5,163.5 C 29.5,163.5 30.5,163.5 31.5,163.5C 31.5,164.5 31.5,165.5 31.5,166.5C 27.6286,166.815 23.9619,166.482 20.5,165.5C 23.6981,166.036 26.3647,165.369 28.5,163.5 Z"/></g>
<g><path style="opacity:1" fill="#f2f4f5" d="M 164.5,55.5 C 166.286,59.6762 167.953,64.0095 169.5,68.5C 169.833,68.5 170.167,68.5 170.5,68.5C 171.918,70.3079 173.918,70.9746 176.5,70.5C 177.159,73.4552 177.492,76.4552 177.5,79.5C 179.14,87.6779 178.807,95.6779 176.5,103.5C 178.002,108.486 179.002,113.653 179.5,119C 178.495,124.816 178.495,130.649 179.5,136.5C 178.764,154.825 178.264,173.158 178,191.5C 178.071,198.043 177.238,204.376 175.5,210.5C 176.325,211.386 177.325,211.719 178.5,211.5C 176.343,213.412 174.009,215.079 171.5,216.5C 164.285,218.238 157.285,220.572 150.5,223.5C 150.5,220.167 150.5,216.833 150.5,213.5C 151.497,196.675 151.83,179.675 151.5,162.5C 152.5,162.5 153.5,162.5 154.5,162.5C 154.5,164.5 154.5,166.5 154.5,168.5C 157.518,168.296 160.518,167.963 163.5,167.5C 163.5,161.833 163.5,156.167 163.5,150.5C 161.901,150.232 160.568,150.566 159.5,151.5C 158.833,151.5 158.167,151.5 157.5,151.5C 155.712,151.785 154.045,151.452 152.5,150.5C 156.569,149.267 160.236,147.601 163.5,145.5C 163.5,144.167 163.5,142.833 163.5,141.5C 164.385,136.844 164.719,132.178 164.5,127.5C 166.062,130.963 166.895,134.63 167,138.5C 167.383,139.056 167.883,139.389 168.5,139.5C 169.461,137.735 169.795,135.735 169.5,133.5C 170.5,133.5 171.5,133.5 172.5,133.5C 172.5,136.167 172.5,138.833 172.5,141.5C 171.5,141.5 170.5,141.5 169.5,141.5C 168.167,141.5 166.833,141.5 165.5,141.5C 165.238,142.978 165.571,144.311 166.5,145.5C 167.425,144.359 168.259,144.359 169,145.5C 169.49,146.793 169.657,148.127 169.5,149.5C 168.5,149.5 167.5,149.5 166.5,149.5C 166.336,152.187 166.503,154.854 167,157.5C 167.278,158.416 167.778,159.082 168.5,159.5C 169.461,157.735 169.795,155.735 169.5,153.5C 170.5,153.5 171.5,153.5 172.5,153.5C 173.383,157.954 172.05,161.454 168.5,164C 169.793,164.49 171.127,164.657 172.5,164.5C 173.5,164.5 174.5,164.5 175.5,164.5C 176.446,150.476 176.613,136.476 176,122.5C 176.654,123.696 177.154,123.696 177.5,122.5C 176.574,118.906 176.241,115.24 176.5,111.5C 173.615,111.194 170.948,111.527 168.5,112.5C 167.662,112.842 167.328,113.508 167.5,114.5C 166.718,117.714 165.885,121.048 165,124.5C 163.975,119.598 164.475,114.931 166.5,110.5C 166.192,109.692 165.692,109.025 165,108.5C 164.803,103.914 164.303,99.4145 163.5,95C 164.025,94.3076 164.692,93.8076 165.5,93.5C 166.328,97.7956 166.828,102.129 167,106.5C 167.671,107.252 168.504,107.586 169.5,107.5C 171.5,107.5 173.5,107.5 175.5,107.5C 175.5,102.833 175.5,98.1667 175.5,93.5C 176.067,92.5798 175.401,92.2465 173.5,92.5C 173.5,91.1667 173.5,89.8333 173.5,88.5C 175.442,83.9443 176.108,78.9443 175.5,73.5C 173.833,73.5 172.167,73.5 170.5,73.5C 169.548,72.548 168.548,71.548 167.5,70.5C 166.511,74.1073 166.177,77.774 166.5,81.5C 167.5,81.5 168.5,81.5 169.5,81.5C 169.5,82.5 169.5,83.5 169.5,84.5C 167.833,84.5 166.167,84.5 164.5,84.5C 164.813,80.9581 164.479,77.6248 163.5,74.5C 164.19,68.1903 164.524,61.857 164.5,55.5 Z"/></g>
<g><path style="opacity:1" fill="#5a8ea8" d="M 172.5,164.5 C 171.127,164.657 169.793,164.49 168.5,164C 172.05,161.454 173.383,157.954 172.5,153.5C 171.5,153.5 170.5,153.5 169.5,153.5C 169.795,155.735 169.461,157.735 168.5,159.5C 167.841,156.545 167.508,153.545 167.5,150.5C 169.806,150.007 172.139,149.674 174.5,149.5C 175.026,154.807 174.36,159.807 172.5,164.5 Z"/></g>
<g><path style="opacity:1" fill="#5e8ea8" d="M 169.5,141.5 C 170.5,141.5 171.5,141.5 172.5,141.5C 172.5,138.833 172.5,136.167 172.5,133.5C 171.5,133.5 170.5,133.5 169.5,133.5C 169.795,135.735 169.461,137.735 168.5,139.5C 167.908,136.873 167.575,134.206 167.5,131.5C 169.806,131.007 172.139,130.674 174.5,130.5C 174.5,135.167 174.5,139.833 174.5,144.5C 172.833,144.5 171.167,144.5 169.5,144.5C 169.5,143.5 169.5,142.5 169.5,141.5 Z"/></g>
<g><path style="opacity:1" fill="#9dcbe5" d="M 174.5,93.5 C 174.833,93.5 175.167,93.5 175.5,93.5C 175.5,98.1667 175.5,102.833 175.5,107.5C 173.5,107.5 171.5,107.5 169.5,107.5C 169.5,107.167 169.5,106.833 169.5,106.5C 171.167,106.5 172.833,106.5 174.5,106.5C 174.5,102.167 174.5,97.8333 174.5,93.5 Z"/></g>
<g><path style="opacity:1" fill="#e1eef5" d="M 39.5,121.5 C 38.1944,124.687 38.1944,128.02 39.5,131.5C 40.4287,130.311 40.762,128.978 40.5,127.5C 41.1471,128.274 41.4805,129.274 41.5,130.5C 40.3448,133.011 39.6781,135.678 39.5,138.5C 38.1944,141.687 38.1944,145.02 39.5,148.5C 40.4519,146.955 40.7852,145.288 40.5,143.5C 41.4614,145.265 41.7947,147.265 41.5,149.5C 40.5,149.5 39.5,149.5 38.5,149.5C 38.3573,151.262 38.6906,152.929 39.5,154.5C 41.0981,156.973 42.5981,156.973 44,154.5C 44.1981,156.382 44.6981,158.048 45.5,159.5C 45.8306,181.007 45.4973,202.34 44.5,223.5C 44.6868,210.48 44.3535,197.48 43.5,184.5C 38.2943,185.521 34.461,183.855 32,179.5C 31.5831,180.756 30.7498,181.423 29.5,181.5C 29.5299,180.503 29.0299,179.836 28,179.5C 25.0044,178.965 22.1711,178.298 19.5,177.5C 23.5483,177.395 27.5483,177.728 31.5,178.5C 31.5229,175.543 32.5229,173.043 34.5,171C 32.763,165.677 32.0963,160.177 32.5,154.5C 33.791,154.263 34.791,154.596 35.5,155.5C 34.2353,156.514 33.5687,158.014 33.5,160C 33.5085,161.707 33.8418,163.207 34.5,164.5C 35.1667,165.833 35.8333,165.833 36.5,164.5C 37.1611,162.866 37.4944,161.033 37.5,159C 37.5188,155.281 36.8522,151.781 35.5,148.5C 36.7005,145.595 36.5339,142.595 35,139.5C 34.502,142.482 34.3354,145.482 34.5,148.5C 32.3146,148.704 30.3146,149.37 28.5,150.5C 29.8333,149.5 29.8333,148.5 28.5,147.5C 29.8333,147.5 31.1667,147.5 32.5,147.5C 32.0541,143.123 32.7208,138.956 34.5,135C 32.478,130.071 31.978,124.905 33,119.5C 33.414,119.043 33.914,118.709 34.5,118.5C 35.1667,119.5 35.8333,120.5 36.5,121.5C 37.6868,120.347 38.6868,120.347 39.5,121.5 Z"/></g>
<g><path style="opacity:1" fill="#628b9f" d="M 34.5,173.5 C 36.4274,176.137 36.9274,179.137 36,182.5C 34.6081,179.722 34.1081,176.722 34.5,173.5 Z"/></g>
<g><path style="opacity:1" fill="#6d96aa" d="M 38.5,156.5 C 39.1174,156.611 39.6174,156.944 40,157.5C 40.6667,160.167 40.6667,162.833 40,165.5C 38.6081,162.722 38.1081,159.722 38.5,156.5 Z"/></g>
<g><path style="opacity:1" fill="#5a849c" d="M 35.5,156.5 C 36.0916,159.127 36.4249,161.794 36.5,164.5C 35.8333,165.833 35.1667,165.833 34.5,164.5C 34.1936,161.615 34.5269,158.948 35.5,156.5 Z"/></g>
<g><path style="opacity:1" fill="#a5cae6" d="M 35.5,155.5 C 35.5,155.833 35.5,156.167 35.5,156.5C 34.5269,158.948 34.1936,161.615 34.5,164.5C 33.8418,163.207 33.5085,161.707 33.5,160C 33.5687,158.014 34.2353,156.514 35.5,155.5 Z"/></g>
<g><path style="opacity:1" fill="#58859d" d="M 35.5,148.5 C 35.1667,148.5 34.8333,148.5 34.5,148.5C 34.3354,145.482 34.502,142.482 35,139.5C 36.5339,142.595 36.7005,145.595 35.5,148.5 Z"/></g>
<g><path style="opacity:1" fill="#55849b" d="M 34.5,122.5 C 36.4531,125.24 36.7864,128.24 35.5,131.5C 34.5159,128.572 34.1826,125.572 34.5,122.5 Z"/></g>
<g><path style="opacity:1" fill="#5992ac" d="M 19.5,177.5 C 22.1711,178.298 25.0044,178.965 28,179.5C 29.0299,179.836 29.5299,180.503 29.5,181.5C 29.1667,181.5 28.8333,181.5 28.5,181.5C 25.4816,181.665 22.4816,181.498 19.5,181C 11.7682,177.856 11.7682,176.69 19.5,177.5 Z"/></g>
<g><path style="opacity:1" fill="#7fa4b9" d="M 38.5,173.5 C 41.305,176.314 41.9717,179.647 40.5,183.5C 39.914,183.291 39.414,182.957 39,182.5C 38.502,179.518 38.3354,176.518 38.5,173.5 Z"/></g>
<g><path style="opacity:1" fill="#d8f7fe" d="M 182.5,154.5 C 183.497,172.326 183.83,190.326 183.5,208.5C 184.5,208.5 185.5,208.5 186.5,208.5C 185.739,209.391 184.739,210.058 183.5,210.5C 182.501,193.513 182.167,176.513 182.5,159.5C 182.5,157.833 182.5,156.167 182.5,154.5 Z"/></g>
<g><path style="opacity:1" fill="#6991a4" d="M 46.5,225.5 C 44.5168,225.843 43.1834,225.176 42.5,223.5C 43.1667,223.5 43.8333,223.5 44.5,223.5C 45.4973,202.34 45.8306,181.007 45.5,159.5C 45.5,157.167 45.5,154.833 45.5,152.5C 46.5459,168.151 46.8793,192.484 46.5,225.5 Z"/></g>
<g><path style="opacity:1" fill="#f3f3f5" d="M 44.5,223.5 C 43.8333,223.5 43.1667,223.5 42.5,223.5C 43.1436,212.116 42.477,201.116 40.5,190.5C 40.189,189.522 39.5223,188.855 38.5,188.5C 36.2984,189.78 34.1317,189.78 32,188.5C 32.5751,197.114 32.5751,205.78 32,214.5C 31.7508,215.624 31.2508,216.624 30.5,217.5C 28.9291,216.691 27.2624,216.357 25.5,216.5C 24.1938,215.533 23.5271,214.199 23.5,212.5C 20.7686,211.973 18.1019,211.14 15.5,210C 14.354,209.355 13.354,208.522 12.5,207.5C 11.3347,198.518 11.168,189.518 12,180.5C 17.5583,186.771 24.0583,187.938 31.5,184C 27.8333,183.667 24.1667,183.333 20.5,183C 23.3647,182.817 26.0314,182.317 28.5,181.5C 28.8333,181.5 29.1667,181.5 29.5,181.5C 30.7498,181.423 31.5831,180.756 32,179.5C 34.461,183.855 38.2943,185.521 43.5,184.5C 44.3535,197.48 44.6868,210.48 44.5,223.5 Z"/></g>
<g><path style="opacity:1" fill="#eff3f5" d="M 51.5,153.5 C 54.0663,155.288 54.0663,157.121 51.5,159C 51.9495,165.316 52.9495,170.816 54.5,175.5C 56.4832,175.843 57.8166,175.176 58.5,173.5C 59.8086,171.429 60.4752,168.929 60.5,166C 60.6688,162.154 60.0022,158.487 58.5,155C 58.5699,154.235 58.9033,153.735 59.5,153.5C 60.8048,155.397 61.4714,157.731 61.5,160.5C 61.9757,171.002 62.6424,181.336 63.5,191.5C 63.5015,200.858 64.0015,210.191 65,219.5C 65.4999,204.17 65.6666,188.837 65.5,173.5C 65.5,166.833 65.5,160.167 65.5,153.5C 68.8333,153.5 72.1667,153.5 75.5,153.5C 93.5,153.5 111.5,153.5 129.5,153.5C 131.213,155.195 133.213,156.028 135.5,156C 134.833,155.333 134.167,154.667 133.5,154C 137.832,153.417 142.165,152.917 146.5,152.5C 146.5,176.5 146.5,200.5 146.5,224.5C 145.448,224.649 144.448,224.483 143.5,224C 144.658,206.574 144.825,189.074 144,171.5C 142.855,172.684 141.688,172.684 140.5,171.5C 130.894,172.955 121.228,173.621 111.5,173.5C 111.5,183.167 111.5,192.833 111.5,202.5C 111.21,206.936 111.71,211.27 113,215.5C 113.5,202.504 113.667,189.504 113.5,176.5C 116.385,176.806 119.052,176.473 121.5,175.5C 123.167,175.5 124.833,175.5 126.5,175.5C 126.459,190.844 126.792,206.177 127.5,221.5C 127.892,223.179 128.392,224.846 129,226.5C 129.168,209.328 129.668,192.328 130.5,175.5C 130.333,192.17 130.5,208.837 131,225.5C 132.356,226.38 133.856,226.714 135.5,226.5C 136.798,209.36 136.798,192.36 135.5,175.5C 135.5,175.167 135.5,174.833 135.5,174.5C 136.5,174.5 137.5,174.5 138.5,174.5C 138.5,192.167 138.5,209.833 138.5,227.5C 129.4,228.692 120.4,230.359 111.5,232.5C 98.1487,232.666 84.8154,232.333 71.5,231.5C 65.8217,230.832 60.155,229.998 54.5,229C 51.8958,228.61 49.5625,227.776 47.5,226.5C 47.5,201.833 47.5,177.167 47.5,152.5C 48.9587,152.433 50.2921,152.766 51.5,153.5 Z"/></g>
<g><path style="opacity:1" fill="#4c8aa6" d="M 99.5,207.5 C 98.5,207.5 97.5,207.5 96.5,207.5C 96.5,206.5 96.5,205.5 96.5,204.5C 97.8333,195.167 97.8333,185.833 96.5,176.5C 88.149,176.518 79.8156,176.185 71.5,175.5C 70.8333,177.167 70.1667,178.833 69.5,180.5C 69.5,178.167 69.5,175.833 69.5,173.5C 79.5,173.5 89.5,173.5 99.5,173.5C 99.5,184.833 99.5,196.167 99.5,207.5 Z"/></g>
<g><path style="opacity:1" fill="#b9daec" d="M 96.5,176.5 C 97.8333,185.833 97.8333,195.167 96.5,204.5C 96.1667,204.5 95.8333,204.5 95.5,204.5C 88.4122,204.205 81.4122,204.538 74.5,205.5C 81.4238,203.537 88.7572,202.87 96.5,203.5C 96.5,194.5 96.5,185.5 96.5,176.5 Z"/></g>
<g><path style="opacity:1" fill="#89aec2" d="M 71.5,175.5 C 71.666,180.844 71.4994,186.177 71,191.5C 70.7599,187.748 70.2599,184.081 69.5,180.5C 70.1667,178.833 70.8333,177.167 71.5,175.5 Z"/></g>
<g><path style="opacity:1" fill="#6ea0bb" d="M 64.5,173.5 C 64.8333,173.5 65.1667,173.5 65.5,173.5C 65.6666,188.837 65.4999,204.17 65,219.5C 64.0015,210.191 63.5015,200.858 63.5,191.5C 63.5,185.833 63.5,180.167 63.5,174.5C 64.1667,174.5 64.5,174.167 64.5,173.5 Z"/></g>
<g><path style="opacity:1" fill="#5589a4" d="M 58.5,173.5 C 57.5041,173.414 56.6708,173.748 56,174.5C 56.4339,170.548 56.4339,166.548 56,162.5C 55.6667,164.5 55.3333,166.5 55,168.5C 54.3333,165.5 54.3333,162.5 55,159.5C 55.6891,158.643 56.5224,157.977 57.5,157.5C 58.4948,162.792 58.8282,168.125 58.5,173.5 Z"/></g>
<g><path style="opacity:1" fill="#81adbd" d="M 40.5,190.5 C 40.5,190.833 40.5,191.167 40.5,191.5C 38.396,191.201 36.396,191.534 34.5,192.5C 34.6236,193.107 34.9569,193.44 35.5,193.5C 35.6663,200.841 35.4997,208.174 35,215.5C 33.6696,207.227 33.1696,198.893 33.5,190.5C 35.8333,190.5 38.1667,190.5 40.5,190.5 Z"/></g>
<g><path style="opacity:1" fill="#e1f1f8" d="M 40.5,190.5 C 38.1667,190.5 35.8333,190.5 33.5,190.5C 33.1696,198.893 33.6696,207.227 35,215.5C 35.4997,208.174 35.6663,200.841 35.5,193.5C 36.8221,193.33 37.9887,193.663 39,194.5C 39.4998,203.494 39.6664,212.494 39.5,221.5C 38.209,221.737 37.209,221.404 36.5,220.5C 37.824,216.893 38.4907,212.893 38.5,208.5C 38.1667,204.5 37.8333,200.5 37.5,196.5C 36.7004,204.501 36.0337,212.501 35.5,220.5C 31.6424,220.23 28.309,218.897 25.5,216.5C 27.2624,216.357 28.9291,216.691 30.5,217.5C 31.2508,216.624 31.7508,215.624 32,214.5C 32.5751,205.78 32.5751,197.114 32,188.5C 34.1317,189.78 36.2984,189.78 38.5,188.5C 39.5223,188.855 40.189,189.522 40.5,190.5 Z"/></g>
<g><path style="opacity:1" fill="#f7f2f0" d="M 36.5,220.5 C 36.1667,220.5 35.8333,220.5 35.5,220.5C 36.0337,212.501 36.7004,204.501 37.5,196.5C 37.8333,200.5 38.1667,204.5 38.5,208.5C 38.4907,212.893 37.824,216.893 36.5,220.5 Z"/></g>
<g><path style="opacity:1" fill="#aac7dc" d="M 40.5,191.5 C 40.5,191.167 40.5,190.833 40.5,190.5C 42.477,201.116 43.1436,212.116 42.5,223.5C 41.8333,212.833 41.1667,202.167 40.5,191.5 Z"/></g>
<g><path style="opacity:1" fill="#568ba5" d="M 182.5,159.5 C 182.167,176.513 182.501,193.513 183.5,210.5C 184.739,210.058 185.739,209.391 186.5,208.5C 191.68,205.412 196.68,202.078 201.5,198.5C 203.48,197.284 205.48,196.451 207.5,196C 200.6,201.745 193.6,207.245 186.5,212.5C 183.648,214.091 180.648,215.424 177.5,216.5C 175.741,216.046 173.741,216.046 171.5,216.5C 174.009,215.079 176.343,213.412 178.5,211.5C 179.167,211.5 179.833,211.5 180.5,211.5C 181.167,194.167 181.833,176.833 182.5,159.5 Z"/></g>
<g><path style="opacity:1" fill="#f0f3f6" d="M -0.5,207.5 C 1.68686,208.758 4.0202,209.758 6.5,210.5C 7.94478,212.063 9.61145,213.396 11.5,214.5C 34.7481,227.261 59.7481,234.594 86.5,236.5C 86.8333,237.167 87.1667,237.833 87.5,238.5C 79.5127,241.655 74.0127,247.322 71,255.5C 67.3195,268.73 69.6529,280.73 78,291.5C 90.8771,300.677 102.21,299.011 112,286.5C 116.735,276.218 117.735,265.551 115,254.5C 112.284,246.688 107.117,241.354 99.5,238.5C 99.8333,237.833 100.167,237.167 100.5,236.5C 127.799,235.501 153.466,228.834 177.5,216.5C 180.648,215.424 183.648,214.091 186.5,212.5C 186.047,213.458 185.381,214.292 184.5,215C 186.9,215.186 189.234,215.686 191.5,216.5C 190.15,217.95 188.484,218.617 186.5,218.5C 186.215,220.288 186.548,221.955 187.5,223.5C 191.974,221.141 192.308,221.641 188.5,225C 194.806,226.152 201.139,226.985 207.5,227.5C 207.5,228.5 207.5,229.5 207.5,230.5C 204.751,230.726 202.084,230.393 199.5,229.5C 198.5,230 197.5,230.5 196.5,231C 199.958,232.415 203.625,232.915 207.5,232.5C 207.5,233.5 207.5,234.5 207.5,235.5C 202.195,234.806 196.862,234.472 191.5,234.5C 191.5,233.167 191.5,231.833 191.5,230.5C 188.495,230.253 185.995,231.253 184,233.5C 183.667,233.167 183.333,232.833 183,232.5C 180.056,234.372 178.889,237.039 179.5,240.5C 182.77,240.698 184.77,239.198 185.5,236C 192.64,235.725 199.64,236.558 206.5,238.5C 209.533,237.633 211.366,235.633 212,232.5C 212.71,233.973 213.876,234.64 215.5,234.5C 216.976,237.661 217.976,240.995 218.5,244.5C 219.833,244.5 221.167,244.5 222.5,244.5C 222.334,248.241 220.334,250.407 216.5,251C 216.085,253.026 215.085,254.526 213.5,255.5C 213.804,249.423 213.304,243.423 212,237.5C 211.804,239.286 210.971,240.619 209.5,241.5C 191.846,233.576 179.346,238.576 172,256.5C 167.957,270.646 171.124,282.813 181.5,293C 187.95,296.957 194.95,298.457 202.5,297.5C 197.63,298.804 192.63,298.804 187.5,297.5C 186.5,298 185.5,298.5 184.5,299C 184.833,299.333 185.167,299.667 185.5,300C 181.197,302.48 181.53,303.98 186.5,304.5C 186.167,305.5 185.5,306.167 184.5,306.5C 183.167,305.5 181.833,304.5 180.5,303.5C 179.417,304.365 179.251,305.365 180,306.5C 181.845,307.05 183.345,308.05 184.5,309.5C 182.775,311.957 182.275,314.623 183,317.5C 186.712,314.756 187.212,315.256 184.5,319C 185.167,319.333 185.833,319.667 186.5,320C 185.24,322.301 183.907,324.468 182.5,326.5C 182.453,322.177 181.453,318.177 179.5,314.5C 178.883,314.611 178.383,314.944 178,315.5C 175.699,312.494 173.199,309.828 170.5,307.5C 169.292,306.766 167.959,306.433 166.5,306.5C 166.5,305.5 166.5,304.5 166.5,303.5C 165.5,303.5 164.5,303.5 163.5,303.5C 163.5,304.5 163.5,305.5 163.5,306.5C 162.5,306.5 161.5,306.5 160.5,306.5C 160.456,309.481 160.123,309.814 159.5,307.5C 160.228,305.845 160.395,304.179 160,302.5C 157.772,303.892 156.606,305.892 156.5,308.5C 153.552,308.777 150.719,308.444 148,307.5C 146.041,309.943 146.708,311.61 150,312.5C 151.943,311.193 153.777,311.193 155.5,312.5C 155.297,314.044 154.63,315.378 153.5,316.5C 155.256,318.191 155.756,320.191 155,322.5C 153.714,325.405 152.714,328.405 152,331.5C 151.517,330.552 151.351,329.552 151.5,328.5C 148.918,328.975 146.918,328.308 145.5,326.5C 146.833,326.5 148.167,326.5 149.5,326.5C 149.666,322.154 149.499,317.821 149,313.5C 148.617,314.056 148.117,314.389 147.5,314.5C 146.849,313.909 146.182,313.243 145.5,312.5C 144.914,312.709 144.414,313.043 144,313.5C 143.828,319.681 143.328,325.681 142.5,331.5C 142.5,325.167 142.5,318.833 142.5,312.5C 142.5,311.167 142.5,309.833 142.5,308.5C 139.223,308.784 136.057,308.451 133,307.5C 130.863,309.306 131.03,310.64 133.5,311.5C 131.164,312.969 128.664,314.302 126,315.5C 125.333,314.833 124.667,314.167 124,313.5C 122.443,316.294 122.11,319.294 123,322.5C 124.067,323.191 125.234,323.691 126.5,324C 124.548,324.366 122.882,325.199 121.5,326.5C 117.301,327.014 113.134,328.014 109,329.5C 108.311,324.341 107.978,319.341 108,314.5C 107.187,321.761 105.687,328.761 103.5,335.5C 68.8333,335.5 34.1667,335.5 -0.5,335.5C -0.5,292.833 -0.5,250.167 -0.5,207.5 Z"/></g>
<g><path style="opacity:1" fill="#518ead" d="M 149.5,87.5 C 149.168,133.003 149.501,178.336 150.5,223.5C 157.285,220.572 164.285,218.238 171.5,216.5C 173.741,216.046 175.741,216.046 177.5,216.5C 153.466,228.834 127.799,235.501 100.5,236.5C 95.8333,236.5 91.1667,236.5 86.5,236.5C 59.7481,234.594 34.7481,227.261 11.5,214.5C 12.9187,213.549 14.5853,213.216 16.5,213.5C 19.2084,215.353 22.2084,216.353 25.5,216.5C 28.309,218.897 31.6424,220.23 35.5,220.5C 35.8333,220.5 36.1667,220.5 36.5,220.5C 37.209,221.404 38.209,221.737 39.5,221.5C 39.6664,212.494 39.4998,203.494 39,194.5C 37.9887,193.663 36.8221,193.33 35.5,193.5C 34.9569,193.44 34.6236,193.107 34.5,192.5C 36.396,191.534 38.396,191.201 40.5,191.5C 41.1667,202.167 41.8333,212.833 42.5,223.5C 43.1834,225.176 44.5168,225.843 46.5,225.5C 46.5,226.167 46.8333,226.5 47.5,226.5C 49.5625,227.776 51.8958,228.61 54.5,229C 60.155,229.998 65.8217,230.832 71.5,231.5C 78.9338,233.051 86.6005,233.718 94.5,233.5C 100.343,233.499 106.01,233.166 111.5,232.5C 120.4,230.359 129.4,228.692 138.5,227.5C 138.5,209.833 138.5,192.167 138.5,174.5C 137.5,174.5 136.5,174.5 135.5,174.5C 133.167,174.5 130.833,174.5 128.5,174.5C 128.83,190.342 128.496,206.009 127.5,221.5C 126.792,206.177 126.459,190.844 126.5,175.5C 124.833,175.5 123.167,175.5 121.5,175.5C 118.5,175.5 115.5,175.5 112.5,175.5C 112.827,184.682 112.493,193.682 111.5,202.5C 111.5,192.833 111.5,183.167 111.5,173.5C 121.228,173.621 130.894,172.955 140.5,171.5C 140.5,189.833 140.5,208.167 140.5,226.5C 142.806,226.007 145.139,225.674 147.5,225.5C 147.5,200.833 147.5,176.167 147.5,151.5C 141.312,151.757 135.312,152.423 129.5,153.5C 111.5,153.5 93.5,153.5 75.5,153.5C 72.0381,152.518 68.3714,152.185 64.5,152.5C 64.5,159.5 64.5,166.5 64.5,173.5C 64.5,174.167 64.1667,174.5 63.5,174.5C 63.5,167.167 63.5,159.833 63.5,152.5C 60.1469,152.655 59.8136,151.988 62.5,150.5C 63.1667,132.167 63.8333,113.833 64.5,95.5C 65.4964,111.325 65.8297,127.325 65.5,143.5C 65.3433,144.873 65.51,146.207 66,147.5C 78.0341,136.961 89.8674,126.295 101.5,115.5C 101.833,115.667 102.167,115.833 102.5,116C 98,121.167 93.5,126.333 89,131.5C 82.0309,136.636 75.5309,142.303 69.5,148.5C 93.8242,149.5 118.158,149.833 142.5,149.5C 143.222,148.449 144.222,147.782 145.5,147.5C 147.203,148.66 147.869,147.993 147.5,145.5C 148.167,126.167 148.833,106.833 149.5,87.5 Z"/></g>
<g><path style="opacity:1" fill="#95aeb6" d="M 95.5,204.5 C 95.8333,204.5 96.1667,204.5 96.5,204.5C 96.5,205.5 96.5,206.5 96.5,207.5C 97.5,207.5 98.5,207.5 99.5,207.5C 92.8333,208.833 86.1667,208.833 79.5,207.5C 84.8333,207.5 90.1667,207.5 95.5,207.5C 95.5,206.5 95.5,205.5 95.5,204.5 Z"/></g>
<g><path style="opacity:1" fill="#4389a9" d="M 95.5,204.5 C 95.5,205.5 95.5,206.5 95.5,207.5C 90.1667,207.5 84.8333,207.5 79.5,207.5C 76.6802,207.752 74.0135,207.252 71.5,206C 72.448,205.517 73.448,205.351 74.5,205.5C 81.4122,204.538 88.4122,204.205 95.5,204.5 Z"/></g>
<g><path style="opacity:1" fill="#b8d4e1" d="M 121.5,175.5 C 119.052,176.473 116.385,176.806 113.5,176.5C 113.667,189.504 113.5,202.504 113,215.5C 111.71,211.27 111.21,206.936 111.5,202.5C 112.493,193.682 112.827,184.682 112.5,175.5C 115.5,175.5 118.5,175.5 121.5,175.5 Z"/></g>
<g><path style="opacity:1" fill="#f5f3f2" d="M 130.5,175.5 C 132.167,175.5 133.833,175.5 135.5,175.5C 136.798,192.36 136.798,209.36 135.5,226.5C 133.856,226.714 132.356,226.38 131,225.5C 130.5,208.837 130.333,192.17 130.5,175.5 Z"/></g>
<g><path style="opacity:1" fill="#79a8c2" d="M 135.5,174.5 C 135.5,174.833 135.5,175.167 135.5,175.5C 133.833,175.5 132.167,175.5 130.5,175.5C 129.668,192.328 129.168,209.328 129,226.5C 128.392,224.846 127.892,223.179 127.5,221.5C 128.496,206.009 128.83,190.342 128.5,174.5C 130.833,174.5 133.167,174.5 135.5,174.5 Z"/></g>
<g><path style="opacity:1" fill="#ebf6fa" d="M 140.5,171.5 C 141.688,172.684 142.855,172.684 144,171.5C 144.825,189.074 144.658,206.574 143.5,224C 144.448,224.483 145.448,224.649 146.5,224.5C 146.5,200.5 146.5,176.5 146.5,152.5C 142.165,152.917 137.832,153.417 133.5,154C 134.167,154.667 134.833,155.333 135.5,156C 133.213,156.028 131.213,155.195 129.5,153.5C 135.312,152.423 141.312,151.757 147.5,151.5C 147.5,176.167 147.5,200.833 147.5,225.5C 145.139,225.674 142.806,226.007 140.5,226.5C 140.5,208.167 140.5,189.833 140.5,171.5 Z"/></g>
<g><path style="opacity:1" fill="#89b6cb" d="M 75.5,153.5 C 72.1667,153.5 68.8333,153.5 65.5,153.5C 65.5,160.167 65.5,166.833 65.5,173.5C 65.1667,173.5 64.8333,173.5 64.5,173.5C 64.5,166.5 64.5,159.5 64.5,152.5C 68.3714,152.185 72.0381,152.518 75.5,153.5 Z"/></g>
<g><path style="opacity:1" fill="#6696a8" d="M 141.5,143.5 C 142.527,145.194 143.861,146.527 145.5,147.5C 144.222,147.782 143.222,148.449 142.5,149.5C 142.489,147.983 141.823,146.816 140.5,146C 133.841,140.379 127.174,134.712 120.5,129C 121.167,128.333 121.833,128.333 122.5,129C 128.71,134.049 135.043,138.883 141.5,143.5 Z"/></g>
<g><path style="opacity:1" fill="#528cab" d="M 144.5,131.5 C 143.081,132.451 141.415,132.784 139.5,132.5C 128.981,127.819 118.648,122.653 108.5,117C 107.396,115.869 107.729,115.035 109.5,114.5C 121.397,119.74 133.063,125.406 144.5,131.5 Z"/></g>
<g><path style="opacity:1" fill="#8eb8cb" d="M 71.5,231.5 C 84.8154,232.333 98.1487,232.666 111.5,232.5C 106.01,233.166 100.343,233.499 94.5,233.5C 86.6005,233.718 78.9338,233.051 71.5,231.5 Z"/></g>
<g><path style="opacity:1" fill="#afdaf0" d="M 86.5,236.5 C 91.1667,236.5 95.8333,236.5 100.5,236.5C 100.167,237.167 99.8333,237.833 99.5,238.5C 95.4677,237.234 91.4677,237.234 87.5,238.5C 87.1667,237.833 86.8333,237.167 86.5,236.5 Z"/></g>
<g><path style="opacity:1" fill="#4489ab" d="M 149.5,285.5 C 146.26,280.693 143.26,275.693 140.5,270.5C 138.604,269.534 136.604,269.201 134.5,269.5C 133.946,275.641 132.946,281.808 131.5,288C 132.833,290.333 134.167,292.667 135.5,295C 132.854,295.497 130.187,295.664 127.5,295.5C 127.5,294.5 127.5,293.5 127.5,292.5C 127.667,275.83 127.5,259.163 127,242.5C 125.084,241.072 122.917,240.072 120.5,239.5C 128.813,238.335 137.147,238.168 145.5,239C 157.02,241.866 160.853,249.033 157,260.5C 154.165,263.673 150.998,266.507 147.5,269C 151.62,277.41 156.62,285.243 162.5,292.5C 164.51,293.502 166.51,294.502 168.5,295.5C 164.167,296.833 159.833,296.833 155.5,295.5C 153.489,292.139 151.489,288.806 149.5,285.5 Z"/></g>
<g><path style="opacity:1" fill="#4489ab" d="M 99.5,238.5 C 107.117,241.354 112.284,246.688 115,254.5C 117.735,265.551 116.735,276.218 112,286.5C 102.21,299.011 90.8771,300.677 78,291.5C 69.6529,280.73 67.3195,268.73 71,255.5C 74.0127,247.322 79.5127,241.655 87.5,238.5C 91.4677,237.234 95.4677,237.234 99.5,238.5 Z"/></g>
<g><path style="opacity:1" fill="#eaf1f9" d="M 149.5,258.5 C 149.5,257.5 149.5,256.5 149.5,255.5C 148.325,255.719 147.325,255.386 146.5,254.5C 148.012,246.553 144.678,242.887 136.5,243.5C 136.33,244.822 136.663,245.989 137.5,247C 145.119,248.273 144.785,249.44 136.5,250.5C 136.5,251.5 136.5,252.5 136.5,253.5C 138.861,253.674 141.194,254.007 143.5,254.5C 143.5,256.5 143.5,258.5 143.5,260.5C 141.193,260.986 139.027,260.986 137,260.5C 136.51,261.793 136.343,263.127 136.5,264.5C 138.833,264.5 141.167,264.5 143.5,264.5C 140.877,266.265 137.877,266.932 134.5,266.5C 134.5,258.5 134.5,250.5 134.5,242.5C 147.071,240.738 152.071,246.071 149.5,258.5 Z"/></g>
<g><path style="opacity:1" fill="#f0f3f6" d="M 78.5,273.5 C 78.6123,266.82 78.9457,260.153 79.5,253.5C 84.3797,239.3 92.5463,236.967 104,246.5C 109.655,259.972 109.988,273.638 105,287.5C 98.9599,295.546 91.9599,296.546 84,290.5C 80.4646,285.394 78.6313,279.727 78.5,273.5 Z"/></g>
<g><path style="opacity:1" fill="#e8f1f6" d="M 236.5,290.5 C 235.504,276.01 235.171,261.343 235.5,246.5C 236.038,244.883 236.371,243.216 236.5,241.5C 238.505,240.961 240.505,240.295 242.5,239.5C 235.833,238.167 229.167,238.167 222.5,239.5C 224.411,240.477 226.411,241.143 228.5,241.5C 228.667,258.503 228.5,275.503 228,292.5C 226.4,293.866 224.567,294.866 222.5,295.5C 228.128,296.495 233.794,296.829 239.5,296.5C 233.964,297.207 228.298,297.874 222.5,298.5C 222.167,298.167 221.833,297.833 221.5,297.5C 221.363,288.892 221.196,280.225 221,271.5C 220.311,270.643 219.478,269.977 218.5,269.5C 215.869,271.005 216.203,271.671 219.5,271.5C 219.972,279.058 218.972,286.392 216.5,293.5C 214.838,294.327 213.505,295.493 212.5,297C 209.183,297.498 205.85,297.665 202.5,297.5C 206.444,296.343 210.277,294.676 214,292.5C 214.5,284.173 214.666,275.84 214.5,267.5C 216.195,266.989 217.861,266.322 219.5,265.5C 213.167,264.167 206.833,264.167 200.5,265.5C 203.061,266.132 205.395,267.132 207.5,268.5C 207.825,276.352 207.492,284.018 206.5,291.5C 206.5,290.5 206.5,289.5 206.5,288.5C 205.127,288.657 203.793,288.49 202.5,288C 203.783,284.936 204.45,281.603 204.5,278C 204.333,274.833 204.167,271.667 204,268.5C 201.26,267.718 198.426,267.218 195.5,267C 194.643,266.311 193.977,265.478 193.5,264.5C 202.594,262.338 211.76,262.004 221,263.5C 224.063,263.065 224.23,262.232 221.5,261C 224.167,260 224.167,259 221.5,258C 224.051,256.484 223.718,255.651 220.5,255.5C 220.5,254.5 220.5,253.5 220.5,252.5C 221.5,252.5 222.5,252.5 223.5,252.5C 224.412,248.869 224.579,245.203 224,241.5C 223.667,241.833 223.333,242.167 223,242.5C 218.738,239.74 218.572,236.573 222.5,233C 228.167,232.333 233.833,232.333 239.5,233C 244.993,233.824 247.493,236.991 247,242.5C 244.929,243.364 243.262,244.697 242,246.5C 238.903,243.318 237.237,243.985 237,248.5C 236.5,262.496 236.333,276.496 236.5,290.5 Z"/></g>
<g><path style="opacity:1" fill="#5c8697" d="M 236.5,241.5 C 236.179,239.952 235.179,239.285 233.5,239.5C 231.219,239.077 229.552,239.744 228.5,241.5C 226.411,241.143 224.411,240.477 222.5,239.5C 229.167,238.167 235.833,238.167 242.5,239.5C 240.505,240.295 238.505,240.961 236.5,241.5 Z"/></g>
<g><path style="opacity:1" fill="#3887af" d="M 233.5,239.5 C 235.179,239.285 236.179,239.952 236.5,241.5C 236.371,243.216 236.038,244.883 235.5,246.5C 234.504,262.325 234.17,278.325 234.5,294.5C 233.167,294.5 231.833,294.5 230.5,294.5C 230.297,279.306 230.63,263.972 231.5,248.5C 233.27,245.807 233.937,242.807 233.5,239.5 Z"/></g>
<g><path style="opacity:1" fill="#558daa" d="M 233.5,239.5 C 233.937,242.807 233.27,245.807 231.5,248.5C 230.63,263.972 230.297,279.306 230.5,294.5C 231.833,294.5 233.167,294.5 234.5,294.5C 234.17,278.325 234.504,262.325 235.5,246.5C 235.171,261.343 235.504,276.01 236.5,290.5C 236.33,291.822 236.663,292.989 237.5,294C 239.256,294.202 240.922,294.702 242.5,295.5C 241.675,296.386 240.675,296.719 239.5,296.5C 233.794,296.829 228.128,296.495 222.5,295.5C 224.567,294.866 226.4,293.866 228,292.5C 228.5,275.503 228.667,258.503 228.5,241.5C 229.552,239.744 231.219,239.077 233.5,239.5 Z"/></g>
<g><path style="opacity:1" fill="#4588aa" d="M 213.5,255.5 C 211.744,250.838 209.077,246.671 205.5,243C 192.359,237.654 184.025,241.82 180.5,255.5C 177.227,267.01 178.727,278.01 185,288.5C 191.442,295.233 198.609,296.233 206.5,291.5C 207.492,284.018 207.825,276.352 207.5,268.5C 207.5,267.5 207.5,266.5 207.5,265.5C 210.388,264.99 212.721,265.656 214.5,267.5C 214.666,275.84 214.5,284.173 214,292.5C 210.277,294.676 206.444,296.343 202.5,297.5C 194.95,298.457 187.95,296.957 181.5,293C 171.124,282.813 167.957,270.646 172,256.5C 179.346,238.576 191.846,233.576 209.5,241.5C 210.971,240.619 211.804,239.286 212,237.5C 213.304,243.423 213.804,249.423 213.5,255.5 Z"/></g>
<g><path style="opacity:1" fill="#f1f4f4" d="M 149.5,258.5 C 148.478,261.522 146.478,263.522 143.5,264.5C 141.167,264.5 138.833,264.5 136.5,264.5C 136.343,263.127 136.51,261.793 137,260.5C 139.027,260.986 141.193,260.986 143.5,260.5C 143.5,258.5 143.5,256.5 143.5,254.5C 141.194,254.007 138.861,253.674 136.5,253.5C 136.5,252.5 136.5,251.5 136.5,250.5C 144.785,249.44 145.119,248.273 137.5,247C 136.663,245.989 136.33,244.822 136.5,243.5C 144.678,242.887 148.012,246.553 146.5,254.5C 147.325,255.386 148.325,255.719 149.5,255.5C 149.5,256.5 149.5,257.5 149.5,258.5 Z"/></g>
<g><path style="opacity:1" fill="#54869a" d="M 214.5,267.5 C 212.721,265.656 210.388,264.99 207.5,265.5C 207.5,266.5 207.5,267.5 207.5,268.5C 205.395,267.132 203.061,266.132 200.5,265.5C 206.833,264.167 213.167,264.167 219.5,265.5C 217.861,266.322 216.195,266.989 214.5,267.5 Z"/></g>
<g><path style="opacity:1" fill="#4688aa" d="M 59.5,241.5 C 59.1788,239.952 58.1788,239.285 56.5,239.5C 56.6633,241.857 56.4966,244.19 56,246.5C 54.4126,247.727 53.0793,247.394 52,245.5C 51.5172,246.448 51.3505,247.448 51.5,248.5C 51.4431,249.609 51.1098,250.609 50.5,251.5C 45.1542,266.707 39.3208,281.707 33,296.5C 29.0747,286.326 24.908,276.326 20.5,266.5C 19.2295,261.688 17.5629,257.022 15.5,252.5C 15.2914,251.078 14.7914,249.745 14,248.5C 13.1727,262.673 13.3393,276.673 14.5,290.5C 14.33,291.822 14.6634,292.989 15.5,294C 17.2556,294.202 18.9223,294.702 20.5,295.5C 14.8333,296.833 9.16667,296.833 3.5,295.5C 5.91712,294.928 8.08379,293.928 10,292.5C 10.6667,275.833 10.6667,259.167 10,242.5C 8.08379,241.072 5.91712,240.072 3.5,239.5C 8.38498,238.198 13.2183,238.198 18,239.5C 23.2872,254.037 28.9538,268.37 35,282.5C 41.0147,267.947 46.5147,253.28 51.5,238.5C 56.2137,238.173 60.8804,238.507 65.5,239.5C 63.5049,240.295 61.5049,240.961 59.5,241.5 Z"/></g>
<g><path style="opacity:1" fill="#bddae9" d="M 15.5,252.5 C 14.5049,264.322 14.1716,276.322 14.5,288.5C 14.5,289.167 14.5,289.833 14.5,290.5C 13.3393,276.673 13.1727,262.673 14,248.5C 14.7914,249.745 15.2914,251.078 15.5,252.5 Z"/></g>
<g><path style="opacity:1" fill="#b8d5e3" d="M 79.5,253.5 C 78.9457,260.153 78.6123,266.82 78.5,273.5C 77.1961,266.776 77.5294,260.109 79.5,253.5 Z"/></g>
<g><path style="opacity:1" fill="#a4cfe1" d="M 51.5,248.5 C 52.8333,262.167 52.8333,275.833 51.5,289.5C 51.8287,276.656 51.4954,263.989 50.5,251.5C 51.1098,250.609 51.4431,249.609 51.5,248.5 Z"/></g>
<g><path style="opacity:1" fill="#498aae" d="M 59.5,241.5 C 59.3334,258.503 59.5001,275.503 60,292.5C 61.5793,294.041 63.4127,295.208 65.5,296C 58.8085,296.831 52.1418,296.664 45.5,295.5C 49.8011,295.619 51.8011,293.619 51.5,289.5C 52.8333,275.833 52.8333,262.167 51.5,248.5C 51.3505,247.448 51.5172,246.448 52,245.5C 53.0793,247.394 54.4126,247.727 56,246.5C 56.4966,244.19 56.6633,241.857 56.5,239.5C 58.1788,239.285 59.1788,239.952 59.5,241.5 Z"/></g>
<g><path style="opacity:1" fill="#f1f3f4" d="M 15.5,252.5 C 17.5629,257.022 19.2295,261.688 20.5,266.5C 20.4076,271.855 21.7409,276.688 24.5,281C 23.9233,283.137 23.59,285.304 23.5,287.5C 20.6062,287.958 18.1062,287.291 16,285.5C 15.7679,286.737 15.2679,287.737 14.5,288.5C 14.1716,276.322 14.5049,264.322 15.5,252.5 Z"/></g>
<g><path style="opacity:1" fill="#e8f0fa" d="M 134.5,269.5 C 136.604,269.201 138.604,269.534 140.5,270.5C 143.26,275.693 146.26,280.693 149.5,285.5C 148.518,286.141 147.518,286.807 146.5,287.5C 144.247,283.74 142.58,279.74 141.5,275.5C 139.833,274.5 138.5,273.167 137.5,271.5C 136.336,277.472 136.17,283.472 137,289.5C 137.309,290.766 137.809,291.933 138.5,293C 140.5,293.333 142.5,293.667 144.5,294C 143.809,295.067 143.309,296.234 143,297.5C 142.617,296.944 142.117,296.611 141.5,296.5C 139.592,294.976 137.425,293.643 135,292.5C 134.5,284.841 134.334,277.174 134.5,269.5 Z"/></g>
<g><path style="opacity:1" fill="#e2f2fa" d="M 180.5,255.5 C 180.334,262.175 180.5,268.842 181,275.5C 183.178,279.326 184.845,283.326 186,287.5C 189.458,290.471 193.458,292.471 198,293.5C 200.589,292.014 203.423,291.347 206.5,291.5C 198.609,296.233 191.442,295.233 185,288.5C 178.727,278.01 177.227,267.01 180.5,255.5 Z"/></g>
<g><path style="opacity:1" fill="#5686a0" d="M 134.5,269.5 C 134.334,277.174 134.5,284.841 135,292.5C 137.425,293.643 139.592,294.976 141.5,296.5C 134.468,296.83 127.468,296.497 120.5,295.5C 123.061,294.868 125.395,293.868 127.5,292.5C 127.5,293.5 127.5,294.5 127.5,295.5C 130.187,295.664 132.854,295.497 135.5,295C 134.167,292.667 132.833,290.333 131.5,288C 132.946,281.808 133.946,275.641 134.5,269.5 Z"/></g>
<g><path style="opacity:1" fill="#8394a8" d="M 47.5,308.5 C 47.5,309.5 47.5,310.5 47.5,311.5C 46.3054,311.134 45.6387,310.301 45.5,309C 46.4091,306.177 46.5758,303.343 46,300.5C 48.4846,302.666 48.9846,305.332 47.5,308.5 Z"/></g>
<g><path style="opacity:1" fill="#518cb4" d="M 47.5,308.5 C 55.7249,306.723 58.7249,309.723 56.5,317.5C 56.1667,317.5 55.8333,317.5 55.5,317.5C 55.5,315.5 55.5,313.5 55.5,311.5C 52.8333,311.5 50.1667,311.5 47.5,311.5C 47.5,310.5 47.5,309.5 47.5,308.5 Z"/></g>
<g><path style="opacity:1" fill="#4786a8" d="M 142.5,312.5 C 141.833,312.5 141.167,312.5 140.5,312.5C 138.393,311.532 136.059,311.198 133.5,311.5C 131.03,310.64 130.863,309.306 133,307.5C 136.057,308.451 139.223,308.784 142.5,308.5C 142.5,309.833 142.5,311.167 142.5,312.5 Z"/></g>
<g><path style="opacity:1" fill="#5d92a5" d="M 161.5,307.5 C 167.152,307.962 168.985,310.962 167,316.5C 166.577,317.956 165.744,318.456 164.5,318C 167.659,314.144 166.826,311.644 162,310.5C 161.517,309.552 161.351,308.552 161.5,307.5 Z"/></g>
<g><path style="opacity:1" fill="#608eac" d="M 8.5,307.5 C 11.7871,308.161 15.1204,308.661 18.5,309C 19,309.5 19.5,310 20,310.5C 20.6667,315.5 20.6667,320.5 20,325.5C 19.6667,325.833 19.3333,326.167 19,326.5C 18.6667,321.833 18.3333,317.167 18,312.5C 16,311.167 14,311.167 12,312.5C 11.5008,317.155 11.3342,321.821 11.5,326.5C 10.1667,326.5 8.83333,326.5 7.5,326.5C 8.87786,321.946 9.87786,317.28 10.5,312.5C 8.99512,311.158 8.32846,309.492 8.5,307.5 Z"/></g>
<g><path style="opacity:1" fill="#5f93b4" d="M 23.5,307.5 C 30.1214,309.078 31.288,312.745 27,318.5C 27.2068,316.249 27.3735,313.915 27.5,311.5C 26.1667,311.5 24.8333,311.5 23.5,311.5C 23.5,310.167 23.5,308.833 23.5,307.5 Z"/></g>
<g><path style="opacity:1" fill="#5384a0" d="M 77.5,331.5 C 76.8333,324.833 76.1667,318.167 75.5,311.5C 72.8333,311.5 70.1667,311.5 67.5,311.5C 67.3433,310.127 67.51,308.793 68,307.5C 71.3936,308.456 74.8936,308.789 78.5,308.5C 77.6423,316.132 77.3089,323.799 77.5,331.5 Z"/></g>
<g><path style="opacity:1" fill="#598daf" d="M 81.5,307.5 C 84.7871,308.161 88.1204,308.661 91.5,309C 92,309.5 92.5,310 93,310.5C 93.8295,315.864 93.6628,321.198 92.5,326.5C 91.6717,321.868 91.1717,317.202 91,312.5C 87.9433,311.549 84.7766,311.216 81.5,311.5C 81.5,310.167 81.5,308.833 81.5,307.5 Z"/></g>
<g><path style="opacity:1" fill="#4884a8" d="M 105.5,312.5 C 102.713,311.523 99.7131,311.19 96.5,311.5C 96.3433,310.127 96.51,308.793 97,307.5C 100.394,308.456 103.894,308.789 107.5,308.5C 107.771,310.38 107.104,311.713 105.5,312.5 Z"/></g>
<g><path style="opacity:1" fill="#5185a3" d="M 110.5,307.5 C 113.898,307.907 117.064,308.907 120,310.5C 120.667,314.5 120.667,318.5 120,322.5C 119.667,319.167 119.333,315.833 119,312.5C 115.943,311.549 112.777,311.216 109.5,311.5C 109.433,310.041 109.766,308.708 110.5,307.5 Z"/></g>
<g><path style="opacity:1" fill="#5586a7" d="M 156.5,308.5 C 156.783,309.289 157.283,309.956 158,310.5C 158.499,315.489 158.666,320.489 158.5,325.5C 157.833,321.833 157.167,318.167 156.5,314.5C 156.672,313.508 156.338,312.842 155.5,312.5C 153.777,311.193 151.943,311.193 150,312.5C 146.708,311.61 146.041,309.943 148,307.5C 150.719,308.444 153.552,308.777 156.5,308.5 Z"/></g>
<g><path style="opacity:1" fill="#5d91ae" d="M 179.5,314.5 C 179.523,312.4 178.856,310.567 177.5,309C 179.387,307.561 181.053,308.061 182.5,310.5C 181.479,311.901 180.479,313.235 179.5,314.5 Z"/></g>
<g><path style="opacity:1" fill="#5386a0" d="M 32.5,307.5 C 35.4701,308.165 38.4701,308.831 41.5,309.5C 42.6609,313.795 42.8275,318.129 42,322.5C 41.6667,319.167 41.3333,315.833 41,312.5C 37.9433,311.549 34.7766,311.216 31.5,311.5C 31.4326,310.041 31.7659,308.708 32.5,307.5 Z"/></g>
<g><path style="opacity:1" fill="#a8b4c0" d="M 103.5,314.5 C 103.185,318.371 103.518,322.038 104.5,325.5C 104.44,326.043 104.107,326.376 103.5,326.5C 102.191,322.351 102.191,318.351 103.5,314.5 Z"/></g>
<g><path style="opacity:1" fill="#5d96b8" d="M 105.5,312.5 C 105.818,317.032 105.485,321.366 104.5,325.5C 103.518,322.038 103.185,318.371 103.5,314.5C 103.833,313.5 104.5,312.833 105.5,312.5 Z"/></g>
<g><path style="opacity:1" fill="#738e9a" d="M 55.5,317.5 C 55.8333,317.5 56.1667,317.5 56.5,317.5C 55.5423,318.962 54.3756,320.295 53,321.5C 52.7978,323.256 52.2978,324.922 51.5,326.5C 50.3299,322.498 51.6632,319.498 55.5,317.5 Z"/></g>
<g><path style="opacity:1" fill="#6c94b8" d="M 145.5,326.5 C 147.013,322.682 147.68,318.682 147.5,314.5C 148.117,314.389 148.617,314.056 149,313.5C 149.499,317.821 149.666,322.154 149.5,326.5C 148.167,326.5 146.833,326.5 145.5,326.5 Z"/></g>
<g><path style="opacity:1" fill="#548aa9" d="M 170.5,307.5 C 173.199,309.828 175.699,312.494 178,315.5C 178.383,314.944 178.883,314.611 179.5,314.5C 181.453,318.177 182.453,322.177 182.5,326.5C 179.531,323.358 176.698,320.025 174,316.5C 173.13,317.108 172.63,317.941 172.5,319C 173.871,321.319 174.538,323.819 174.5,326.5C 173.127,326.657 171.793,326.49 170.5,326C 170.845,323.27 171.011,320.437 171,317.5C 171.833,316.667 172.667,315.833 173.5,315C 170.959,313.152 169.959,310.652 170.5,307.5 Z"/></g>
<g><path style="opacity:1" fill="#b0c1cd" d="M 75.5,311.5 C 76.1667,318.167 76.8333,324.833 77.5,331.5C 77.44,332.043 77.1067,332.376 76.5,332.5C 75.503,325.532 75.1697,318.532 75.5,311.5 Z"/></g>
<g><path style="opacity:1" fill="#b0aab3" d="M 156.5,314.5 C 157.167,318.167 157.833,321.833 158.5,325.5C 158.44,326.043 158.107,326.376 157.5,326.5C 156.509,322.555 156.176,318.555 156.5,314.5 Z"/></g>
<g><path style="opacity:1" fill="#4883a7" d="M 31.5,323.5 C 35.5,323.5 39.5,323.5 43.5,323.5C 43.5,324.5 43.5,325.5 43.5,326.5C 39.5,326.5 35.5,326.5 31.5,326.5C 31.5,325.5 31.5,324.5 31.5,323.5 Z"/></g>
<g><path style="opacity:1" fill="#4b83a2" d="M 121.5,326.5 C 117.5,326.5 113.5,326.5 109.5,326.5C 109.5,325.5 109.5,324.5 109.5,323.5C 113.5,323.5 117.5,323.5 121.5,323.5C 121.5,324.5 121.5,325.5 121.5,326.5 Z"/></g>
<g><path style="opacity:1" fill="#7494a4" d="M 140.5,312.5 C 141.167,312.5 141.833,312.5 142.5,312.5C 142.5,318.833 142.5,325.167 142.5,331.5C 141.883,331.611 141.383,331.944 141,332.5C 140.5,325.842 140.334,319.175 140.5,312.5 Z"/></g>
</svg>
