<?xml version="1.0" encoding="UTF-8"?>
<!DOCTYPE svg PUBLIC "-//W3C//DTD SVG 1.1//EN" "http://www.w3.org/Graphics/SVG/1.1/DTD/svg11.dtd">
<svg xmlns="http://www.w3.org/2000/svg" version="1.1" width="325px" height="123px" style="shape-rendering:geometricPrecision; text-rendering:geometricPrecision; image-rendering:optimizeQuality; fill-rule:evenodd; clip-rule:evenodd" xmlns:xlink="http://www.w3.org/1999/xlink">
<g><path style="opacity:1" fill="#fcfcfc" d="M -0.5,-0.5 C 107.833,-0.5 216.167,-0.5 324.5,-0.5C 324.5,40.5 324.5,81.5 324.5,122.5C 216.167,122.5 107.833,122.5 -0.5,122.5C -0.5,81.5 -0.5,40.5 -0.5,-0.5 Z"/></g>
<g><path style="opacity:1" fill="#4d5254" d="M 121.5,4.5 C 124.099,4.54937 126.266,5.54937 128,7.5C 128.333,14.1667 128.667,20.8333 129,27.5C 138.212,23.6077 145.879,25.6077 152,33.5C 152.862,35.087 153.529,36.7536 154,38.5C 154.667,46.5 154.667,54.5 154,62.5C 151.333,65.1667 148.667,65.1667 146,62.5C 145.667,54.8333 145.333,47.1667 145,39.5C 141.43,34.742 136.93,33.5754 131.5,36C 130.299,36.9025 129.465,38.0692 129,39.5C 128.667,47.1667 128.333,54.8333 128,62.5C 125,65.1667 122,65.1667 119,62.5C 118.333,44.1667 118.333,25.8333 119,7.5C 120.045,6.62656 120.878,5.62656 121.5,4.5 Z"/></g>
<g><path style="opacity:1" fill="#9e40ce" d="M 200.5,10.5 C 206.757,10.4048 209.924,13.4048 210,19.5C 205.935,25.5752 201.602,25.9085 197,20.5C 195.756,16.191 196.923,12.8577 200.5,10.5 Z"/></g>
<g><path style="opacity:1" fill="#4a4f51" d="M 26.5,18.5 C 32.6915,18.0192 38.1915,19.6859 43,23.5C 51.5231,17.1059 60.3564,16.9392 69.5,23C 71.8841,25.3792 73.3841,28.2125 74,31.5C 74.6667,39.5 74.6667,47.5 74,55.5C 71.3333,58.1667 68.6667,58.1667 66,55.5C 65.6667,48.1667 65.3333,40.8333 65,33.5C 62.5976,27.908 58.4309,26.0747 52.5,28C 51,29.5 49.5,31 48,32.5C 47.6667,40.1667 47.3333,47.8333 47,55.5C 44.0337,58.2652 41.367,57.9318 39,54.5C 38.6667,46.8333 38.3333,39.1667 38,31.5C 34.604,27.7973 30.4374,26.6306 25.5,28C 23.9512,29.214 22.7845,30.714 22,32.5C 21.8014,40.2155 21.3014,47.8822 20.5,55.5C 17.284,58.3201 14.4507,57.9867 12,54.5C 11.2121,46.297 11.3788,38.1303 12.5,30C 14.5061,27.3287 16.5061,24.662 18.5,22C 21.1579,20.522 23.8245,19.3554 26.5,18.5 Z"/></g>
<g><path style="opacity:1" fill="#4b5052" d="M 222.5,25.5 C 231.506,25.3336 240.506,25.5002 249.5,26C 250.081,26.8926 250.415,27.8926 250.5,29C 245.686,40.4618 240.186,51.6285 234,62.5C 229.333,66.8333 226.667,65.8333 226,59.5C 231.059,50.7147 235.559,41.7147 239.5,32.5C 233.824,32.6661 228.157,32.4994 222.5,32C 219.939,29.8441 219.939,27.6774 222.5,25.5 Z"/></g>
<g><path style="opacity:1" fill="#4b5052" d="M 254.5,25.5 C 263.506,25.3336 272.506,25.5002 281.5,26C 282.097,27.0617 282.43,28.2284 282.5,29.5C 278.368,39.8103 273.535,49.8103 268,59.5C 266.516,63.0172 264.016,64.8505 260.5,65C 258.604,63.1917 258.104,61.025 259,58.5C 263.472,49.8915 267.639,41.2249 271.5,32.5C 265.824,32.6661 260.157,32.4994 254.5,32C 253.232,29.8368 253.232,27.6702 254.5,25.5 Z"/></g>
<g><path style="opacity:1" fill="#4c5153" d="M 295.5,25.5 C 308.62,24.4467 315.286,30.6133 315.5,44C 316.13,52.7408 312.796,59.4075 305.5,64C 295.146,65.996 288.646,61.8293 286,51.5C 284.769,44.1496 285.769,37.1496 289,30.5C 290.965,28.4497 293.132,26.783 295.5,25.5 Z"/></g>
<g><path style="opacity:1" fill="#494e50" d="M 171.5,25.5 C 180.166,24.8265 187.166,27.8265 192.5,34.5C 194.052,39.6852 194.719,45.0186 194.5,50.5C 194.333,54.5 194.167,58.5 194,62.5C 191.333,65.1667 188.667,65.1667 186,62.5C 185.667,55.5 185.333,48.5 185,41.5C 180.178,33.0483 174.512,32.3816 168,39.5C 167.667,47.1667 167.333,54.8333 167,62.5C 164.333,65.1667 161.667,65.1667 159,62.5C 158.087,53.4236 158.42,44.4236 160,35.5C 162.466,33.3283 164.632,30.8283 166.5,28C 168.491,27.6264 170.158,26.793 171.5,25.5 Z"/></g>
<g><path style="opacity:1" fill="#4c5153" d="M 200.5,28.5 C 203.044,28.1043 205.211,28.771 207,30.5C 207.667,41.1667 207.667,51.8333 207,62.5C 204.333,65.1667 201.667,65.1667 199,62.5C 198.333,51.8333 198.333,41.1667 199,30.5C 199.717,29.9558 200.217,29.2891 200.5,28.5 Z"/></g>
<g><path style="opacity:1" fill="#484d4f" d="M 113.5,35.5 C 113.5,42.8333 113.5,50.1667 113.5,57.5C 109.469,68.967 101.469,73.3004 89.5,70.5C 84.7673,68.1009 81.434,64.4342 79.5,59.5C 78.502,50.8589 78.1686,42.1922 78.5,33.5C 80.1986,33.3796 81.8653,33.0463 83.5,32.5C 85.0293,32.5288 86.196,33.1955 87,34.5C 87.3333,41.8333 87.6667,49.1667 88,56.5C 93.5662,64.475 99.2329,64.475 105,56.5C 105.333,49.1667 105.667,41.8333 106,34.5C 108.937,31.6938 111.437,32.0271 113.5,35.5 Z"/></g>
<g><path style="opacity:1" fill="#f8f8f8" d="M 297.5,33.5 C 301.317,32.8258 304.15,34.1592 306,37.5C 306.667,42.1667 306.667,46.8333 306,51.5C 303.997,56.6218 300.83,57.6218 296.5,54.5C 292.206,47.1905 292.539,40.1905 297.5,33.5 Z"/></g>
<g><path style="opacity:1" fill="#b8babb" d="M 113.5,35.5 C 114.82,38.428 115.486,41.7614 115.5,45.5C 115.333,48.8333 115.167,52.1667 115,55.5C 114.722,56.4158 114.222,57.0825 113.5,57.5C 113.5,50.1667 113.5,42.8333 113.5,35.5 Z"/></g>
<g><path style="opacity:1" fill="#be7edf" d="M 51.5,64.5 C 45.4406,64.2539 39.4406,64.5872 33.5,65.5C 33.6107,64.8826 33.944,64.3826 34.5,64C 40.3487,63.1816 46.0154,63.3483 51.5,64.5 Z"/></g>
<g><path style="opacity:1" fill="#9b38cc" d="M 51.5,64.5 C 52.1174,64.6107 52.6174,64.944 53,65.5C 53.6667,67.5 53.6667,69.5 53,71.5C 46.912,76.2959 40.5787,76.6293 34,72.5C 32.3364,70.2144 32.1697,67.8811 33.5,65.5C 39.4406,64.5872 45.4406,64.2539 51.5,64.5 Z"/></g>
<g><path style="opacity:1" fill="#7c3fb8" d="M 77.5,91.5 C 92.1674,89.0026 97.6674,95.0026 94,109.5C 93.7266,111.101 93.2266,112.601 92.5,114C 87.5,114.667 82.5,114.667 77.5,114C 76.4829,112.951 76.3162,111.784 77,110.5C 80.73,109.54 84.5633,109.207 88.5,109.5C 88.5,105.167 88.5,100.833 88.5,96.5C 86.1667,96.5 83.8333,96.5 81.5,96.5C 81.6641,99.1873 81.4974,101.854 81,104.5C 79.6667,105.833 78.3333,105.833 77,104.5C 76.2316,100.08 76.3982,95.7471 77.5,91.5 Z"/></g>
<g><path style="opacity:1" fill="#7c3fb8" d="M 165.5,91.5 C 169.514,91.3345 173.514,91.5012 177.5,92C 179.286,92.7845 180.786,93.9512 182,95.5C 182.667,101.5 182.667,107.5 182,113.5C 179.978,114.991 178.312,114.658 177,112.5C 176.501,107.177 176.334,101.844 176.5,96.5C 174.167,96.5 171.833,96.5 169.5,96.5C 169.666,101.511 169.499,106.511 169,111.5C 167.334,114.379 164.834,115.212 161.5,114C 159.839,110.85 160.839,109.35 164.5,109.5C 164.211,103.409 164.545,97.4093 165.5,91.5 Z"/></g>
<g><path style="opacity:1" fill="#7d40b9" d="M 187.5,91.5 C 188.552,91.3505 189.552,91.5172 190.5,92C 193.333,95.5 196.167,99 199,102.5C 200.244,99.3618 200.911,96.0284 201,92.5C 202.333,91.1667 203.667,91.1667 205,92.5C 206.166,97.4958 205,101.829 201.5,105.5C 204.072,107.636 205.239,110.303 205,113.5C 203.951,114.517 202.784,114.684 201.5,114C 198.453,110.075 195.286,106.241 192,102.5C 191.501,106.486 191.334,110.486 191.5,114.5C 189.856,114.714 188.356,114.38 187,113.5C 186.333,109.5 186.333,105.5 187,101.5C 187.5,100.333 188.333,99.5 189.5,99C 186.853,96.9102 186.186,94.4102 187.5,91.5 Z"/></g>
<g><path style="opacity:1" fill="#7a3cb7" d="M 224.5,91.5 C 229.179,91.3342 233.845,91.5008 238.5,92C 239.931,92.4652 241.097,93.2986 242,94.5C 242.81,101.082 242.643,107.582 241.5,114C 235.584,114.807 229.75,114.641 224,113.5C 223.204,106.087 223.37,98.7535 224.5,91.5 Z"/></g>
<g><path style="opacity:1" fill="#8044ba" d="M 13.5,91.5 C 15.3904,91.2965 16.8904,91.9632 18,93.5C 18.4994,98.8229 18.666,104.156 18.5,109.5C 21.3646,109.945 23.8646,109.278 26,107.5C 26.4196,103.809 26.9196,100.142 27.5,96.5C 25.8008,96.6602 24.1341,96.4935 22.5,96C 21.1667,94.6667 21.1667,93.3333 22.5,92C 25.5,91.3333 28.5,91.3333 31.5,92C 32.8045,92.804 33.4712,93.9707 33.5,95.5C 32.6523,100.926 31.4857,106.259 30,111.5C 29.0975,112.701 27.9308,113.535 26.5,114C 15.2012,117.855 10.5345,114.021 12.5,102.5C 12.5352,98.7509 12.8685,95.0843 13.5,91.5 Z"/></g>
<g><path style="opacity:1" fill="#7839b6" d="M 38.5,91.5 C 39.8221,91.33 40.9887,91.6634 42,92.5C 42.6667,99.5 42.6667,106.5 42,113.5C 40.6439,114.38 39.1439,114.714 37.5,114.5C 37.201,106.747 37.5343,99.0804 38.5,91.5 Z"/></g>
<g><path style="opacity:1" fill="#7d41b9" d="M 48.5,91.5 C 49.8221,91.33 50.9887,91.6634 52,92.5C 53.7667,105.622 55.7667,105.622 58,92.5C 59.6667,91.1667 61.3333,91.1667 63,92.5C 63.1162,97.0391 62.1162,101.372 60,105.5C 58,106.833 56,106.833 54,105.5C 53.51,106.793 53.3433,108.127 53.5,109.5C 57.2568,109.929 60.7568,109.263 64,107.5C 65.7659,102.391 67.2659,97.2246 68.5,92C 71.2247,91.1968 72.8914,92.1968 73.5,95C 72.207,99.1322 71.0403,103.299 70,107.5C 68.8783,109.624 67.3783,111.457 65.5,113C 59.8062,115.113 54.3062,114.946 49,112.5C 47.6421,105.452 47.4754,98.4523 48.5,91.5 Z"/></g>
<g><path style="opacity:1" fill="#8145bb" d="M 113.5,91.5 C 118.975,90.9193 124.142,91.5859 129,93.5C 129.667,100.167 129.667,106.833 129,113.5C 127.612,114.554 126.112,114.72 124.5,114C 123.525,108.259 123.192,102.425 123.5,96.5C 119.818,96.6653 116.152,96.4986 112.5,96C 111.257,94.184 111.59,92.684 113.5,91.5 Z"/></g>
<g><path style="opacity:1" fill="#8247bb" d="M 133.5,91.5 C 137.514,91.3345 141.514,91.5012 145.5,92C 147.009,95.6693 145.676,97.1693 141.5,96.5C 141.803,102.185 141.97,107.852 142,113.5C 140.644,114.38 139.144,114.714 137.5,114.5C 136.881,110.338 136.215,106.172 135.5,102C 135.643,99.849 136.643,98.1824 138.5,97C 133.622,97.6175 131.955,95.7842 133.5,91.5 Z"/></g>
<g><path style="opacity:1" fill="#7a3cb7" d="M 248.5,91.5 C 249.822,91.33 250.989,91.6634 252,92.5C 252.499,96.4862 252.666,100.486 252.5,104.5C 250.833,104.5 249.167,104.5 247.5,104.5C 247.231,100.069 247.564,95.7352 248.5,91.5 Z"/></g>
<g><path style="opacity:1" fill="#7f43ba" d="M 257.5,91.5 C 259.144,91.2865 260.644,91.6198 262,92.5C 262.498,95.8168 262.665,99.1501 262.5,102.5C 263.675,102.719 264.675,102.386 265.5,101.5C 266.269,98.4899 267.103,95.4899 268,92.5C 269.333,91.1667 270.667,91.1667 272,92.5C 272.732,97.039 272.066,101.372 270,105.5C 267.959,106.423 265.792,106.756 263.5,106.5C 263.5,107.5 263.5,108.5 263.5,109.5C 268.742,110.729 272.575,109.063 275,104.5C 276,100.5 277,96.5 278,92.5C 279.333,91.1667 280.667,91.1667 282,92.5C 283.755,110.084 276.089,117.084 259,113.5C 257.361,106.145 256.861,98.8113 257.5,91.5 Z"/></g>
<g><path style="opacity:1" fill="#8247bb" d="M 287.5,91.5 C 289.39,91.2965 290.89,91.9632 292,93.5C 292.667,100.167 292.667,106.833 292,113.5C 290.333,114.833 288.667,114.833 287,113.5C 286.204,106.087 286.37,98.7535 287.5,91.5 Z"/></g>
<g><path style="opacity:1" fill="#7f42ba" d="M 297.5,91.5 C 298.822,91.33 299.989,91.6634 301,92.5C 302.644,97.077 303.978,101.744 305,106.5C 305.414,106.957 305.914,107.291 306.5,107.5C 307.658,102.897 308.491,98.2302 309,93.5C 311.856,90.5646 313.689,91.0646 314.5,95C 313.613,99.8237 312.779,104.657 312,109.5C 307.388,113.888 301.888,116.222 295.5,116.5C 295.297,114.61 295.963,113.11 297.5,112C 302.124,111.606 302.957,110.106 300,107.5C 297.521,102.297 296.688,96.9636 297.5,91.5 Z"/></g>
<g><path style="opacity:1" fill="#f4eff9" d="M 228.5,96.5 C 231.5,96.5 234.5,96.5 237.5,96.5C 237.5,100.833 237.5,105.167 237.5,109.5C 234.5,109.5 231.5,109.5 228.5,109.5C 228.5,105.167 228.5,100.833 228.5,96.5 Z"/></g>
<g><path style="opacity:1" fill="#8145bb" d="M 113.5,101.5 C 114.675,101.281 115.675,101.614 116.5,102.5C 117.593,106.108 117.76,109.775 117,113.5C 112.333,115.343 110.5,113.676 111.5,108.5C 111.319,105.837 111.985,103.503 113.5,101.5 Z"/></g>
</svg>
