<?xml version="1.0" encoding="UTF-8"?>
<!DOCTYPE svg PUBLIC "-//W3C//DTD SVG 1.1//EN" "http://www.w3.org/Graphics/SVG/1.1/DTD/svg11.dtd">
<svg xmlns="http://www.w3.org/2000/svg" version="1.1" width="118px" height="97px" style="shape-rendering:geometricPrecision; text-rendering:geometricPrecision; image-rendering:optimizeQuality; fill-rule:evenodd; clip-rule:evenodd" xmlns:xlink="http://www.w3.org/1999/xlink">
<g><path style="opacity:1" fill="#65058e" d="M -0.5,-0.5 C 38.8333,-0.5 78.1667,-0.5 117.5,-0.5C 117.5,31.8333 117.5,64.1667 117.5,96.5C 78.1667,96.5 38.8333,96.5 -0.5,96.5C -0.5,64.1667 -0.5,31.8333 -0.5,-0.5 Z"/></g>
<g><path style="opacity:1" fill="#faf6fa" d="M 33.5,58.5 C 30.3307,61.1119 27.1641,61.1119 24,58.5C 23.3333,49.5 23.3333,40.5 24,31.5C 25.0699,27.6891 26.9033,24.3557 29.5,21.5C 39.255,13.5862 49.0884,13.5862 59,21.5C 74.8322,11.0844 86.8322,14.4177 95,31.5C 95.6667,40.1667 95.6667,48.8333 95,57.5C 91.952,61.0095 88.6187,61.3428 85,58.5C 84.6667,49.8333 84.3333,41.1667 84,32.5C 78.2341,24.9255 72.0674,24.5922 65.5,31.5C 64.6681,40.1475 64.1681,48.8142 64,57.5C 63.2421,59.9096 61.5754,60.9096 59,60.5C 56.194,60.561 54.5274,59.2276 54,56.5C 53.6667,48.1667 53.3333,39.8333 53,31.5C 47,24.8333 41,24.8333 35,31.5C 34.7786,40.5466 34.2786,49.5466 33.5,58.5 Z"/></g>
<g><path style="opacity:1" fill="#661e86" d="M 29.5,21.5 C 26.9033,24.3557 25.0699,27.6891 24,31.5C 23.3333,40.5 23.3333,49.5 24,58.5C 27.1641,61.1119 30.3307,61.1119 33.5,58.5C 33.5088,61.1359 32.1755,62.4693 29.5,62.5C 27.1817,62.0029 24.8484,61.6695 22.5,61.5C 22.3335,50.495 22.5002,39.495 23,28.5C 24.8665,26.1918 25.8665,23.5251 26,20.5C 27.0113,21.3366 28.1779,21.67 29.5,21.5 Z"/></g>
<g><path style="opacity:1" fill="#faf5fa" d="M 48.5,68.5 C 55.5079,68.3337 62.5079,68.5004 69.5,69C 73.2405,75.0179 71.5738,78.5179 64.5,79.5C 63.9389,86.2383 60.7722,87.9049 55,84.5C 54.5065,82.8659 54.3398,81.1992 54.5,79.5C 46.9995,78.8323 44.9995,75.1656 48.5,68.5 Z"/></g>
</svg>
