<svg xmlns="http://www.w3.org/2000/svg" viewBox="0 9 45.75 35.54999923706055" data-asc="0.875" width="45.75" height="35.54999923706055"><defs/><g fill="#000000"><g transform="translate(0, 0)"><path d="M35.35 42.50Q35.35 43 36.18 43Q37 43 39.10 42.02Q41.20 41.05 42.80 40.05L44.40 39.05Q44.45 39.15 44.45 39.45Q44.45 39.75 44 39.95Q37.25 44.55 34.60 44.55Q33.30 44.55 33.30 43.25Q33.30 41.95 35.45 38.30L44.25 23Q44.25 22.85 44.08 22.85Q43.90 22.85 43.40 23.32Q42.90 23.80 34.27 32.60Q25.65 41.40 24.15 42.95Q23.30 43.95 22.65 43.95Q22.10 43.95 22.10 43.30Q22.10 41.80 28.68 31.82Q35.25 21.85 35.50 20.65Q35.50 20.50 35.38 20.50Q35.25 20.50 34.52 21.22Q33.80 21.95 24.15 32Q14.50 42.05 12.95 43.80Q12.55 44.10 12.08 44.10Q11.60 44.10 11.60 43.65Q11.60 43.30 12.05 42.55Q12.50 41.80 13.33 40.40Q14.15 39 16.27 35.10Q18.40 31.20 20.02 27.75Q21.65 24.30 22.98 20.35Q24.30 16.40 24.30 13.90Q24.30 9.75 20.70 9.75Q16.55 9.75 11.93 12.13Q7.30 14.50 4.40 17.60Q1.50 20.70 1.50 22.95Q1.50 25.55 5.72 25.55Q9.95 25.55 13.78 22.92Q17.60 20.30 19.20 17.30Q19.45 17 19.60 17Q19.75 17 19.75 17.67Q19.75 18.35 18.65 20Q17.55 21.65 15.78 23.32Q14 25 11.28 26.20Q8.55 27.40 5.70 27.40Q0 27.40 0 23.65Q0 21.60 1.80 19.07Q3.60 16.55 6.50 14.30Q9.40 12.05 13.53 10.52Q17.65 9 21.75 9Q26.40 9 26.40 13.85Q26.40 16.35 25.18 20.05Q23.95 23.75 22.25 27.25Q18.80 34.10 15.75 38.85L14.55 40.80Q14.75 40.70 19.45 35.80Q35 19.70 36.35 18.35Q37.30 18.35 37.50 18.60Q37.70 18.85 37.70 18.95L37.70 19Q37.70 20.35 28.65 34.55Q25.15 40 24.85 40.50L24.40 41.50Q24.80 41.50 29.55 36.48Q34.30 31.45 39.18 26.43Q44.05 21.40 44.75 21.40Q45.05 21.40 45.40 21.67Q45.75 21.95 45.75 22.25Q45.75 22.55 45.60 22.85L36.65 39.05Q35.35 41.45 35.35 42.50Z"/></g></g></svg>