<svg width="77" height="105" viewBox="0 0 77 105" fill="none" xmlns="http://www.w3.org/2000/svg">
<path d="M19.5093 77.2114V87.4438H18.3413V77.2114H19.5093ZM22.8862 77.2114V85H21.7183V77.2114H22.8862ZM31.3096 83.9209V85H24.5112V83.9209H29.2974V80.4233C29.2974 79.6447 29.1387 79.0946 28.8213 78.7729C28.5081 78.4513 27.9644 78.2905 27.1899 78.2905H24.8096V77.2114H27.2026C28.3706 77.2114 29.2064 77.4611 29.71 77.9604C30.2135 78.4598 30.4653 79.285 30.4653 80.436V83.9209H31.3096ZM38.7173 84.2129C38.4253 84.4076 38.0614 84.5662 37.6255 84.689C37.1938 84.8117 36.6522 84.9027 36.0005 84.9619C35.3488 85.0212 34.5426 85.055 33.582 85.0635L32.0967 77.2114H33.3091L34.0898 81.2168L34.5532 81.1279C34.8071 81.0687 35.0166 80.9925 35.1816 80.8994C35.3467 80.8021 35.4779 80.6667 35.5752 80.4932C35.6556 80.3577 35.717 80.1906 35.7593 79.9917C35.8016 79.7928 35.8333 79.5558 35.8545 79.2808L36.0132 77.2114H37.2192L37.0225 79.2935C36.9928 79.6447 36.9569 79.9494 36.9146 80.2075C36.8722 80.4614 36.8215 80.6667 36.7622 80.8232C36.6564 81.1406 36.4977 81.3861 36.2861 81.5596C36.0745 81.7288 35.7233 81.8791 35.2324 82.0103L34.2803 82.2324L34.5913 83.8701H34.7437C35.5942 83.8701 36.2756 83.8215 36.7876 83.7241C37.2996 83.6226 37.7038 83.466 38 83.2544C38.1989 83.1105 38.366 82.9328 38.5015 82.7212C38.6369 82.5096 38.7511 82.2303 38.8442 81.8833C38.9373 81.5363 39.0156 81.0898 39.0791 80.5439L39.479 77.2114H40.7041L40.2979 80.4995C40.2132 81.2358 40.1032 81.8431 39.9678 82.3213C39.8324 82.7952 39.6631 83.1803 39.46 83.4766C39.2611 83.7686 39.0135 84.014 38.7173 84.2129ZM47.6104 80.4233C47.6104 79.6532 47.4538 79.1051 47.1406 78.7793C46.8317 78.4535 46.2879 78.2905 45.5093 78.2905H43.5415V85H42.3735V77.2114H45.522C46.6899 77.2114 47.5257 77.4611 48.0293 77.9604C48.5329 78.4598 48.7847 79.285 48.7847 80.436V85H47.6104V80.4233ZM54.7642 77.0845C55.7882 77.0845 56.5352 77.3976 57.0049 78.0239C57.4788 78.646 57.7158 79.6362 57.7158 80.9946V85H53.8945V83.9209H56.5352V81.1406C56.5352 80.1038 56.4019 79.3506 56.1353 78.8809C55.8687 78.4111 55.4159 78.1763 54.7769 78.1763C54.2056 78.1763 53.7358 78.4344 53.3677 78.9507C52.9953 79.4754 52.6546 80.3874 52.3457 81.6865L51.5522 85H50.2954L51.165 81.5913C51.2624 81.1935 51.3618 80.8338 51.4634 80.5122C51.5649 80.1906 51.6644 79.9049 51.7617 79.6553L50.1748 77.2114H51.5522L52.3457 78.5C52.6758 78.0007 53.0291 77.641 53.4058 77.4209C53.7824 77.1966 54.2352 77.0845 54.7642 77.0845ZM26.0601 96.436V101H24.8857V96.4233C24.8857 95.6447 24.7271 95.0946 24.4097 94.7729C24.0965 94.4513 23.5527 94.2905 22.7783 94.2905H19.8203V93.2114H22.7974C23.576 93.2114 24.2044 93.3215 24.6826 93.5415C25.1608 93.7573 25.5099 94.1022 25.73 94.5762C25.95 95.0459 26.0601 95.6659 26.0601 96.436ZM21.1152 95.9409V101H19.9473V95.9409H21.1152ZM29.2529 98.4419L28.7451 101H27.5137L28.0469 98.4673C28.1992 97.7394 28.3389 97.2274 28.4658 96.9312C28.5928 96.6307 28.7515 96.3874 28.9419 96.2012C29.1366 96.015 29.3968 95.8563 29.7227 95.7251L27.8882 93.2114H29.3291L32.1919 97.1533C32.5093 96.8571 32.7611 96.4995 32.9473 96.0806C33.1377 95.6574 33.2625 95.1729 33.3218 94.627L33.4678 93.2114H34.6738L34.5278 94.6016C34.4813 95.0671 34.3966 95.4754 34.2739 95.8267C34.1893 96.0679 34.0877 96.2985 33.9692 96.5186C33.8507 96.7344 33.6984 96.9587 33.5122 97.1914C33.3302 97.4242 33.0933 97.6844 32.8013 97.9722L35.0928 101H33.6074L30.2559 96.4487C29.9173 96.6138 29.6761 96.8994 29.5322 97.3057C29.4899 97.4115 29.4455 97.5596 29.3989 97.75C29.3566 97.9404 29.3079 98.1711 29.2529 98.4419ZM37.5303 93.2114V101H36.3623V93.2114H37.5303ZM40.9072 93.2114V101H39.7393V93.2114H40.9072ZM43.2368 99.9717C44.0493 99.6712 44.7433 99.2904 45.3188 98.8291C45.8986 98.3721 46.3387 97.8727 46.6392 97.3311C46.9438 96.7894 47.0962 96.2393 47.0962 95.6807C47.0962 94.7539 46.6011 94.2905 45.6108 94.2905H42.4561V90.4312H43.624V93.2114H45.7314C47.4284 93.2114 48.2769 93.9668 48.2769 95.4775C48.2769 96.2562 48.0907 97.0031 47.7183 97.7183C47.3459 98.4334 46.8211 99.0767 46.144 99.6479C45.34 100.333 44.3709 100.879 43.2368 101.286V99.9717ZM56.1099 96.436V101H54.9355V96.4233C54.9355 95.6447 54.7769 95.0946 54.4595 94.7729C54.1463 94.4513 53.6025 94.2905 52.8281 94.2905H49.8701V93.2114H52.8472C53.6258 93.2114 54.2542 93.3215 54.7324 93.5415C55.2106 93.7573 55.5597 94.1022 55.7798 94.5762C55.9998 95.0459 56.1099 95.6659 56.1099 96.436ZM51.165 95.9409V101H49.9971V95.9409H51.165Z" fill="white"/>
<g filter="url(#filter0_d_103_170)">
<rect x="6" y="7" width="65" height="65" rx="8" fill="#F1F0F0"/>
</g>
<rect x="6" y="7" width="62" height="62" rx="8" fill="white"/>
<path d="M23.1816 19.3182H51.8184C52.4406 19.3182 53.0404 19.5347 53.5176 19.9256L53.7148 20.1033C54.2177 20.6062 54.5 21.2886 54.5 21.9998V56.9998C54.5 57.711 54.2177 58.3934 53.7148 58.8963C53.2119 59.3992 52.5296 59.6814 51.8184 59.6815H23.1816C22.5593 59.6814 21.9596 59.4651 21.4824 59.074L21.2852 58.8963C20.7823 58.3934 20.5 57.711 20.5 56.9998V21.9998L20.5127 21.7352C20.5649 21.2089 20.7723 20.7097 21.1074 20.3006L21.2852 20.1033C21.7253 19.6632 22.303 19.3918 22.917 19.3309L23.1816 19.3182ZM30.6504 48.7654C30.189 48.5743 29.6867 48.5066 29.1934 48.5672L28.9824 48.6014C28.4925 48.6988 28.0377 48.9213 27.6611 49.2459L27.5049 49.3904C27.1517 49.7436 26.8964 50.1819 26.7637 50.6609L26.7148 50.869C26.6035 51.4287 26.6606 52.0087 26.8789 52.5359C27.07 52.9974 27.3768 53.4009 27.7686 53.7068L27.9414 53.8318C28.4161 54.149 28.975 54.3182 29.5459 54.3182C30.3112 54.3181 31.0448 54.0136 31.5859 53.4725C32.1272 52.9312 32.4316 52.197 32.4316 51.4315C32.4316 50.932 32.3025 50.4421 32.0576 50.0096L31.9453 49.8279C31.6678 49.4127 31.2877 49.0779 30.8438 48.8543L30.6504 48.7654ZM38.6045 48.7654C38.1429 48.5743 37.6409 48.5065 37.1475 48.5672L36.9365 48.6014C36.4467 48.6989 35.9917 48.9213 35.6152 49.2459L35.459 49.3904C35.1058 49.7436 34.8515 50.182 34.7188 50.6609L34.6689 50.869C34.5715 51.3589 34.6029 51.8646 34.7588 52.3367L34.833 52.5359C35.0242 52.9975 35.3317 53.4009 35.7236 53.7068L35.8965 53.8318C36.3711 54.149 36.9292 54.3182 37.5 54.3182C38.1697 54.3182 38.8155 54.0856 39.3291 53.6649L39.541 53.4725C40.0822 52.9312 40.3867 52.1969 40.3867 51.4315C40.3866 50.8607 40.2175 50.3025 39.9004 49.8279C39.6229 49.4127 39.2427 49.078 38.7988 48.8543L38.6045 48.7654ZM46.5596 48.7654C46.0982 48.5743 45.5958 48.5066 45.1025 48.5672L44.8916 48.6014C44.4017 48.6988 43.9468 48.9213 43.5703 49.2459L43.4141 49.3904C43.0609 49.7436 42.8056 50.1819 42.6729 50.6609L42.624 50.869C42.5127 51.4287 42.5697 52.0087 42.7881 52.5359C43.0065 53.0633 43.376 53.5147 43.8506 53.8318C44.3251 54.1489 44.8834 54.3181 45.4541 54.3182C46.124 54.3182 46.7706 54.0857 47.2842 53.6649L47.4951 53.4725C48.0364 52.9312 48.3408 52.197 48.3408 51.4315C48.3407 50.8607 48.1716 50.3025 47.8545 49.8279C47.577 49.4127 47.1969 49.0779 46.7529 48.8543L46.5596 48.7654ZM30.6504 40.8104C30.189 40.6192 29.6867 40.5515 29.1934 40.6121L28.9824 40.6463C28.4926 40.7437 28.0376 40.9664 27.6611 41.2908L27.5049 41.4363C27.1516 41.7896 26.8964 42.2276 26.7637 42.7068L26.7148 42.9139C26.6035 43.4738 26.6604 44.0544 26.8789 44.5818C27.07 45.0432 27.377 45.4458 27.7686 45.7518L27.9414 45.8768C28.4161 46.1939 28.975 46.3641 29.5459 46.3641C30.3111 46.364 31.0448 46.0594 31.5859 45.5184C32.1272 44.9771 32.4316 44.2428 32.4316 43.4774C32.4316 42.9779 32.3024 42.4881 32.0576 42.0555L31.9453 41.8738C31.6677 41.4584 31.2879 41.1229 30.8438 40.8992L30.6504 40.8104ZM38.6045 40.8104C38.0771 40.592 37.4964 40.5349 36.9365 40.6463C36.4467 40.7438 35.9917 40.9663 35.6152 41.2908L35.459 41.4363C35.1057 41.7896 34.8515 42.2277 34.7188 42.7068L34.6689 42.9139C34.5715 43.4038 34.6031 43.9096 34.7588 44.3817L34.833 44.5818C35.0242 45.0433 35.3319 45.4458 35.7236 45.7518L35.8965 45.8768C36.3711 46.1939 36.9291 46.3641 37.5 46.3641C38.1698 46.3641 38.8155 46.1306 39.3291 45.7098L39.541 45.5184C40.0823 44.9771 40.3867 44.2428 40.3867 43.4774C40.3867 42.9066 40.2174 42.3484 39.9004 41.8738C39.6229 41.4585 39.2428 41.1229 38.7988 40.8992L38.6045 40.8104ZM46.5596 40.8104C46.0322 40.5919 45.4515 40.535 44.8916 40.6463C44.3318 40.7577 43.8177 41.0328 43.4141 41.4363C43.0608 41.7896 42.8056 42.2276 42.6729 42.7068L42.624 42.9139C42.5127 43.4738 42.5696 44.0544 42.7881 44.5818C42.9792 45.0432 43.2861 45.4459 43.6777 45.7518L43.8506 45.8768C44.3251 46.1938 44.8834 46.364 45.4541 46.3641C46.1241 46.3641 46.7705 46.1308 47.2842 45.7098L47.4951 45.5184C48.0364 44.9771 48.3408 44.2428 48.3408 43.4774C48.3408 42.9065 48.1716 42.3485 47.8545 41.8738C47.5769 41.4584 47.197 41.1229 46.7529 40.8992L46.5596 40.8104ZM27.9541 24.6815C27.4692 24.6816 27.0018 24.8505 26.6299 25.1551L26.4756 25.2938C26.0836 25.6858 25.8634 26.2179 25.8633 26.7723V34.7274C25.8633 35.2818 26.0836 35.8138 26.4756 36.2059C26.8676 36.5979 27.3997 36.8181 27.9541 36.8182H47.0459C47.6003 36.8181 48.1324 36.5979 48.5244 36.2059C48.9164 35.8138 49.1367 35.2818 49.1367 34.7274V26.7723C49.1366 26.2874 48.9676 25.82 48.6631 25.4481L48.5244 25.2938C48.1324 24.9017 47.6003 24.6816 47.0459 24.6815H27.9541Z" fill="white" stroke="#6929AC"/>
<defs>
<filter id="filter0_d_103_170" x="0" y="3" width="77" height="77" filterUnits="userSpaceOnUse" color-interpolation-filters="sRGB">
<feFlood flood-opacity="0" result="BackgroundImageFix"/>
<feColorMatrix in="SourceAlpha" type="matrix" values="0 0 0 0 0 0 0 0 0 0 0 0 0 0 0 0 0 0 127 0" result="hardAlpha"/>
<feOffset dy="2"/>
<feGaussianBlur stdDeviation="3"/>
<feComposite in2="hardAlpha" operator="out"/>
<feColorMatrix type="matrix" values="0 0 0 0 0 0 0 0 0 0 0 0 0 0 0 0 0 0 0.25 0"/>
<feBlend mode="normal" in2="BackgroundImageFix" result="effect1_dropShadow_103_170"/>
<feBlend mode="normal" in="SourceGraphic" in2="effect1_dropShadow_103_170" result="shape"/>
</filter>
</defs>
</svg>
