<svg width="77" height="107" viewBox="0 0 77 107" fill="none" xmlns="http://www.w3.org/2000/svg">
<path d="M21.3374 82.2114V92.4438H20.1694V82.2114H21.3374ZM24.7144 82.2114V90H23.5464V82.2114H24.7144ZM33.1377 88.9209V90H26.3394V88.9209H31.1255V85.4233C31.1255 84.6447 30.9668 84.0946 30.6494 83.7729C30.3363 83.4513 29.7925 83.2905 29.0181 83.2905H26.6377V82.2114H29.0308C30.1987 82.2114 31.0345 82.4611 31.5381 82.9604C32.0417 83.4598 32.2935 84.285 32.2935 85.436V88.9209H33.1377ZM40.5454 89.2129C40.2534 89.4076 39.8895 89.5662 39.4536 89.689C39.022 89.8117 38.4803 89.9027 37.8286 89.9619C37.1769 90.0212 36.3708 90.055 35.4102 90.0635L33.9248 82.2114H35.1372L35.918 86.2168L36.3813 86.1279C36.6353 86.0687 36.8447 85.9925 37.0098 85.8994C37.1748 85.8021 37.306 85.6667 37.4033 85.4932C37.4837 85.3577 37.5451 85.1906 37.5874 84.9917C37.6297 84.7928 37.6615 84.5558 37.6826 84.2808L37.8413 82.2114H39.0474L38.8506 84.2935C38.821 84.6447 38.785 84.9494 38.7427 85.2075C38.7004 85.4614 38.6496 85.6667 38.5903 85.8232C38.4845 86.1406 38.3258 86.3861 38.1143 86.5596C37.9027 86.7288 37.5514 86.8791 37.0605 87.0103L36.1084 87.2324L36.4194 88.8701H36.5718C37.4224 88.8701 38.1037 88.8215 38.6157 88.7241C39.1278 88.6226 39.5319 88.466 39.8281 88.2544C40.027 88.1105 40.1942 87.9328 40.3296 87.7212C40.465 87.5096 40.5793 87.2303 40.6724 86.8833C40.7655 86.5363 40.8438 86.0898 40.9072 85.5439L41.3071 82.2114H42.5322L42.126 85.4995C42.0413 86.2358 41.9313 86.8431 41.7959 87.3213C41.6605 87.7952 41.4912 88.1803 41.2881 88.4766C41.0892 88.7686 40.8416 89.014 40.5454 89.2129ZM49.4385 85.4233C49.4385 84.6532 49.2819 84.1051 48.9688 83.7793C48.6598 83.4535 48.116 83.2905 47.3374 83.2905H45.3696V90H44.2017V82.2114H47.3501C48.5181 82.2114 49.3538 82.4611 49.8574 82.9604C50.361 83.4598 50.6128 84.285 50.6128 85.436V90H49.4385V85.4233ZM56.5923 82.0845C57.6164 82.0845 58.3633 82.3976 58.833 83.0239C59.307 83.646 59.5439 84.6362 59.5439 85.9946V90H55.7227V88.9209H58.3633V86.1406C58.3633 85.1038 58.23 84.3506 57.9634 83.8809C57.6968 83.4111 57.244 83.1763 56.605 83.1763C56.0337 83.1763 55.564 83.4344 55.1958 83.9507C54.8234 84.4754 54.4827 85.3874 54.1738 86.6865L53.3804 90H52.1235L52.9932 86.5913C53.0905 86.1935 53.1899 85.8338 53.2915 85.5122C53.3931 85.1906 53.4925 84.9049 53.5898 84.6553L52.0029 82.2114H53.3804L54.1738 83.5C54.5039 83.0007 54.8573 82.641 55.2339 82.4209C55.6105 82.1966 56.0633 82.0845 56.5923 82.0845ZM24.2002 104.794C24.0563 105.221 23.8278 105.53 23.5146 105.721C23.2015 105.907 22.7085 106 22.0356 106H21.9658V104.921H22.0737C22.3657 104.921 22.5985 104.866 22.772 104.756C22.9412 104.646 23.0618 104.479 23.1338 104.254C23.2057 104.026 23.2417 103.681 23.2417 103.22V99.2905H22.0356V98.2114H26.2441C27.4121 98.2114 28.25 98.4611 28.7578 98.9604C29.2656 99.4556 29.5195 100.281 29.5195 101.436V106H28.3516V101.423C28.3516 100.645 28.1929 100.095 27.8755 99.7729C27.5623 99.4513 27.0143 99.2905 26.2314 99.2905H24.4097V102.985C24.4097 103.764 24.3398 104.367 24.2002 104.794ZM32.8394 98.2114V106H31.6714V98.2114H32.8394ZM35.1689 104.972C35.9814 104.671 36.6755 104.29 37.251 103.829C37.8307 103.372 38.2708 102.873 38.5713 102.331C38.876 101.789 39.0283 101.239 39.0283 100.681C39.0283 99.7539 38.5332 99.2905 37.543 99.2905H34.3882V95.4312H35.5562V98.2114H37.6636C39.3605 98.2114 40.209 98.9668 40.209 100.478C40.209 101.256 40.0228 102.003 39.6504 102.718C39.278 103.433 38.7533 104.077 38.0762 104.648C37.2721 105.333 36.3031 105.879 35.1689 106.286V104.972ZM43.1099 98.2114V106H41.9419V98.2114H43.1099ZM50.3271 102.217C50.3271 104.739 49.1338 106 46.7471 106H44.7222V104.921H46.7725C47.5807 104.921 48.1774 104.697 48.5625 104.248C48.9476 103.799 49.1401 103.127 49.1401 102.229V101.982C49.1401 101.081 48.9455 100.408 48.5562 99.9634C48.1711 99.5148 47.5765 99.2905 46.7725 99.2905H44.7222V98.2114H46.7471C49.1338 98.2114 50.3271 99.4725 50.3271 101.995V102.217ZM53.0503 98.2114V102.306H51.8823V98.2114H53.0503Z" fill="white"/>
<g filter="url(#filter0_d_103_171)">
<rect x="6" y="7" width="65" height="65" rx="8" fill="#F1F0F0"/>
</g>
<rect x="6" y="7" width="62" height="62" rx="8" fill="white"/>
<path d="M37.498 20.4004C37.7367 20.4004 37.9734 20.4483 38.1943 20.542C38.3602 20.6124 38.5156 20.7075 38.6543 20.8242L38.7871 20.9482H38.7881L57.0146 39.582C57.0798 39.6486 57.1172 39.741 57.1172 39.8389C57.1172 39.9367 57.0798 40.0291 57.0146 40.0957C56.9498 40.1619 56.8631 40.1973 56.7754 40.1973C56.7099 40.1972 56.6453 40.1774 56.5898 40.1396L56.5371 40.0957L54.8379 38.3574L54.1514 37.6562V55.2686H58.2588C58.3463 55.2686 58.4324 55.304 58.4971 55.3701C58.5621 55.4366 58.5996 55.5292 58.5996 55.627C58.5995 55.7245 58.562 55.8164 58.4971 55.8828C58.4324 55.949 58.3464 55.9843 58.2588 55.9844H16.7412C16.6536 55.9843 16.5676 55.949 16.5029 55.8828C16.438 55.8164 16.4005 55.7245 16.4004 55.627C16.4004 55.5292 16.4379 55.4366 16.5029 55.3701C16.5676 55.304 16.6537 55.2686 16.7412 55.2686H20.8486V37.6562L20.1621 38.3574L18.4629 40.0957C18.4307 40.1285 18.3924 40.1536 18.3516 40.1709C18.311 40.188 18.268 40.1972 18.2246 40.1973C18.1811 40.1973 18.1374 40.1881 18.0967 40.1709C18.0559 40.1536 18.0175 40.1286 17.9854 40.0957C17.9532 40.0628 17.9271 40.0226 17.9092 39.9785C17.8914 39.9345 17.8828 39.887 17.8828 39.8389C17.8828 39.7908 17.8914 39.7432 17.9092 39.6992C17.9181 39.6772 17.9297 39.6562 17.9424 39.6367L17.9854 39.582L36.209 20.9482C36.3789 20.774 36.5807 20.6358 36.8018 20.542C36.9674 20.4717 37.1418 20.4271 37.3193 20.4092L37.498 20.4004ZM33.3936 55.2686H41.6064V43.8574H33.3936V55.2686ZM53.4688 36.959L53.3545 36.8418L38.3105 21.4619C38.205 21.3539 38.0795 21.267 37.9404 21.208C37.8012 21.149 37.6512 21.1191 37.5 21.1191C37.3488 21.1191 37.1988 21.149 37.0596 21.208C36.9553 21.2522 36.8588 21.3123 36.7725 21.3848L36.6895 21.4619L21.6455 36.8418L21.5312 36.959V55.2686H32.71V43.5C32.71 43.4023 32.7484 43.3096 32.8135 43.2432C32.8782 43.1771 32.9642 43.1416 33.0518 43.1416H41.9482C42.0358 43.1416 42.1218 43.1771 42.1865 43.2432C42.2516 43.3096 42.29 43.4023 42.29 43.5V55.2686H53.4688V36.959Z" stroke="#6929AC" stroke-width="0.8"/>
<defs>
<filter id="filter0_d_103_171" x="0" y="3" width="77" height="77" filterUnits="userSpaceOnUse" color-interpolation-filters="sRGB">
<feFlood flood-opacity="0" result="BackgroundImageFix"/>
<feColorMatrix in="SourceAlpha" type="matrix" values="0 0 0 0 0 0 0 0 0 0 0 0 0 0 0 0 0 0 127 0" result="hardAlpha"/>
<feOffset dy="2"/>
<feGaussianBlur stdDeviation="3"/>
<feComposite in2="hardAlpha" operator="out"/>
<feColorMatrix type="matrix" values="0 0 0 0 0 0 0 0 0 0 0 0 0 0 0 0 0 0 0.25 0"/>
<feBlend mode="normal" in2="BackgroundImageFix" result="effect1_dropShadow_103_171"/>
<feBlend mode="normal" in="SourceGraphic" in2="effect1_dropShadow_103_171" result="shape"/>
</filter>
</defs>
</svg>
