<svg width="77" height="114" viewBox="0 0 77 114" fill="none" xmlns="http://www.w3.org/2000/svg">
<path d="M25.6602 88.7939C25.5163 89.2214 25.2878 89.5303 24.9746 89.7207C24.6615 89.9069 24.1685 90 23.4956 90H23.4258V88.9209H23.5337C23.8257 88.9209 24.0584 88.8659 24.2319 88.7559C24.4012 88.6458 24.5218 88.4787 24.5938 88.2544C24.6657 88.0259 24.7017 87.681 24.7017 87.2197V83.2905H23.4956V82.2114H27.7041C28.8721 82.2114 29.71 82.4611 30.2178 82.9604C30.7256 83.4556 30.9795 84.2808 30.9795 85.436V90H29.8115V85.4233C29.8115 84.6447 29.6528 84.0946 29.3354 83.7729C29.0223 83.4513 28.4743 83.2905 27.6914 83.2905H25.8696V86.9849C25.8696 87.7635 25.7998 88.3665 25.6602 88.7939ZM34.2993 82.2114V90H33.1313V82.2114H34.2993ZM37.6763 82.2114V86.3057H36.5083V82.2114H37.6763ZM41.0532 82.2114V90H39.8853V82.2114H41.0532ZM43.3828 88.9717C44.1953 88.6712 44.8893 88.2904 45.4648 87.8291C46.0446 87.3721 46.4847 86.8727 46.7852 86.3311C47.0898 85.7894 47.2422 85.2393 47.2422 84.6807C47.2422 83.7539 46.7471 83.2905 45.7568 83.2905H42.6021V79.4312H43.77V82.2114H45.8774C47.5744 82.2114 48.4229 82.9668 48.4229 84.4775C48.4229 85.2562 48.2367 86.0031 47.8643 86.7183C47.4919 87.4334 46.9671 88.0767 46.29 88.6479C45.486 89.3335 44.5169 89.8794 43.3828 90.2856V88.9717ZM49.3115 88.9717C50.4837 88.9717 51.402 88.8638 52.0664 88.6479L49.7114 82.2114H51L53.082 88.1528C53.4798 87.8693 53.7993 87.4906 54.0405 87.0166C54.286 86.5384 54.4637 85.9121 54.5737 85.1377C54.688 84.3633 54.7451 83.3879 54.7451 82.2114H55.9702C55.9702 84.1665 55.7629 85.6984 55.3481 86.8071C55.0688 87.5435 54.6774 88.1528 54.1738 88.6353C53.6702 89.1134 53.0207 89.4816 52.2251 89.7397C51.4338 89.9937 50.4626 90.1502 49.3115 90.2095V88.9717ZM25.0825 104.794C24.9386 105.221 24.7101 105.53 24.397 105.721C24.0838 105.907 23.5908 106 22.918 106H22.8481V104.921H22.9561C23.248 104.921 23.4808 104.866 23.6543 104.756C23.8236 104.646 23.9442 104.479 24.0161 104.254C24.0881 104.026 24.124 103.681 24.124 103.22V99.2905H22.918V98.2114H27.1265C28.2944 98.2114 29.1323 98.4611 29.6401 98.9604C30.1479 99.4556 30.4019 100.281 30.4019 101.436V106H29.2339V101.423C29.2339 100.645 29.0752 100.095 28.7578 99.7729C28.4447 99.4513 27.8966 99.2905 27.1138 99.2905H25.292V102.985C25.292 103.764 25.2222 104.367 25.0825 104.794ZM33.7217 98.2114V106H32.5537V98.2114H33.7217ZM37.0986 98.2114V106H35.9307V98.2114H37.0986ZM39.4282 104.972C40.2407 104.671 40.9347 104.29 41.5103 103.829C42.09 103.372 42.5301 102.873 42.8306 102.331C43.1353 101.789 43.2876 101.239 43.2876 100.681C43.2876 99.7539 42.7925 99.2905 41.8022 99.2905H38.6475V95.4312H39.8154V98.2114H41.9229C43.6198 98.2114 44.4683 98.9668 44.4683 100.478C44.4683 101.256 44.2821 102.003 43.9097 102.718C43.5373 103.433 43.0125 104.077 42.3354 104.648C41.5314 105.333 40.5623 105.879 39.4282 106.286V104.972ZM47.3691 98.2114V102.306H46.2012V98.2114H47.3691ZM52.4917 101.227V106H48.9307V104.921H51.3237V101.557C51.3237 100.871 51.2899 100.387 51.2222 100.103C51.1545 99.811 51.036 99.6037 50.8667 99.481C50.7017 99.354 50.4626 99.2905 50.1494 99.2905H49.2925V98.2114H50.1113C50.7884 98.2114 51.2835 98.3045 51.5967 98.4907C51.9098 98.6812 52.1362 98.9922 52.2759 99.4238C52.4198 99.8512 52.4917 100.452 52.4917 101.227Z" fill="white"/>
<g filter="url(#filter0_d_103_173)">
<rect x="6" y="7" width="65" height="65" rx="8" fill="#F1F0F0"/>
</g>
<rect x="6" y="7" width="62" height="62" rx="8" fill="white"/>
<path d="M44.7917 23.7917V32.0417C44.7917 32.5279 44.9848 32.9942 45.3286 33.3381C45.6725 33.6819 46.1388 33.875 46.625 33.875H54.875M44.7917 23.7917H20.9583C20.4721 23.7917 20.0058 23.9848 19.662 24.3287C19.3182 24.6725 19.125 25.1388 19.125 25.625V50.375C19.125 50.8613 19.3182 51.3276 19.662 51.6714C20.0058 52.0152 20.4721 52.2084 20.9583 52.2084H53.0417C53.5279 52.2084 53.9942 52.0152 54.338 51.6714C54.6818 51.3276 54.875 50.8613 54.875 50.375V33.875M44.7917 23.7917L54.875 33.875" stroke="#6929AC" stroke-width="1.2" stroke-linecap="round" stroke-linejoin="round"/>
<path d="M40.6575 43.5H33.3333L37 38L33.3425 32.5H40.6667" stroke="#6929AC" stroke-width="1.2" stroke-linecap="round" stroke-linejoin="round"/>
<defs>
<filter id="filter0_d_103_173" x="0" y="3" width="77" height="77" filterUnits="userSpaceOnUse" color-interpolation-filters="sRGB">
<feFlood flood-opacity="0" result="BackgroundImageFix"/>
<feColorMatrix in="SourceAlpha" type="matrix" values="0 0 0 0 0 0 0 0 0 0 0 0 0 0 0 0 0 0 127 0" result="hardAlpha"/>
<feOffset dy="2"/>
<feGaussianBlur stdDeviation="3"/>
<feComposite in2="hardAlpha" operator="out"/>
<feColorMatrix type="matrix" values="0 0 0 0 0 0 0 0 0 0 0 0 0 0 0 0 0 0 0.25 0"/>
<feBlend mode="normal" in2="BackgroundImageFix" result="effect1_dropShadow_103_173"/>
<feBlend mode="normal" in="SourceGraphic" in2="effect1_dropShadow_103_173" result="shape"/>
</filter>
</defs>
</svg>
