<svg width="77" height="114" viewBox="0 0 77 114" fill="none" xmlns="http://www.w3.org/2000/svg">
<path d="M17.1987 85.436V90H16.0244V85.4233C16.0244 84.6447 15.8657 84.0946 15.5483 83.7729C15.2352 83.4513 14.6914 83.2905 13.917 83.2905H10.959V82.2114H13.936C14.7147 82.2114 15.3431 82.3215 15.8213 82.5415C16.2995 82.7573 16.6486 83.1022 16.8687 83.5762C17.0887 84.0459 17.1987 84.6659 17.1987 85.436ZM12.2539 84.9409V90H11.0859V84.9409H12.2539ZM25.1777 89.2129C24.8857 89.4076 24.5218 89.5662 24.0859 89.689C23.6543 89.8117 23.1126 89.9027 22.4609 89.9619C21.8092 90.0212 21.0031 90.055 20.0425 90.0635L18.5571 82.2114H19.7695L20.5503 86.2168L21.0137 86.1279C21.2676 86.0687 21.4771 85.9925 21.6421 85.8994C21.8071 85.8021 21.9383 85.6667 22.0356 85.4932C22.116 85.3577 22.1774 85.1906 22.2197 84.9917C22.262 84.7928 22.2938 84.5558 22.3149 84.2808L22.4736 82.2114H23.6797L23.4829 84.2935C23.4533 84.6447 23.4173 84.9494 23.375 85.2075C23.3327 85.4614 23.2819 85.6667 23.2227 85.8232C23.1169 86.1406 22.9582 86.3861 22.7466 86.5596C22.535 86.7288 22.1838 86.8791 21.6929 87.0103L20.7407 87.2324L21.0518 88.8701H21.2041C22.0547 88.8701 22.736 88.8215 23.248 88.7241C23.7601 88.6226 24.1642 88.466 24.4604 88.2544C24.6593 88.1105 24.8265 87.9328 24.9619 87.7212C25.0973 87.5096 25.2116 87.2303 25.3047 86.8833C25.3978 86.5363 25.4761 86.0898 25.5396 85.5439L25.9395 82.2114H27.1646L26.7583 85.4995C26.6737 86.2358 26.5636 86.8431 26.4282 87.3213C26.2928 87.7952 26.1235 88.1803 25.9204 88.4766C25.7215 88.7686 25.474 89.014 25.1777 89.2129ZM30.002 82.2114V86.3057H28.834V82.2114H30.002ZM37.2192 86.2168C37.2192 88.7389 36.0259 90 33.6392 90H31.6143V88.9209H33.6646C34.4728 88.9209 35.0695 88.6966 35.4546 88.248C35.8397 87.7995 36.0322 87.1266 36.0322 86.2295V85.9819C36.0322 85.0806 35.8376 84.4077 35.4482 83.9634C35.0632 83.5148 34.4686 83.2905 33.6646 83.2905H31.6143V82.2114H33.6392C36.0259 82.2114 37.2192 83.4725 37.2192 85.9946V86.2168ZM43.4463 85.436V90H42.272V85.4233C42.272 84.6532 42.1154 84.1051 41.8022 83.7793C41.4933 83.4535 40.9495 83.2905 40.1709 83.2905H37.7905V82.2114H40.1836C40.9622 82.2114 41.5907 82.3215 42.0688 82.5415C42.547 82.7573 42.8962 83.1022 43.1162 83.5762C43.3363 84.0459 43.4463 84.6659 43.4463 85.436ZM49.3813 85.9185C49.3813 85.5757 49.4089 85.2308 49.4639 84.8838C49.5231 84.5326 49.5993 84.2152 49.6924 83.9316C49.7897 83.6481 49.8934 83.4344 50.0034 83.2905H48.8608V82.2114H53.0757C54.2437 82.2114 55.0815 82.4611 55.5894 82.9604C56.0972 83.4556 56.3511 84.2808 56.3511 85.436V85.9946C56.3511 87.3488 56.0464 88.3771 55.437 89.0796C54.8319 89.7778 53.9453 90.127 52.7773 90.127C51.6178 90.127 50.7609 89.8011 50.2065 89.1494C49.6564 88.4935 49.3813 87.4906 49.3813 86.1406V85.9185ZM51.0444 83.2905C50.7609 83.7899 50.6191 84.6489 50.6191 85.8677V86.2041C50.6191 87.1351 50.8053 87.8418 51.1777 88.3242C51.5544 88.8066 52.096 89.0479 52.8027 89.0479C53.611 89.0479 54.195 88.8088 54.5547 88.3306C54.9186 87.8524 55.1006 87.0695 55.1006 85.9819V85.4233C55.1006 84.6362 54.9504 84.084 54.6499 83.7666C54.3494 83.4492 53.8205 83.2905 53.063 83.2905H51.0444ZM62.0068 82.0845C63.0309 82.0845 63.7778 82.3976 64.2476 83.0239C64.7215 83.646 64.9585 84.6362 64.9585 85.9946V90H61.1372V88.9209H63.7778V86.1406C63.7778 85.1038 63.6445 84.3506 63.3779 83.8809C63.1113 83.4111 62.6585 83.1763 62.0195 83.1763C61.4482 83.1763 60.9785 83.4344 60.6104 83.9507C60.238 84.4754 59.8973 85.3874 59.5884 86.6865L58.7949 90H57.5381L58.4077 86.5913C58.505 86.1935 58.6045 85.8338 58.7061 85.5122C58.8076 85.1906 58.9071 84.9049 59.0044 84.6553L57.4175 82.2114H58.7949L59.5884 83.5C59.9185 83.0007 60.2718 82.641 60.6484 82.4209C61.0251 82.1966 61.4779 82.0845 62.0068 82.0845Z" fill="white"/>
<g filter="url(#filter0_d_141_484)">
<rect x="6" y="7" width="65" height="65" rx="8" fill="#F1F0F0"/>
</g>
<rect x="6" y="7" width="62" height="62" rx="8" fill="white"/>
<path d="M44.7917 23.7917V32.0417C44.7917 32.5279 44.9848 32.9942 45.3286 33.338C45.6725 33.6818 46.1388 33.875 46.625 33.875H54.875M44.7917 23.7917H20.9583C20.4721 23.7917 20.0058 23.9848 19.662 24.3286C19.3182 24.6724 19.125 25.1388 19.125 25.625V50.375C19.125 50.8612 19.3182 51.3275 19.662 51.6714C20.0058 52.0152 20.4721 52.2083 20.9583 52.2083H53.0417C53.5279 52.2083 53.9942 52.0152 54.338 51.6714C54.6818 51.3275 54.875 50.8612 54.875 50.375V33.875M44.7917 23.7917L54.875 33.875" stroke="#6929AC" stroke-width="1.2" stroke-linecap="round" stroke-linejoin="round"/>
<path d="M40.6575 43.5H33.3333L37 38L33.3425 32.5H40.6667" stroke="#6929AC" stroke-width="1.2" stroke-linecap="round" stroke-linejoin="round"/>
<defs>
<filter id="filter0_d_141_484" x="0" y="3" width="77" height="77" filterUnits="userSpaceOnUse" color-interpolation-filters="sRGB">
<feFlood flood-opacity="0" result="BackgroundImageFix"/>
<feColorMatrix in="SourceAlpha" type="matrix" values="0 0 0 0 0 0 0 0 0 0 0 0 0 0 0 0 0 0 127 0" result="hardAlpha"/>
<feOffset dy="2"/>
<feGaussianBlur stdDeviation="3"/>
<feComposite in2="hardAlpha" operator="out"/>
<feColorMatrix type="matrix" values="0 0 0 0 0 0 0 0 0 0 0 0 0 0 0 0 0 0 0.25 0"/>
<feBlend mode="normal" in2="BackgroundImageFix" result="effect1_dropShadow_141_484"/>
<feBlend mode="normal" in="SourceGraphic" in2="effect1_dropShadow_141_484" result="shape"/>
</filter>
</defs>
</svg>
