<svg width="77" height="114" viewBox="0 0 77 114" fill="none" xmlns="http://www.w3.org/2000/svg">
<path d="M23.4766 88.7939C23.3327 89.2214 23.1042 89.5303 22.791 89.7207C22.4779 89.9069 21.9849 90 21.312 90H21.2422V88.9209H21.3501C21.6421 88.9209 21.8748 88.8659 22.0483 88.7559C22.2176 88.6458 22.3382 88.4787 22.4102 88.2544C22.4821 88.0259 22.5181 87.681 22.5181 87.2197V83.2905H21.312V82.2114H25.5205C26.6885 82.2114 27.5264 82.4611 28.0342 82.9604C28.542 83.4556 28.7959 84.2808 28.7959 85.436V90H27.6279V85.4233C27.6279 84.6447 27.4692 84.0946 27.1519 83.7729C26.8387 83.4513 26.2907 83.2905 25.5078 83.2905H23.686V86.9849C23.686 87.7635 23.6162 88.3665 23.4766 88.7939ZM32.1157 82.2114V90H30.9478V82.2114H32.1157ZM35.4927 82.2114V86.3057H34.3247V82.2114H35.4927ZM38.7554 87.4419L38.2476 90H37.0161L37.5493 87.4673C37.7017 86.7394 37.8413 86.2274 37.9683 85.9312C38.0952 85.6307 38.2539 85.3874 38.4443 85.2012C38.639 85.015 38.8993 84.8563 39.2251 84.7251L37.3906 82.2114H38.8315L41.6943 86.1533C42.0117 85.8571 42.2635 85.4995 42.4497 85.0806C42.6401 84.6574 42.765 84.1729 42.8242 83.627L42.9702 82.2114H44.1763L44.0303 83.6016C43.9837 84.0671 43.8991 84.4754 43.7764 84.8267C43.6917 85.0679 43.5902 85.2985 43.4717 85.5186C43.3532 85.7344 43.2008 85.9587 43.0146 86.1914C42.8327 86.4242 42.5957 86.6844 42.3037 86.9722L44.5952 90H43.1099L39.7583 85.4487C39.4198 85.6138 39.1785 85.8994 39.0347 86.3057C38.9924 86.4115 38.9479 86.5596 38.9014 86.75C38.859 86.9404 38.8104 87.1711 38.7554 87.4419ZM50.6382 83.2905V90H49.4639V83.2905H45.0205V82.2114H51.6094V83.2905H50.6382ZM58.084 86.2168C58.084 88.7389 56.8906 90 54.5039 90H52.479V88.9209H54.5293C55.3376 88.9209 55.9342 88.6966 56.3193 88.248C56.7044 87.7995 56.897 87.1266 56.897 86.2295V85.9819C56.897 85.0806 56.7023 84.4077 56.313 83.9634C55.9279 83.5148 55.3333 83.2905 54.5293 83.2905H52.479V82.2114H54.5039C56.8906 82.2114 58.084 83.4725 58.084 85.9946V86.2168ZM26.2061 101.436V106H25.0317V101.423C25.0317 100.653 24.8752 100.105 24.562 99.7793C24.2531 99.4535 23.7093 99.2905 22.9307 99.2905H20.5503V98.2114H22.9434C23.722 98.2114 24.3504 98.3215 24.8286 98.5415C25.3068 98.7573 25.6559 99.1022 25.876 99.5762C26.096 100.046 26.2061 100.666 26.2061 101.436ZM29.5195 98.2114V106H28.3516V98.2114H29.5195ZM33.1567 101.696V106H31.9888V101.747C31.9888 101.299 32.0734 100.935 32.2427 100.655C32.4162 100.376 32.7082 100.169 33.1187 100.033L30.9478 99.3032V98.0972L34.6421 99.3413V100.554L33.9502 100.319C33.6921 100.458 33.5186 100.581 33.4297 100.687C33.2477 100.899 33.1567 101.235 33.1567 101.696ZM41.1675 101.423C41.1675 100.653 41.0109 100.105 40.6978 99.7793C40.3888 99.4535 39.8451 99.2905 39.0664 99.2905H37.0986V106H35.9307V98.2114H39.0791C40.2471 98.2114 41.0828 98.4611 41.5864 98.9604C42.09 99.4598 42.3418 100.285 42.3418 101.436V106H41.1675V101.423ZM45.3887 98.2114V102.306H44.2207V98.2114H45.3887ZM51.6982 98.0845C52.7223 98.0845 53.4692 98.3976 53.939 99.0239C54.4129 99.646 54.6499 100.636 54.6499 101.995V106H50.8286V104.921H53.4692V102.141C53.4692 101.104 53.3359 100.351 53.0693 99.8809C52.8027 99.4111 52.3499 99.1763 51.7109 99.1763C51.1396 99.1763 50.6699 99.4344 50.3018 99.9507C49.9294 100.475 49.5887 101.387 49.2798 102.687L48.4863 106H47.2295L48.0991 102.591C48.1965 102.194 48.2959 101.834 48.3975 101.512C48.499 101.191 48.5985 100.905 48.6958 100.655L47.1089 98.2114H48.4863L49.2798 99.5C49.6099 99.0007 49.9632 98.641 50.3398 98.4209C50.7165 98.1966 51.1693 98.0845 51.6982 98.0845Z" fill="white"/>
<g filter="url(#filter0_d_103_172)">
<rect x="6" y="7" width="65" height="65" rx="8" fill="#F1F0F0"/>
</g>
<rect x="6" y="7" width="62" height="62" rx="8" fill="white"/>
<path d="M51.8604 40.5029C52.6908 39.9968 53.7513 40.2104 54.332 40.9766L54.4414 41.1377L54.4424 41.1387L56.3477 44.2393V44.2402C57.0236 45.3434 57.3842 46.6088 57.3994 47.9131V47.9141C57.4211 51.805 54.322 54.96 50.5166 54.96L42.9961 54.9531H42.3955V58.0928C42.3955 58.5617 42.1541 58.9844 41.7773 59.2148L41.6074 59.3008C41.1894 59.4753 40.7212 59.4156 40.3652 59.1484L40.2207 59.0215L35.2217 53.9424C34.7476 53.4607 34.7201 52.7007 35.1309 52.1934L35.2188 52.0957L35.2217 52.0938L40.2207 47.0146C40.5412 46.6892 40.9968 46.5659 41.4258 46.6738L41.6074 46.7344C42.0796 46.9316 42.3953 47.4067 42.3955 47.9424V51.082H50.5088C52.1721 51.082 53.5163 49.7468 53.5898 48.0996L53.5928 47.9395C53.5922 47.4322 53.4661 46.9353 53.2354 46.4922L53.1299 46.3047V46.3037L51.2236 43.2002L51.126 43.0234C50.7205 42.1841 50.9642 41.1697 51.6953 40.6152L51.8594 40.5039L51.8604 40.5029ZM28.248 31.4424C28.8789 31.2723 29.5374 31.6186 29.7676 32.2383L29.8076 32.3652V32.3662L31.6357 39.2949C31.753 39.7448 31.6277 40.215 31.3164 40.5459L31.1719 40.6787C30.8191 40.958 30.3539 41.0196 29.9443 40.8535L29.7725 40.7686L29.7705 40.7666L27.7002 39.5527L27.1934 39.2559L26.8857 39.7559L22.8633 46.2949L22.8623 46.2969C22.5646 46.7847 22.4 47.3517 22.3994 47.9316C22.3899 49.6514 23.7666 51.0742 25.4834 51.0742H27.998C29.0402 51.0742 29.8973 51.9315 29.8975 53.0137C29.8975 54.096 29.0403 54.9531 27.998 54.9531H25.4834C21.7965 54.9531 18.773 51.9986 18.6074 48.2695L18.6006 47.9062C18.6074 46.6842 18.9237 45.4962 19.5264 44.4434L19.6504 44.2354L19.6514 44.2334L23.5801 37.8447L23.9014 37.3232L23.373 37.0137L21.1162 35.6875H21.1152C20.666 35.4198 20.416 34.9081 20.4854 34.3877C20.5471 33.9252 20.8391 33.5423 21.2422 33.3643L21.4219 33.3008H21.4229L28.249 31.4434L28.248 31.4424ZM37.9961 20.5996C40.2151 20.5996 42.2988 21.6891 43.5879 23.5176L43.835 23.8926L43.8359 23.8936L46.8506 28.79L47.1582 29.291L47.665 28.9932L49.7744 27.7549L49.7764 27.7539C50.2182 27.492 50.7711 27.5276 51.1797 27.8457C51.5888 28.1642 51.7746 28.7104 51.6396 29.2275L49.8115 36.1641V36.165C49.6287 36.8636 48.9246 37.2675 48.252 37.0859H48.251L41.4268 35.2295H41.4258C40.9932 35.1126 40.6544 34.7724 40.5293 34.335L40.4893 34.1426C40.4281 33.6834 40.6152 33.2306 40.96 32.9521L41.1172 32.8438L41.1191 32.8418L43.3379 31.541L43.8662 31.2305L43.5449 30.708L40.6162 25.9551H40.6152C40.0551 25.0432 39.0676 24.4795 37.9961 24.4795C36.9911 24.4795 36.0593 24.9751 35.4854 25.7891L35.376 25.9551L34.0088 28.1768V28.1787C33.461 29.074 32.3126 29.3525 31.4268 28.8125H31.4277C30.5742 28.2911 30.2604 27.1897 30.6934 26.292L30.79 26.1152L32.1572 23.8936V23.8926C33.4161 21.8388 35.6292 20.5996 37.9961 20.5996Z" stroke="#6929AC" stroke-width="1.2"/>
<defs>
<filter id="filter0_d_103_172" x="0" y="3" width="77" height="77" filterUnits="userSpaceOnUse" color-interpolation-filters="sRGB">
<feFlood flood-opacity="0" result="BackgroundImageFix"/>
<feColorMatrix in="SourceAlpha" type="matrix" values="0 0 0 0 0 0 0 0 0 0 0 0 0 0 0 0 0 0 127 0" result="hardAlpha"/>
<feOffset dy="2"/>
<feGaussianBlur stdDeviation="3"/>
<feComposite in2="hardAlpha" operator="out"/>
<feColorMatrix type="matrix" values="0 0 0 0 0 0 0 0 0 0 0 0 0 0 0 0 0 0 0.25 0"/>
<feBlend mode="normal" in2="BackgroundImageFix" result="effect1_dropShadow_103_172"/>
<feBlend mode="normal" in="SourceGraphic" in2="effect1_dropShadow_103_172" result="shape"/>
</filter>
</defs>
</svg>
