<svg width="77" height="114" viewBox="0 0 77 114" fill="none" xmlns="http://www.w3.org/2000/svg">
<path d="M30.1099 85.9185C30.1099 85.5757 30.1374 85.2308 30.1924 84.8838C30.2516 84.5326 30.3278 84.2152 30.4209 83.9316C30.5182 83.6481 30.6219 83.4344 30.7319 83.2905H29.5894V82.2114H33.8042C34.9722 82.2114 35.8101 82.4611 36.3179 82.9604C36.8257 83.4556 37.0796 84.2808 37.0796 85.436V85.9946C37.0796 87.3488 36.7749 88.3771 36.1655 89.0796C35.5604 89.7778 34.6738 90.127 33.5059 90.127C32.3464 90.127 31.4894 89.8011 30.9351 89.1494C30.3849 88.4935 30.1099 87.4906 30.1099 86.1406V85.9185ZM31.7729 83.2905C31.4894 83.7899 31.3477 84.6489 31.3477 85.8677V86.2041C31.3477 87.1351 31.5339 87.8418 31.9062 88.3242C32.2829 88.8066 32.8245 89.0479 33.5312 89.0479C34.3395 89.0479 34.9235 88.8088 35.2832 88.3306C35.6471 87.8524 35.8291 87.0695 35.8291 85.9819V85.4233C35.8291 84.6362 35.6789 84.084 35.3784 83.7666C35.078 83.4492 34.549 83.2905 33.7915 83.2905H31.7729ZM42.7354 82.0845C43.7594 82.0845 44.5063 82.3976 44.9761 83.0239C45.45 83.646 45.687 84.6362 45.687 85.9946V90H41.8657V88.9209H44.5063V86.1406C44.5063 85.1038 44.373 84.3506 44.1064 83.8809C43.8398 83.4111 43.387 83.1763 42.748 83.1763C42.1768 83.1763 41.707 83.4344 41.3389 83.9507C40.9665 84.4754 40.6258 85.3874 40.3169 86.6865L39.5234 90H38.2666L39.1362 86.5913C39.2336 86.1935 39.333 85.8338 39.4346 85.5122C39.5361 85.1906 39.6356 84.9049 39.7329 84.6553L38.146 82.2114H39.5234L40.3169 83.5C40.647 83.0007 41.0003 82.641 41.377 82.4209C41.7536 82.1966 42.2064 82.0845 42.7354 82.0845ZM27.7612 101.436V106H26.5869V101.423C26.5869 100.645 26.4282 100.095 26.1108 99.7729C25.7977 99.4513 25.2539 99.2905 24.4795 99.2905H21.5215V98.2114H24.4985C25.2772 98.2114 25.9056 98.3215 26.3838 98.5415C26.862 98.7573 27.2111 99.1022 27.4312 99.5762C27.6512 100.046 27.7612 100.666 27.7612 101.436ZM22.8164 100.941V106H21.6484V100.941H22.8164ZM35.7402 105.213C35.4482 105.408 35.0843 105.566 34.6484 105.689C34.2168 105.812 33.6751 105.903 33.0234 105.962C32.3717 106.021 31.5656 106.055 30.605 106.063L29.1196 98.2114H30.332L31.1128 102.217L31.5762 102.128C31.8301 102.069 32.0396 101.993 32.2046 101.899C32.3696 101.802 32.5008 101.667 32.5981 101.493C32.6785 101.358 32.7399 101.191 32.7822 100.992C32.8245 100.793 32.8563 100.556 32.8774 100.281L33.0361 98.2114H34.2422L34.0454 100.293C34.0158 100.645 33.9798 100.949 33.9375 101.208C33.8952 101.461 33.8444 101.667 33.7852 101.823C33.6794 102.141 33.5207 102.386 33.3091 102.56C33.0975 102.729 32.7463 102.879 32.2554 103.01L31.3032 103.232L31.6143 104.87H31.7666C32.6172 104.87 33.2985 104.821 33.8105 104.724C34.3226 104.623 34.7267 104.466 35.0229 104.254C35.2218 104.111 35.389 103.933 35.5244 103.721C35.6598 103.51 35.7741 103.23 35.8672 102.883C35.9603 102.536 36.0386 102.09 36.1021 101.544L36.502 98.2114H37.7271L37.3208 101.5C37.2362 102.236 37.1261 102.843 36.9907 103.321C36.8553 103.795 36.686 104.18 36.4829 104.477C36.284 104.769 36.0365 105.014 35.7402 105.213ZM40.5645 98.2114V102.306H39.3965V98.2114H40.5645ZM47.7817 102.217C47.7817 104.739 46.5884 106 44.2017 106H42.1768V104.921H44.2271C45.0353 104.921 45.632 104.697 46.0171 104.248C46.4022 103.799 46.5947 103.127 46.5947 102.229V101.982C46.5947 101.081 46.4001 100.408 46.0107 99.9634C45.6257 99.5148 45.0311 99.2905 44.2271 99.2905H42.1768V98.2114H44.2017C46.5884 98.2114 47.7817 99.4725 47.7817 101.995V102.217ZM54.0088 101.436V106H52.8345V101.423C52.8345 100.653 52.6779 100.105 52.3647 99.7793C52.0558 99.4535 51.512 99.2905 50.7334 99.2905H48.353V98.2114H50.7461C51.5247 98.2114 52.1532 98.3215 52.6313 98.5415C53.1095 98.7573 53.4587 99.1022 53.6787 99.5762C53.8988 100.046 54.0088 100.666 54.0088 101.436Z" fill="white"/>
<g filter="url(#filter0_d_141_484)">
<rect x="6" y="7" width="65" height="65" rx="8" fill="#F1F0F0"/>
</g>
<rect x="6" y="7" width="62" height="62" rx="8" fill="white"/>
<path d="M44.7917 23.7917V32.0417C44.7917 32.5279 44.9848 32.9942 45.3286 33.338C45.6725 33.6818 46.1388 33.875 46.625 33.875H54.875M44.7917 23.7917H20.9583C20.4721 23.7917 20.0058 23.9848 19.662 24.3286C19.3182 24.6724 19.125 25.1388 19.125 25.625V50.375C19.125 50.8612 19.3182 51.3275 19.662 51.6714C20.0058 52.0152 20.4721 52.2083 20.9583 52.2083H53.0417C53.5279 52.2083 53.9942 52.0152 54.338 51.6714C54.6818 51.3275 54.875 50.8612 54.875 50.375V33.875M44.7917 23.7917L54.875 33.875" stroke="#6929AC" stroke-width="1.2" stroke-linecap="round" stroke-linejoin="round"/>
<path d="M40.6575 43.5H33.3333L37 38L33.3425 32.5H40.6667" stroke="#6929AC" stroke-width="1.2" stroke-linecap="round" stroke-linejoin="round"/>
<defs>
<filter id="filter0_d_141_484" x="0" y="3" width="77" height="77" filterUnits="userSpaceOnUse" color-interpolation-filters="sRGB">
<feFlood flood-opacity="0" result="BackgroundImageFix"/>
<feColorMatrix in="SourceAlpha" type="matrix" values="0 0 0 0 0 0 0 0 0 0 0 0 0 0 0 0 0 0 127 0" result="hardAlpha"/>
<feOffset dy="2"/>
<feGaussianBlur stdDeviation="3"/>
<feComposite in2="hardAlpha" operator="out"/>
<feColorMatrix type="matrix" values="0 0 0 0 0 0 0 0 0 0 0 0 0 0 0 0 0 0 0.25 0"/>
<feBlend mode="normal" in2="BackgroundImageFix" result="effect1_dropShadow_141_484"/>
<feBlend mode="normal" in="SourceGraphic" in2="effect1_dropShadow_141_484" result="shape"/>
</filter>
</defs>
</svg>
