<?xml version="1.0" encoding="UTF-8"?>
<!DOCTYPE svg PUBLIC "-//W3C//DTD SVG 1.1//EN" "http://www.w3.org/Graphics/SVG/1.1/DTD/svg11.dtd">
<svg xmlns="http://www.w3.org/2000/svg" version="1.1" width="758px" height="329px" style="shape-rendering:geometricPrecision; text-rendering:geometricPrecision; image-rendering:optimizeQuality; fill-rule:evenodd; clip-rule:evenodd" xmlns:xlink="http://www.w3.org/1999/xlink">
<g><path style="opacity:1" fill="#4a4f52" d="M 423.5,-0.5 C 426.167,-0.5 428.833,-0.5 431.5,-0.5C 439.36,2.02729 444.027,7.36062 445.5,15.5C 445.167,39.5093 445.5,63.5093 446.5,87.5C 447.107,87.3764 447.44,87.0431 447.5,86.5C 480.144,72.1148 508.644,78.1148 533,104.5C 540.891,114.488 545.891,125.821 548,138.5C 548.667,165.167 548.667,191.833 548,218.5C 543.164,230.167 534.664,234.167 522.5,230.5C 522.027,229.094 521.027,228.427 519.5,228.5C 514.426,225.378 511.592,220.711 511,214.5C 510.667,190.167 510.333,165.833 510,141.5C 501.708,119.107 486.208,111.941 463.5,120C 460.621,122.385 457.621,124.552 454.5,126.5C 453.504,126.586 452.671,126.252 452,125.5C 451.383,126.449 451.549,127.282 452.5,128C 451.167,128.667 449.833,129.333 448.5,130C 449.38,131.356 449.714,132.856 449.5,134.5C 448.97,136.924 448.136,139.257 447,141.5C 446.964,167.882 446.298,194.216 445,220.5C 440.061,230.157 432.228,233.657 421.5,231C 414.133,228.44 409.966,223.274 409,215.5C 408.333,148.833 408.333,82.1667 409,15.5C 410.91,7.42698 415.744,2.09364 423.5,-0.5 Z"/></g>
<g><path style="opacity:0.184" fill="#d8d9de" d="M 445.5,15.5 C 446.167,39.1667 446.833,62.8333 447.5,86.5C 447.44,87.0431 447.107,87.3764 446.5,87.5C 445.5,63.5093 445.167,39.5093 445.5,15.5 Z"/></g>
<g><path style="opacity:0.984" fill="#cb99d6" d="M 736.5,23.5 C 736.167,23.5 735.833,23.5 735.5,23.5C 730.012,23.2479 724.678,23.9145 719.5,25.5C 720.842,24.207 722.509,23.3736 724.5,23C 728.689,22.1881 732.689,22.3547 736.5,23.5 Z"/></g>
<g><path style="opacity:1" fill="#a968c8" d="M 735.5,23.5 C 735.833,23.5 736.167,23.5 736.5,23.5C 740.933,24.2145 744.6,26.2145 747.5,29.5C 743.954,28.0407 740.288,26.874 736.5,26C 735.748,25.3292 735.414,24.4959 735.5,23.5 Z"/></g>
<g><path style="opacity:0.906" fill="#b07ecb" d="M 719.5,25.5 C 718.514,27.4077 716.848,28.4077 714.5,28.5C 715.659,26.7497 717.326,25.7497 719.5,25.5 Z"/></g>
<g><path style="opacity:1" fill="#9934ca" d="M 735.5,23.5 C 735.414,24.4959 735.748,25.3292 736.5,26C 740.288,26.874 743.954,28.0407 747.5,29.5C 747.833,29.5 748.167,29.5 748.5,29.5C 747.997,33.4238 749.664,35.7572 753.5,36.5C 755.605,44.4268 755.938,52.4268 754.5,60.5C 751.687,61.4461 750.354,63.4461 750.5,66.5C 749.5,66.5 748.5,66.5 747.5,66.5C 747.5,67.5 747.5,68.5 747.5,69.5C 743.17,70.9368 739.17,72.9368 735.5,75.5C 732.167,76.8333 728.833,76.8333 725.5,75.5C 721.626,72.733 717.293,70.733 712.5,69.5C 712.512,66.858 711.179,65.5246 708.5,65.5C 708.5,65.1667 708.5,64.8333 708.5,64.5C 707.587,62.9139 707.587,61.4139 708.5,60C 707.473,59.4867 706.473,58.9867 705.5,58.5C 704.596,57.791 704.263,56.791 704.5,55.5C 704.413,50.4635 704.746,45.4635 705.5,40.5C 705.992,38.1815 706.992,36.1815 708.5,34.5C 710.833,32.8333 712.833,30.8333 714.5,28.5C 716.848,28.4077 718.514,27.4077 719.5,25.5C 724.678,23.9145 730.012,23.2479 735.5,23.5 Z"/></g>
<g><path style="opacity:0.753" fill="#cca0df" d="M 714.5,28.5 C 712.833,30.8333 710.833,32.8333 708.5,34.5C 709.5,31.5 711.5,29.5 714.5,28.5 Z"/></g>
<g><path style="opacity:1" fill="#ac66c7" d="M 748.5,29.5 C 750.547,31.5496 752.214,33.883 753.5,36.5C 749.664,35.7572 747.997,33.4238 748.5,29.5 Z"/></g>
<g><path style="opacity:0.998" fill="#b274c9" d="M 753.5,36.5 C 755.381,38.9296 756.715,41.5962 757.5,44.5C 757.5,48.1667 757.5,51.8333 757.5,55.5C 756.687,57.2608 755.687,58.9275 754.5,60.5C 755.938,52.4268 755.605,44.4268 753.5,36.5 Z"/></g>
<g><path style="opacity:0.665" fill="#cf98e6" d="M 705.5,40.5 C 704.746,45.4635 704.413,50.4635 704.5,55.5C 703.838,53.6965 703.505,51.6965 703.5,49.5C 703.343,46.1864 704.009,43.1864 705.5,40.5 Z"/></g>
<g><path style="opacity:1" fill="#4a4f52" d="M 183.5,51.5 C 184.848,52.1859 186.015,53.1859 187,54.5C 188.011,53.6634 189.178,53.33 190.5,53.5C 218.663,61.8353 235.497,80.502 241,109.5C 241.667,136.5 241.667,163.5 241,190.5C 236.802,200.517 229.302,204.684 218.5,203C 209.696,200.524 204.863,194.691 204,185.5C 203.963,159.784 203.297,134.118 202,108.5C 193.323,91.151 179.49,84.9844 160.5,90C 149.744,94.422 142.911,102.255 140,113.5C 139.824,139.239 139.324,164.906 138.5,190.5C 136.058,190.354 135.391,191.187 136.5,193C 135.23,193.9 134.23,195.066 133.5,196.5C 132.742,195.189 131.742,194.689 130.5,195C 131.552,196.716 130.886,197.716 128.5,198C 129.684,199.145 129.684,200.312 128.5,201.5C 124.05,203.676 119.383,204.01 114.5,202.5C 114.027,201.094 113.027,200.427 111.5,200.5C 105.935,198.079 102.768,193.745 102,187.5C 101.5,162.169 101.333,136.836 101.5,111.5C 100.982,108.113 100.149,104.779 99,101.5C 98.7216,102.416 98.2216,103.082 97.5,103.5C 84.0975,86.8063 68.0975,83.973 49.5,95C 43.2275,100.043 39.3942,106.543 38,114.5C 37.9637,140.549 37.297,166.549 36,192.5C 28.9184,203.969 19.4184,206.469 7.5,200C 3.68926,196.85 1.0226,193.017 -0.5,188.5C -0.5,163.5 -0.5,138.5 -0.5,113.5C 0.166667,111.167 0.833333,108.833 1.5,106.5C 2.92381,104.485 3.59047,102.152 3.5,99.5C 5.75472,90.3205 10.0881,82.3205 16.5,75.5C 17.8333,74.8333 18.8333,73.8333 19.5,72.5C 30.2467,60.1231 43.9134,52.9565 60.5,51C 84.1231,48.6508 104.29,55.8175 121,72.5C 138.175,54.8302 159.009,47.8302 183.5,51.5 Z"/></g>
<g><path style="opacity:1" fill="#9ca0a1" d="M 183.5,51.5 C 186.152,51.4095 188.485,52.0762 190.5,53.5C 189.178,53.33 188.011,53.6634 187,54.5C 186.015,53.1859 184.848,52.1859 183.5,51.5 Z"/></g>
<g><path style="opacity:1" fill="#b981cf" d="M 705.5,58.5 C 706.473,58.9867 707.473,59.4867 708.5,60C 707.587,61.4139 707.587,62.9139 708.5,64.5C 706.461,63.089 705.461,61.089 705.5,58.5 Z"/></g>
<g><path style="opacity:1" fill="#ab73c7" d="M 708.5,65.5 C 711.179,65.5246 712.512,66.858 712.5,69.5C 710.833,68.5 709.5,67.1667 708.5,65.5 Z"/></g>
<g><path style="opacity:1" fill="#b176c8" d="M 754.5,60.5 C 753.872,63.09 752.705,65.4234 751,67.5C 750.184,68.8228 749.017,69.4894 747.5,69.5C 747.5,68.5 747.5,67.5 747.5,66.5C 748.5,66.5 749.5,66.5 750.5,66.5C 750.354,63.4461 751.687,61.4461 754.5,60.5 Z"/></g>
<g><path style="opacity:1" fill="#a767c5" d="M 712.5,69.5 C 717.293,70.733 721.626,72.733 725.5,75.5C 720.222,75.3585 715.888,73.3585 712.5,69.5 Z"/></g>
<g><path style="opacity:1" fill="#a76dc4" d="M 747.5,69.5 C 744.35,73.0751 740.35,75.0751 735.5,75.5C 739.17,72.9368 743.17,70.9368 747.5,69.5 Z"/></g>
<g><path style="opacity:0.482" fill="#b9bcbe" d="M 19.5,72.5 C 18.8333,73.8333 17.8333,74.8333 16.5,75.5C 16.5,73.5 17.5,72.5 19.5,72.5 Z"/></g>
<g><path style="opacity:1" fill="#494e51" d="M 664.5,88.5 C 665.344,90.7593 667.011,91.7593 669.5,91.5C 684.199,101.396 693.699,115.062 698,132.5C 699.617,161.465 699.95,190.465 699,219.5C 692.734,231.734 683.234,234.9 670.5,229C 667.882,226.894 665.882,224.394 664.5,221.5C 665.014,219.488 665.18,217.488 665,215.5C 664.667,216.167 664.333,216.833 664,217.5C 663.832,192.997 663.332,168.663 662.5,144.5C 659.061,129.894 650.061,120.727 635.5,117C 615.201,115.564 602.701,124.73 598,144.5C 597.973,170.229 597.306,195.896 596,221.5C 589.595,231.453 580.762,234.286 569.5,230C 563.871,226.365 560.705,221.199 560,214.5C 559.333,191.833 559.333,169.167 560,146.5C 560.676,129.612 566.509,114.945 577.5,102.5C 580.167,101.833 581.833,100.167 582.5,97.5C 601.196,80.9087 622.863,75.4087 647.5,81C 653.726,82.4554 659.392,84.9554 664.5,88.5 Z"/></g>
<g><path style="opacity:1" fill="#949697" d="M 664.5,88.5 C 666.674,88.7497 668.341,89.7497 669.5,91.5C 667.011,91.7593 665.344,90.7593 664.5,88.5 Z"/></g>
<g><path style="opacity:0.999" fill="#4c5053" d="M 750.5,220.5 C 749.504,220.586 748.671,220.252 748,219.5C 747.183,221.918 745.683,224.252 743.5,226.5C 742.914,226.291 742.414,225.957 742,225.5C 741.648,227.247 741.148,228.914 740.5,230.5C 727.819,234.224 719.319,229.891 715,217.5C 714.333,179.5 714.333,141.5 715,103.5C 719.608,91.4461 728.108,87.2794 740.5,91C 746.94,93.773 750.774,98.6063 752,105.5C 752.667,142.167 752.667,178.833 752,215.5C 751.802,217.382 751.302,219.048 750.5,220.5 Z"/></g>
<g><path style="opacity:0.78" fill="#a7a9aa" d="M 582.5,97.5 C 581.833,100.167 580.167,101.833 577.5,102.5C 578.833,100.5 580.5,98.8333 582.5,97.5 Z"/></g>
<g><path style="opacity:0.898" fill="#929697" d="M 3.5,99.5 C 3.59047,102.152 2.92381,104.485 1.5,106.5C 1.40953,103.848 2.07619,101.515 3.5,99.5 Z"/></g>
<g><path style="opacity:0.998" fill="#7f8283" d="M 101.5,111.5 C 99.659,109.151 98.3257,106.485 97.5,103.5C 98.2216,103.082 98.7216,102.416 99,101.5C 100.149,104.779 100.982,108.113 101.5,111.5 Z"/></g>
<g><path style="opacity:1" fill="#4a4f51" d="M 358.5,115.5 C 360.39,115.703 361.89,115.037 363,113.5C 363.914,114.654 364.747,114.487 365.5,113C 364.833,112.667 364.167,112.333 363.5,112C 365.644,110.854 367.477,109.354 369,107.5C 372.776,106.606 376.61,106.272 380.5,106.5C 386.719,108.217 390.886,112.217 393,118.5C 393.667,145.167 393.667,171.833 393,198.5C 386.515,229.33 368.015,248.497 337.5,256C 326.569,258.251 315.903,257.751 305.5,254.5C 303.485,253.076 301.152,252.41 298.5,252.5C 281.68,246.012 269.346,234.678 261.5,218.5C 261.913,215.68 260.913,213.68 258.5,212.5C 256.434,206.681 254.934,200.681 254,194.5C 253.333,169.833 253.333,145.167 254,120.5C 259.82,105.666 269.987,101.833 284.5,109C 287.491,111.99 289.657,115.49 291,119.5C 291.036,145.549 291.703,171.549 293,197.5C 301.135,215.772 314.969,222.605 334.5,218C 346.899,212.934 354.065,203.767 356,190.5C 356.333,166.167 356.667,141.833 357,117.5C 357.278,116.584 357.778,115.918 358.5,115.5 Z"/></g>
<g><path style="opacity:0.996" fill="#6d7071" d="M 380.5,106.5 C 376.61,106.272 372.776,106.606 369,107.5C 367.477,109.354 365.644,110.854 363.5,112C 364.167,112.333 364.833,112.667 365.5,113C 364.747,114.487 363.914,114.654 363,113.5C 361.89,115.037 360.39,115.703 358.5,115.5C 363.45,106.629 370.783,103.629 380.5,106.5 Z"/></g>
<g><path style="opacity:0.983" fill="#808486" d="M 454.5,126.5 C 452.83,129.175 451.164,131.841 449.5,134.5C 449.714,132.856 449.38,131.356 448.5,130C 449.833,129.333 451.167,128.667 452.5,128C 451.549,127.282 451.383,126.449 452,125.5C 452.671,126.252 453.504,126.586 454.5,126.5 Z"/></g>
<g><path style="opacity:0.608" fill="#8d8e90" d="M 662.5,144.5 C 663.332,168.663 663.832,192.997 664,217.5C 664.333,216.833 664.667,216.167 665,215.5C 665.18,217.488 665.014,219.488 664.5,221.5C 663.732,220.737 663.232,219.737 663,218.5C 662.5,193.836 662.333,169.169 662.5,144.5 Z"/></g>
<g><path style="opacity:1" fill="#737677" d="M 138.5,190.5 C 137.239,196.093 133.906,199.759 128.5,201.5C 129.684,200.312 129.684,199.145 128.5,198C 130.886,197.716 131.552,196.716 130.5,195C 131.742,194.689 132.742,195.189 133.5,196.5C 134.23,195.066 135.23,193.9 136.5,193C 135.391,191.187 136.058,190.354 138.5,190.5 Z"/></g>
<g><path style="opacity:0.294" fill="#bec1c2" d="M 111.5,200.5 C 113.027,200.427 114.027,201.094 114.5,202.5C 112.973,202.573 111.973,201.906 111.5,200.5 Z"/></g>
<g><path style="opacity:1" fill="#939696" d="M 258.5,212.5 C 260.913,213.68 261.913,215.68 261.5,218.5C 259.992,216.819 258.992,214.819 258.5,212.5 Z"/></g>
<g><path style="opacity:1" fill="#757979" d="M 750.5,220.5 C 748.833,225.5 745.5,228.833 740.5,230.5C 741.148,228.914 741.648,227.247 742,225.5C 742.414,225.957 742.914,226.291 743.5,226.5C 745.683,224.252 747.183,221.918 748,219.5C 748.671,220.252 749.504,220.586 750.5,220.5 Z"/></g>
<g><path style="opacity:0.713" fill="#ba7cd2" d="M 151.5,229.5 C 151.5,229.833 151.5,230.167 151.5,230.5C 148.873,229.895 146.207,229.395 143.5,229C 125.833,228.333 108.167,228.333 90.5,229C 87.1498,230.61 83.8164,232.11 80.5,233.5C 84.6591,229.174 89.8257,226.841 96,226.5C 113.479,227.3 130.979,227.8 148.5,228C 149.527,228.513 150.527,229.013 151.5,229.5 Z"/></g>
<g><path style="opacity:1" fill="#9933ca" d="M 151.5,230.5 C 152.391,231.11 153.391,231.443 154.5,231.5C 155.15,233.435 155.483,235.435 155.5,237.5C 156.833,237.5 158.167,237.5 159.5,237.5C 161.076,243.636 160.743,249.636 158.5,255.5C 157.5,255.5 156.5,255.5 155.5,255.5C 155.5,256.833 155.5,258.167 155.5,259.5C 152.446,259.354 150.446,260.687 149.5,263.5C 149.158,264.338 148.492,264.672 147.5,264.5C 143.833,264.5 140.167,264.5 136.5,264.5C 135.916,269.534 134.916,274.534 133.5,279.5C 132.178,279.67 131.011,279.337 130,278.5C 129.506,280.134 129.34,281.801 129.5,283.5C 128.022,283.238 126.689,283.571 125.5,284.5C 125.709,285.086 126.043,285.586 126.5,286C 121.177,286.499 115.844,286.666 110.5,286.5C 109.395,285.4 108.062,284.733 106.5,284.5C 105.167,283.833 104.167,282.833 103.5,281.5C 102.782,275.989 101.782,270.656 100.5,265.5C 100.5,264.833 100.167,264.5 99.5,264.5C 93.3166,263.725 87.3166,262.059 81.5,259.5C 80.5,259.167 79.8333,258.5 79.5,257.5C 78.7991,253.363 77.7991,249.363 76.5,245.5C 77.1205,241.244 78.4538,237.244 80.5,233.5C 83.8164,232.11 87.1498,230.61 90.5,229C 108.167,228.333 125.833,228.333 143.5,229C 146.207,229.395 148.873,229.895 151.5,230.5 Z"/></g>
<g><path style="opacity:0.314" fill="#c3c3c5" d="M 519.5,228.5 C 521.027,228.427 522.027,229.094 522.5,230.5C 520.973,230.573 519.973,229.906 519.5,228.5 Z"/></g>
<g><path style="opacity:0.094" fill="#e9cbf5" d="M 151.5,230.5 C 151.5,230.167 151.5,229.833 151.5,229.5C 153.027,229.427 154.027,230.094 154.5,231.5C 153.391,231.443 152.391,231.11 151.5,230.5 Z"/></g>
<g><path style="opacity:1" fill="#a35dc2" d="M 154.5,231.5 C 157.107,232.712 158.774,234.712 159.5,237.5C 158.167,237.5 156.833,237.5 155.5,237.5C 155.483,235.435 155.15,233.435 154.5,231.5 Z"/></g>
<g><path style="opacity:0.696" fill="#bc88d5" d="M 80.5,233.5 C 78.4538,237.244 77.1205,241.244 76.5,245.5C 77.7991,249.363 78.7991,253.363 79.5,257.5C 73.1712,249.382 73.5046,241.382 80.5,233.5 Z"/></g>
<g><path style="opacity:0.882" fill="#9b9ea0" d="M 298.5,252.5 C 301.152,252.41 303.485,253.076 305.5,254.5C 302.848,254.59 300.515,253.924 298.5,252.5 Z"/></g>
<g><path style="opacity:1" fill="#b67ecf" d="M 159.5,237.5 C 163.651,245.477 162.651,252.977 156.5,260C 154.423,261.705 152.09,262.872 149.5,263.5C 150.446,260.687 152.446,259.354 155.5,259.5C 155.5,258.167 155.5,256.833 155.5,255.5C 156.5,255.5 157.5,255.5 158.5,255.5C 160.743,249.636 161.076,243.636 159.5,237.5 Z"/></g>
<g><path style="opacity:1" fill="#9e5fbc" d="M 81.5,259.5 C 87.3166,262.059 93.3166,263.725 99.5,264.5C 96.8333,264.5 94.1667,264.5 91.5,264.5C 87.3159,264.408 83.9826,262.741 81.5,259.5 Z"/></g>
<g><path style="opacity:0.459" fill="#ecc7f9" d="M 136.5,264.5 C 140.167,264.5 143.833,264.5 147.5,264.5C 144.375,265.479 141.042,265.813 137.5,265.5C 137.815,269.371 137.482,273.038 136.5,276.5C 136.5,272.5 136.5,268.5 136.5,264.5 Z"/></g>
<g><path style="opacity:0.278" fill="#f6d1fd" d="M 91.5,264.5 C 94.1667,264.5 96.8333,264.5 99.5,264.5C 100.167,264.5 100.5,264.833 100.5,265.5C 100.5,268.5 100.5,271.5 100.5,274.5C 99.5233,271.713 99.19,268.713 99.5,265.5C 96.6146,265.806 93.9479,265.473 91.5,264.5 Z"/></g>
<g><path style="opacity:1" fill="#a868c4" d="M 100.5,265.5 C 101.782,270.656 102.782,275.989 103.5,281.5C 101.707,279.574 100.707,277.241 100.5,274.5C 100.5,271.5 100.5,268.5 100.5,265.5 Z"/></g>
<g><path style="opacity:1" fill="#a153c3" d="M 136.5,264.5 C 136.5,268.5 136.5,272.5 136.5,276.5C 134.719,283.281 130.386,287.281 123.5,288.5C 119.131,288.533 114.798,288.2 110.5,287.5C 110.5,287.167 110.5,286.833 110.5,286.5C 115.844,286.666 121.177,286.499 126.5,286C 126.043,285.586 125.709,285.086 125.5,284.5C 126.689,283.571 128.022,283.238 129.5,283.5C 129.34,281.801 129.506,280.134 130,278.5C 131.011,279.337 132.178,279.67 133.5,279.5C 134.916,274.534 135.916,269.534 136.5,264.5 Z"/></g>
<g><path style="opacity:0.796" fill="#cfa5e1" d="M 106.5,284.5 C 108.062,284.733 109.395,285.4 110.5,286.5C 110.5,286.833 110.5,287.167 110.5,287.5C 108.596,287.262 107.262,286.262 106.5,284.5 Z"/></g>
<g><path style="opacity:0.076" fill="#e6e7e6" d="M 496.5,286.5 C 493.988,284.821 491.988,285.155 490.5,287.5C 489.596,286.791 489.263,285.791 489.5,284.5C 492.388,283.99 494.721,284.656 496.5,286.5 Z"/></g>
<g><path style="opacity:0.086" fill="#edeeee" d="M 600.5,285.5 C 602.265,284.539 604.265,284.205 606.5,284.5C 606.81,287.713 606.477,290.713 605.5,293.5C 605.5,290.833 605.5,288.167 605.5,285.5C 603.833,285.5 602.167,285.5 600.5,285.5 Z"/></g>
<g><path style="opacity:0.082" fill="#e6e6e6" d="M 706.5,285.5 C 704.833,285.5 703.167,285.5 701.5,285.5C 701.5,286.5 701.5,287.5 701.5,288.5C 700.566,287.432 700.232,286.099 700.5,284.5C 702.735,284.205 704.735,284.539 706.5,285.5 Z"/></g>
<g><path style="opacity:0.409" fill="#c4c4c4" d="M 481.5,285.5 C 480.167,285.5 478.833,285.5 477.5,285.5C 477.366,287.292 477.699,288.958 478.5,290.5C 476.692,289.082 476.025,287.082 476.5,284.5C 478.415,284.216 480.081,284.549 481.5,285.5 Z"/></g>
<g><path style="opacity:0.441" fill="#c1c3c3" d="M 508.5,285.5 C 510.265,284.539 512.265,284.205 514.5,284.5C 514.815,288.371 514.482,292.038 513.5,295.5C 513.5,292.167 513.5,288.833 513.5,285.5C 512.167,285.5 510.833,285.5 509.5,285.5C 509.167,285.5 508.833,285.5 508.5,285.5 Z"/></g>
<g><path style="opacity:0.102" fill="#f6f6f6" d="M 668.5,285.5 C 666.833,285.5 665.167,285.5 663.5,285.5C 663.5,286.5 663.5,287.5 663.5,288.5C 662.566,287.432 662.232,286.099 662.5,284.5C 664.735,284.205 666.735,284.539 668.5,285.5 Z"/></g>
<g><path style="opacity:0.999" fill="#474b4d" d="M 509.5,285.5 C 510.833,285.5 512.167,285.5 513.5,285.5C 513.5,288.833 513.5,292.167 513.5,295.5C 513.5,295.833 513.5,296.167 513.5,296.5C 512.312,297.684 511.145,297.684 510,296.5C 509.501,292.848 509.335,289.182 509.5,285.5 Z"/></g>
<g><path style="opacity:0.113" fill="#dcdede" d="M 589.5,285.5 C 591.265,284.539 593.265,284.205 595.5,284.5C 595.5,289.833 595.5,295.167 595.5,300.5C 594.513,295.695 594.179,290.695 594.5,285.5C 592.833,285.5 591.167,285.5 589.5,285.5 Z"/></g>
<g><path style="opacity:0.639" fill="#b5b5b6" d="M 678.5,285.5 C 680.265,284.539 682.265,284.205 684.5,284.5C 684.813,288.042 684.479,291.375 683.5,294.5C 683.5,291.5 683.5,288.5 683.5,285.5C 681.833,285.5 680.167,285.5 678.5,285.5 Z"/></g>
<g><path style="opacity:0.514" fill="#b2b4b2" d="M 730.5,285.5 C 729.167,285.5 727.833,285.5 726.5,285.5C 726.365,287.554 727.032,289.221 728.5,290.5C 727.5,290.5 726.5,290.5 725.5,290.5C 725.5,288.5 725.5,286.5 725.5,284.5C 727.415,284.216 729.081,284.549 730.5,285.5 Z"/></g>
<g><path style="opacity:1" fill="#878989" d="M 359.5,288.5 C 357.167,288.833 355.833,290.167 355.5,292.5C 353.858,290.919 351.858,290.253 349.5,290.5C 349.216,288.585 349.549,286.919 350.5,285.5C 354.238,283.859 357.238,284.859 359.5,288.5 Z"/></g>
<g><path style="opacity:1" fill="#474949" d="M 350.5,285.5 C 353.075,285.85 355.075,286.517 356.5,287.5C 354.977,289.283 352.977,289.949 350.5,289.5C 350.5,288.167 350.5,286.833 350.5,285.5 Z"/></g>
<g><path style="opacity:0.998" fill="#757676" d="M 374.5,286.5 C 373.078,286.75 372.078,287.583 371.5,289C 372.337,290.011 372.67,291.178 372.5,292.5C 370.858,290.919 368.858,290.253 366.5,290.5C 365.507,285.325 367.507,283.491 372.5,285C 373.416,285.278 374.082,285.778 374.5,286.5 Z"/></g>
<g><path style="opacity:0.218" fill="#c9c9c9" d="M 423.5,285.5 C 423.365,287.554 424.032,289.221 425.5,290.5C 424.5,290.5 423.5,290.5 422.5,290.5C 422.216,288.585 422.549,286.919 423.5,285.5 Z"/></g>
<g><path style="opacity:0.296" fill="#d2d4d3" d="M 449.5,285.5 C 449.077,287.781 449.744,289.448 451.5,290.5C 450.791,291.404 449.791,291.737 448.5,291.5C 448.205,289.265 448.539,287.265 449.5,285.5 Z"/></g>
<g><path style="opacity:0.975" fill="#4a4e50" d="M 481.5,285.5 C 483.5,285.5 484.5,286.5 484.5,288.5C 484.5,297.5 484.5,306.5 484.5,315.5C 483.167,315.5 481.833,315.5 480.5,315.5C 480.5,308.167 480.5,300.833 480.5,293.5C 480.715,291.821 480.048,290.821 478.5,290.5C 477.699,288.958 477.366,287.292 477.5,285.5C 478.833,285.5 480.167,285.5 481.5,285.5 Z"/></g>
<g><path style="opacity:0.999" fill="#636668" d="M 573.5,316.5 C 574.848,315.814 576.015,314.814 577,313.5C 577.333,313.833 577.667,314.167 578,314.5C 578.309,313.234 578.809,312.067 579.5,311C 577.575,311.135 575.575,311.302 573.5,311.5C 581.073,305.135 581.406,298.302 574.5,291C 571.77,290.272 569.103,290.438 566.5,291.5C 565.167,289.5 565.167,287.5 566.5,285.5C 578.651,283.08 584.984,288.08 585.5,300.5C 586.276,309.629 582.276,314.962 573.5,316.5 Z"/></g>
<g><path style="opacity:1" fill="#474a4a" d="M 634.5,285.5 C 636.722,285.178 638.556,285.845 640,287.5C 640.333,287.167 640.667,286.833 641,286.5C 641.91,288.945 641.076,290.278 638.5,290.5C 637.122,289.766 635.622,289.099 634,288.5C 633.53,287.423 633.697,286.423 634.5,285.5 Z"/></g>
<g><path style="opacity:1" fill="#7e8282" d="M 634.5,285.5 C 640.025,283.334 644.025,285.001 646.5,290.5C 645.542,290.047 644.708,289.381 644,288.5C 642.625,290.937 642.125,293.603 642.5,296.5C 641.675,294.19 640.342,292.19 638.5,290.5C 641.076,290.278 641.91,288.945 641,286.5C 640.667,286.833 640.333,287.167 640,287.5C 638.556,285.845 636.722,285.178 634.5,285.5 Z"/></g>
<g><path style="opacity:0.997" fill="#4e5255" d="M 721.5,299.5 C 721.829,302.228 721.163,304.562 719.5,306.5C 717.72,305.01 717.054,303.01 717.5,300.5C 717.5,295.5 717.5,290.5 717.5,285.5C 718.833,285.5 720.167,285.5 721.5,285.5C 721.5,290.167 721.5,294.833 721.5,299.5 Z"/></g>
<g><path style="opacity:0.416" fill="#dcb4ec" d="M 110.5,287.5 C 114.798,288.2 119.131,288.533 123.5,288.5C 122.036,289.16 120.369,289.493 118.5,289.5C 115.514,289.618 112.848,288.952 110.5,287.5 Z"/></g>
<g><path style="opacity:0.318" fill="#d0d1d1" d="M 520.5,285.5 C 520.077,287.781 520.744,289.448 522.5,290.5C 521.791,291.404 520.791,291.737 519.5,291.5C 519.205,289.265 519.539,287.265 520.5,285.5 Z"/></g>
<g><path style="opacity:0.533" fill="#afb3b4" d="M 278.5,285.5 C 278.5,286.833 278.5,288.167 278.5,289.5C 282.712,288.969 283.379,289.969 280.5,292.5C 280.179,290.952 279.179,290.285 277.5,290.5C 277.216,288.585 277.549,286.919 278.5,285.5 Z"/></g>
<g><path style="opacity:0.471" fill="#b7b9b8" d="M 549.5,285.5 C 549.5,286.833 549.5,288.167 549.5,289.5C 551.099,289.232 552.432,289.566 553.5,290.5C 551.833,290.5 550.167,290.5 548.5,290.5C 548.216,288.585 548.549,286.919 549.5,285.5 Z"/></g>
<g><path style="opacity:0.997" fill="#5e6263" d="M 397.5,315.5 C 397.5,313.833 397.5,312.167 397.5,310.5C 398.5,310.5 399.5,310.5 400.5,310.5C 408.979,313.21 413.646,310.043 414.5,301C 414.516,292.848 410.516,289.014 402.5,289.5C 402.335,292.85 402.502,296.183 403,299.5C 405.016,300.955 405.849,302.955 405.5,305.5C 401.507,305.755 398.674,304.089 397,300.5C 396.501,295.511 396.334,290.511 396.5,285.5C 416.569,282.414 423.736,290.747 418,310.5C 412.471,317.424 405.638,319.09 397.5,315.5 Z"/></g>
<g><path style="opacity:0.722" fill="#b9bfc0" d="M 478.5,290.5 C 480.048,290.821 480.715,291.821 480.5,293.5C 479.599,292.71 478.932,291.71 478.5,290.5 Z"/></g>
<g><path style="opacity:0.984" fill="#606667" d="M 628.5,289.5 C 628.88,292.196 629.213,295.196 629.5,298.5C 629.5,304.5 629.5,310.5 629.5,316.5C 627.5,316.5 625.5,316.5 623.5,316.5C 623.666,308.16 623.5,299.827 623,291.5C 619.708,289.027 619.708,286.694 623,284.5C 625.991,284.995 627.824,286.661 628.5,289.5 Z"/></g>
<g><path style="opacity:1" fill="#616466" d="M 678.5,285.5 C 680.167,285.5 681.833,285.5 683.5,285.5C 683.5,288.5 683.5,291.5 683.5,294.5C 682.102,298.288 679.935,301.621 677,304.5C 676.5,312.159 676.334,319.826 676.5,327.5C 676.167,327.5 675.833,327.5 675.5,327.5C 675.197,319.111 675.53,310.778 676.5,302.5C 675.757,301.818 675.091,301.151 674.5,300.5C 677.836,296.14 679.17,291.14 678.5,285.5 Z"/></g>
<g><path style="opacity:1" fill="#7e8283" d="M 634.5,285.5 C 633.697,286.423 633.53,287.423 634,288.5C 635.622,289.099 637.122,289.766 638.5,290.5C 632.985,290.349 629.985,293.016 629.5,298.5C 629.213,295.196 628.88,292.196 628.5,289.5C 630.246,287.748 632.246,286.415 634.5,285.5 Z"/></g>
<g><path style="opacity:0.396" fill="#b8babc" d="M 721.5,299.5 C 721.5,294.833 721.5,290.167 721.5,285.5C 720.167,285.5 718.833,285.5 717.5,285.5C 717.5,290.5 717.5,295.5 717.5,300.5C 717.167,300.5 716.833,300.5 716.5,300.5C 716.5,295.167 716.5,289.833 716.5,284.5C 718.5,284.5 720.5,284.5 722.5,284.5C 722.821,289.695 722.487,294.695 721.5,299.5 Z"/></g>
<g><path style="opacity:0.994" fill="#4c5153" d="M 431.5,289.5 C 431.5,298.167 431.5,306.833 431.5,315.5C 430.167,315.5 428.833,315.5 427.5,315.5C 427.184,307.248 427.518,299.081 428.5,291C 427.552,290.517 426.552,290.351 425.5,290.5C 424.032,289.221 423.365,287.554 423.5,285.5C 427.363,284.097 430.03,285.431 431.5,289.5 Z"/></g>
<g><path style="opacity:0.999" fill="#535859" d="M 472.5,293.5 C 472.5,300.833 472.5,308.167 472.5,315.5C 471.167,315.5 469.833,315.5 468.5,315.5C 468.823,309.31 468.49,303.31 467.5,297.5C 467.269,294.412 465.936,292.079 463.5,290.5C 461.393,289.532 459.059,289.198 456.5,289.5C 456.5,296.5 456.5,303.5 456.5,310.5C 456.599,314.636 454.599,316.969 450.5,317.5C 449.261,317.058 448.261,316.391 447.5,315.5C 447.5,314.5 447.5,313.5 447.5,312.5C 450.5,312.833 451.833,311.5 451.5,308.5C 451.614,302.251 451.614,296.251 451.5,290.5C 449.744,289.448 449.077,287.781 449.5,285.5C 457.126,283.479 464.292,284.479 471,288.5C 472.009,290.025 472.509,291.692 472.5,293.5 Z"/></g>
<g><path style="opacity:0.999" fill="#4f5355" d="M 560.5,292.5 C 560.5,300.167 560.5,307.833 560.5,315.5C 556.833,315.5 553.167,315.5 549.5,315.5C 549.5,314.167 549.5,312.833 549.5,311.5C 551.833,311.5 554.167,311.5 556.5,311.5C 556.822,305.642 556.489,299.975 555.5,294.5C 554.833,293.167 554.167,291.833 553.5,290.5C 552.432,289.566 551.099,289.232 549.5,289.5C 549.5,288.167 549.5,286.833 549.5,285.5C 552.597,284.212 555.597,284.712 558.5,287C 559.861,288.584 560.528,290.418 560.5,292.5 Z"/></g>
<g><path style="opacity:0.999" fill="#54585a" d="M 746.5,290.5 C 746.5,294.833 746.5,299.167 746.5,303.5C 744.833,303.5 743.167,303.5 741.5,303.5C 741.665,299.818 741.499,296.152 741,292.5C 739.064,290.192 738.231,287.525 738.5,284.5C 743.11,284.12 745.776,286.12 746.5,290.5 Z"/></g>
<g><path style="opacity:0.998" fill="#55595b" d="M 314.5,289.5 C 314.5,294.167 314.5,298.833 314.5,303.5C 312.833,303.5 311.167,303.5 309.5,303.5C 309.665,299.818 309.499,296.152 309,292.5C 307.064,290.192 306.231,287.525 306.5,284.5C 310.746,283.761 313.413,285.427 314.5,289.5 Z"/></g>
<g><path style="opacity:0.995" fill="#4d5254" d="M 374.5,286.5 C 376.173,287.343 377.34,288.676 378,290.5C 378.5,299.16 378.666,307.827 378.5,316.5C 374.5,316.5 370.5,316.5 366.5,316.5C 366.5,314.833 366.5,313.167 366.5,311.5C 368.833,311.5 371.167,311.5 373.5,311.5C 373.823,304.978 373.49,298.645 372.5,292.5C 372.67,291.178 372.337,290.011 371.5,289C 372.078,287.583 373.078,286.75 374.5,286.5 Z"/></g>
<g><path style="opacity:0.133" fill="#dfe4e5" d="M 390.5,290.5 C 391.486,294.97 391.819,299.637 391.5,304.5C 389.265,304.795 387.265,304.461 385.5,303.5C 387.167,303.5 388.833,303.5 390.5,303.5C 390.5,299.167 390.5,294.833 390.5,290.5 Z"/></g>
<g><path style="opacity:0.294" fill="#c2c7c9" d="M 463.5,290.5 C 461.5,290.5 459.5,290.5 457.5,290.5C 457.824,297.354 457.491,304.021 456.5,310.5C 456.5,303.5 456.5,296.5 456.5,289.5C 459.059,289.198 461.393,289.532 463.5,290.5 Z"/></g>
<g><path style="opacity:1" fill="#515557" d="M 543.5,293.5 C 543.5,300.833 543.5,308.167 543.5,315.5C 542.167,315.5 540.833,315.5 539.5,315.5C 539.824,308.646 539.491,301.979 538.5,295.5C 537.889,292.889 536.223,291.222 533.5,290.5C 531.735,289.539 529.735,289.205 527.5,289.5C 527.5,296.5 527.5,303.5 527.5,310.5C 527.737,311.791 527.404,312.791 526.5,313.5C 523.975,314.64 521.308,315.307 518.5,315.5C 518.5,314.5 518.5,313.5 518.5,312.5C 521.5,312.833 522.833,311.5 522.5,308.5C 522.614,302.251 522.614,296.251 522.5,290.5C 520.744,289.448 520.077,287.781 520.5,285.5C 528.126,283.479 535.292,284.479 542,288.5C 543.009,290.025 543.509,291.692 543.5,293.5 Z"/></g>
<g><path style="opacity:0.664" fill="#86888b" d="M 695.5,288.5 C 696.494,297.652 696.827,306.985 696.5,316.5C 694.833,316.5 693.167,316.5 691.5,316.5C 691.5,316.167 691.5,315.833 691.5,315.5C 692.833,315.5 694.167,315.5 695.5,315.5C 695.5,306.5 695.5,297.5 695.5,288.5 Z"/></g>
<g><path style="opacity:0.341" fill="#c3c6c7" d="M 314.5,289.5 C 315.487,294.305 315.821,299.305 315.5,304.5C 313.265,304.795 311.265,304.461 309.5,303.5C 311.167,303.5 312.833,303.5 314.5,303.5C 314.5,298.833 314.5,294.167 314.5,289.5 Z"/></g>
<g><path style="opacity:0.789" fill="#777b7c" d="M 360.5,290.5 C 361.493,298.984 361.826,307.651 361.5,316.5C 357.5,316.5 353.5,316.5 349.5,316.5C 349.5,316.167 349.5,315.833 349.5,315.5C 353.167,315.5 356.833,315.5 360.5,315.5C 360.5,307.167 360.5,298.833 360.5,290.5 Z"/></g>
<g><path style="opacity:0.998" fill="#54585a" d="M 390.5,290.5 C 390.5,294.833 390.5,299.167 390.5,303.5C 388.833,303.5 387.167,303.5 385.5,303.5C 385.665,299.818 385.499,296.152 385,292.5C 383.064,290.192 382.231,287.525 382.5,284.5C 387.11,284.12 389.776,286.12 390.5,290.5 Z"/></g>
<g><path style="opacity:1" fill="#4a4e51" d="M 695.5,288.5 C 695.5,297.5 695.5,306.5 695.5,315.5C 694.167,315.5 692.833,315.5 691.5,315.5C 692.135,306.766 691.468,298.433 689.5,290.5C 687.692,289.082 687.025,287.082 687.5,284.5C 691.343,283.774 694.01,285.108 695.5,288.5 Z"/></g>
<g><path style="opacity:0.999" fill="#585d5f" d="M 706.5,285.5 C 707.971,289.718 708.971,294.051 709.5,298.5C 709.336,301.187 709.503,303.854 710,306.5C 710.889,305.112 711.389,305.278 711.5,307C 710.423,308.543 709.089,308.543 707.5,307C 707.833,306.667 708.167,306.333 708.5,306C 707.309,305.302 706.309,304.469 705.5,303.5C 703.392,298.738 702.059,293.738 701.5,288.5C 701.5,287.5 701.5,286.5 701.5,285.5C 703.167,285.5 704.833,285.5 706.5,285.5 Z"/></g>
<g><path style="opacity:0.094" fill="#e3e4e4" d="M 728.5,291.5 C 729.483,295.298 729.817,299.298 729.5,303.5C 731.167,303.5 732.833,303.5 734.5,303.5C 732.735,304.461 730.735,304.795 728.5,304.5C 728.5,300.167 728.5,295.833 728.5,291.5 Z"/></g>
<g><path style="opacity:0.997" fill="#4b5052" d="M 730.5,285.5 C 732.017,285.511 733.184,286.177 734,287.5C 734.499,292.823 734.666,298.156 734.5,303.5C 732.833,303.5 731.167,303.5 729.5,303.5C 729.817,299.298 729.483,295.298 728.5,291.5C 728.5,291.167 728.5,290.833 728.5,290.5C 727.032,289.221 726.365,287.554 726.5,285.5C 727.833,285.5 729.167,285.5 730.5,285.5 Z"/></g>
<g><path style="opacity:0.133" fill="#dfe3e3" d="M 746.5,290.5 C 747.486,294.97 747.819,299.637 747.5,304.5C 745.265,304.795 743.265,304.461 741.5,303.5C 743.167,303.5 744.833,303.5 746.5,303.5C 746.5,299.167 746.5,294.833 746.5,290.5 Z"/></g>
<g><path style="opacity:0.259" fill="#cacdcc" d="M 533.5,290.5 C 531.833,290.5 530.167,290.5 528.5,290.5C 528.824,297.354 528.491,304.021 527.5,310.5C 527.5,303.5 527.5,296.5 527.5,289.5C 529.735,289.205 531.735,289.539 533.5,290.5 Z"/></g>
<g><path style="opacity:0.18" fill="#dbdfdf" d="M 355.5,292.5 C 356.49,298.645 356.823,304.978 356.5,311.5C 354.167,311.5 351.833,311.5 349.5,311.5C 349.5,312.833 349.5,314.167 349.5,315.5C 349.5,315.833 349.5,316.167 349.5,316.5C 348.539,314.735 348.205,312.735 348.5,310.5C 350.833,310.5 353.167,310.5 355.5,310.5C 355.5,304.5 355.5,298.5 355.5,292.5 Z"/></g>
<g><path style="opacity:0.662" fill="#848787" d="M 484.5,288.5 C 485.494,297.652 485.827,306.985 485.5,316.5C 483.585,316.784 481.919,316.451 480.5,315.5C 481.833,315.5 483.167,315.5 484.5,315.5C 484.5,306.5 484.5,297.5 484.5,288.5 Z"/></g>
<g><path style="opacity:1" fill="#5a5d5f" d="M 496.5,286.5 C 499.981,290.763 503.481,295.097 507,299.5C 508.379,294.964 508.879,290.297 508.5,285.5C 508.833,285.5 509.167,285.5 509.5,285.5C 509.335,289.182 509.501,292.848 510,296.5C 511.145,297.684 512.312,297.684 513.5,296.5C 512.949,299.267 511.616,301.6 509.5,303.5C 511.555,306.683 513.222,310.016 514.5,313.5C 513.448,315.256 511.781,315.923 509.5,315.5C 506.272,310.061 502.772,304.727 499,299.5C 498.066,300.858 497.232,302.192 496.5,303.5C 495.517,307.298 495.183,311.298 495.5,315.5C 494.167,315.5 492.833,315.5 491.5,315.5C 491.5,312.833 491.5,310.167 491.5,307.5C 491.521,302.933 493.188,299.099 496.5,296C 494.613,293.05 492.613,290.216 490.5,287.5C 491.988,285.155 493.988,284.821 496.5,286.5 Z"/></g>
<g><path style="opacity:0.32" fill="#c0c3c2" d="M 689.5,290.5 C 691.468,298.433 692.135,306.766 691.5,315.5C 691.5,315.833 691.5,316.167 691.5,316.5C 690.807,307.932 690.14,299.266 689.5,290.5 Z"/></g>
<g><path style="opacity:0.588" fill="#9c9fa0" d="M 472.5,293.5 C 473.492,300.982 473.825,308.648 473.5,316.5C 471.5,316.5 469.5,316.5 467.5,316.5C 467.5,310.167 467.5,303.833 467.5,297.5C 468.49,303.31 468.823,309.31 468.5,315.5C 469.833,315.5 471.167,315.5 472.5,315.5C 472.5,308.167 472.5,300.833 472.5,293.5 Z"/></g>
<g><path style="opacity:0.757" fill="#8f9293" d="M 431.5,289.5 C 432.493,298.318 432.827,307.318 432.5,316.5C 430.5,316.5 428.5,316.5 426.5,316.5C 426.775,307.779 426.442,299.113 425.5,290.5C 426.552,290.351 427.552,290.517 428.5,291C 427.518,299.081 427.184,307.248 427.5,315.5C 428.833,315.5 430.167,315.5 431.5,315.5C 431.5,306.833 431.5,298.167 431.5,289.5 Z"/></g>
<g><path style="opacity:0.624" fill="#9a9d9e" d="M 543.5,293.5 C 544.492,300.982 544.825,308.648 544.5,316.5C 542.5,316.5 540.5,316.5 538.5,316.5C 538.5,309.5 538.5,302.5 538.5,295.5C 539.491,301.979 539.824,308.646 539.5,315.5C 540.833,315.5 542.167,315.5 543.5,315.5C 543.5,308.167 543.5,300.833 543.5,293.5 Z"/></g>
<g><path style="opacity:1" fill="#616567" d="M 344.5,307.5 C 342.952,307.821 342.285,308.821 342.5,310.5C 340.61,310.297 339.11,310.963 338,312.5C 337.805,311.181 337.972,309.847 338.5,308.5C 339.44,304.537 339.607,300.537 339,296.5C 337.31,290.718 333.643,289.051 328,291.5C 326.775,296.085 326.275,300.752 326.5,305.5C 326.412,310.132 324.746,311.132 321.5,308.5C 319.857,302.605 320.523,296.938 323.5,291.5C 322.675,290.614 321.675,290.281 320.5,290.5C 320.5,288.5 320.5,286.5 320.5,284.5C 339.864,280.868 347.864,288.535 344.5,307.5 Z"/></g>
<g><path style="opacity:0.682" fill="#999a9c" d="M 496.5,303.5 C 496.5,307.833 496.5,312.167 496.5,316.5C 494.5,316.5 492.5,316.5 490.5,316.5C 490.19,313.287 490.523,310.287 491.5,307.5C 491.5,310.167 491.5,312.833 491.5,315.5C 492.833,315.5 494.167,315.5 495.5,315.5C 495.183,311.298 495.517,307.298 496.5,303.5 Z"/></g>
<g><path style="opacity:0.983" fill="#787c7d" d="M 709.5,298.5 C 710.606,301.402 711.772,304.402 713,307.5C 714.646,305.391 715.812,303.057 716.5,300.5C 716.833,300.5 717.167,300.5 717.5,300.5C 717.054,303.01 717.72,305.01 719.5,306.5C 717.833,311.5 714.5,314.833 709.5,316.5C 711.627,315.298 713.293,312.965 714.5,309.5C 713.113,309.193 711.446,309.193 709.5,309.5C 709.5,310.5 709.5,311.5 709.5,312.5C 708.5,312.5 707.5,312.5 706.5,312.5C 706.918,311.778 707.584,311.278 708.5,311C 706.798,308.765 705.798,306.265 705.5,303.5C 706.309,304.469 707.309,305.302 708.5,306C 708.167,306.333 707.833,306.667 707.5,307C 709.089,308.543 710.423,308.543 711.5,307C 711.389,305.278 710.889,305.112 710,306.5C 709.503,303.854 709.336,301.187 709.5,298.5 Z"/></g>
<g><path style="opacity:0.878" fill="#c1c1c1" d="M 400.5,310.5 C 399.5,310.5 398.5,310.5 397.5,310.5C 397.5,312.167 397.5,313.833 397.5,315.5C 396.105,313.153 396.272,310.819 398,308.5C 398.995,309.066 399.828,309.733 400.5,310.5 Z"/></g>
<g><path style="opacity:0.999" fill="#4f5355" d="M 668.5,285.5 C 669.141,291.105 671.141,296.105 674.5,300.5C 675.091,301.151 675.757,301.818 676.5,302.5C 675.53,310.778 675.197,319.111 675.5,327.5C 674.167,327.5 672.833,327.5 671.5,327.5C 671.826,319.316 671.492,311.316 670.5,303.5C 665.77,299.703 663.437,294.703 663.5,288.5C 663.5,287.5 663.5,286.5 663.5,285.5C 665.167,285.5 666.833,285.5 668.5,285.5 Z"/></g>
<g><path style="opacity:0.995" fill="#474b4d" d="M 359.5,288.5 C 360.338,288.842 360.672,289.508 360.5,290.5C 360.5,298.833 360.5,307.167 360.5,315.5C 356.833,315.5 353.167,315.5 349.5,315.5C 349.5,314.167 349.5,312.833 349.5,311.5C 351.833,311.5 354.167,311.5 356.5,311.5C 356.823,304.978 356.49,298.645 355.5,292.5C 355.833,290.167 357.167,288.833 359.5,288.5 Z"/></g>
<g><path style="opacity:0.129" fill="#e0e3e3" d="M 372.5,292.5 C 373.49,298.645 373.823,304.978 373.5,311.5C 371.167,311.5 368.833,311.5 366.5,311.5C 368.265,310.539 370.265,310.205 372.5,310.5C 372.5,304.5 372.5,298.5 372.5,292.5 Z"/></g>
<g><path style="opacity:0.995" fill="#4e5354" d="M 302.5,297.5 C 302.5,303.5 302.5,309.5 302.5,315.5C 295.167,315.5 287.833,315.5 280.5,315.5C 280.5,307.833 280.5,300.167 280.5,292.5C 283.379,289.969 282.712,288.969 278.5,289.5C 278.5,288.167 278.5,286.833 278.5,285.5C 284.405,284.122 290.405,284.288 296.5,286C 301.242,288.314 303.242,292.148 302.5,297.5 Z M 285.5,290.5 C 288.187,290.336 290.854,290.503 293.5,291C 294.308,291.308 294.975,291.808 295.5,292.5C 297.157,298.373 297.823,304.373 297.5,310.5C 293.5,310.5 289.5,310.5 285.5,310.5C 285.5,303.833 285.5,297.167 285.5,290.5 Z"/></g>
<g><path style="opacity:0.157" fill="#e1e2e5" d="M 285.5,290.5 C 285.5,297.167 285.5,303.833 285.5,310.5C 289.5,310.5 293.5,310.5 297.5,310.5C 293.366,311.485 289.032,311.818 284.5,311.5C 284.175,304.313 284.509,297.313 285.5,290.5 Z"/></g>
<g><path style="opacity:0.999" fill="#747779" d="M 326.5,305.5 C 329.051,312.078 333.051,313.078 338.5,308.5C 337.972,309.847 337.805,311.181 338,312.5C 339.11,310.963 340.61,310.297 342.5,310.5C 342.285,308.821 342.952,307.821 344.5,307.5C 343.91,312.347 341.243,315.347 336.5,316.5C 336.577,315.25 337.244,314.417 338.5,314C 335.097,311.923 331.93,312.09 329,314.5C 326.553,313.004 325.719,313.337 326.5,315.5C 323.695,314.021 322.028,311.688 321.5,308.5C 324.746,311.132 326.412,310.132 326.5,305.5 Z"/></g>
<g><path style="opacity:0.816" fill="#b2b3b5" d="M 451.5,308.5 C 451.833,311.5 450.5,312.833 447.5,312.5C 447.5,313.5 447.5,314.5 447.5,315.5C 446.402,314.399 446.235,313.066 447,311.5C 447.667,310.167 448.333,310.167 449,311.5C 449.852,310.429 450.685,309.429 451.5,308.5 Z"/></g>
<g><path style="opacity:0.982" fill="#868b8d" d="M 572.5,311.5 C 570.735,312.461 568.735,312.795 566.5,312.5C 566.5,313.5 566.5,314.5 566.5,315.5C 565.207,313.636 565.207,311.636 566.5,309.5C 568.323,310.747 570.323,311.414 572.5,311.5 Z"/></g>
<g><path style="opacity:0.994" fill="#4d5151" d="M 573.5,316.5 C 570.941,316.802 568.607,316.468 566.5,315.5C 566.5,314.5 566.5,313.5 566.5,312.5C 568.735,312.795 570.735,312.461 572.5,311.5C 572.833,311.5 573.167,311.5 573.5,311.5C 575.575,311.302 577.575,311.135 579.5,311C 578.809,312.067 578.309,313.234 578,314.5C 577.667,314.167 577.333,313.833 577,313.5C 576.015,314.814 574.848,315.814 573.5,316.5 Z"/></g>
<g><path style="opacity:0.996" fill="#606565" d="M 646.5,290.5 C 648.929,296.983 649.095,303.649 647,310.5C 644.892,315.769 641.059,317.769 635.5,316.5C 634.28,314.716 634.28,313.05 635.5,311.5C 638.952,311.552 641.119,309.885 642,306.5C 642.498,303.183 642.665,299.85 642.5,296.5C 642.125,293.603 642.625,290.937 644,288.5C 644.708,289.381 645.542,290.047 646.5,290.5 Z"/></g>
<g><path style="opacity:0.265" fill="#cbccce" d="M 670.5,303.5 C 671.492,311.316 671.826,319.316 671.5,327.5C 672.833,327.5 674.167,327.5 675.5,327.5C 675.833,327.5 676.167,327.5 676.5,327.5C 676.5,327.833 676.5,328.167 676.5,328.5C 674.5,328.5 672.5,328.5 670.5,328.5C 670.5,320.167 670.5,311.833 670.5,303.5 Z"/></g>
<g><path style="opacity:1" fill="#616466" d="M 589.5,285.5 C 591.167,285.5 592.833,285.5 594.5,285.5C 594.179,290.695 594.513,295.695 595.5,300.5C 595.435,300.938 595.601,301.272 596,301.5C 597,300.5 598,299.5 599,298.5C 600.075,294.23 600.575,289.897 600.5,285.5C 602.167,285.5 603.833,285.5 605.5,285.5C 605.5,288.167 605.5,290.833 605.5,293.5C 605.702,295.989 605.202,298.323 604,300.5C 601.154,302.013 598.987,304.179 597.5,307C 598.829,310.994 601.496,312.327 605.5,311C 607.894,309.048 609.394,306.548 610,303.5C 610.333,297.5 610.667,291.5 611,285.5C 612.699,284.594 614.533,284.261 616.5,284.5C 617.08,293.331 616.247,301.998 614,310.5C 605.607,320.394 598.274,319.727 592,308.5C 589.865,300.991 589.032,293.324 589.5,285.5 Z"/></g>
<g><path style="opacity:0.424" fill="#bbbcbc" d="M 635.5,311.5 C 634.28,313.05 634.28,314.716 635.5,316.5C 634.307,316.03 633.64,315.03 633.5,313.5C 633.833,312.5 634.167,311.5 634.5,310.5C 635.107,310.624 635.44,310.957 635.5,311.5 Z"/></g>
<g><path style="opacity:1" fill="#5b5e60" d="M 336.5,316.5 C 333.041,317.865 329.708,317.531 326.5,315.5C 325.719,313.337 326.553,313.004 329,314.5C 331.93,312.09 335.097,311.923 338.5,314C 337.244,314.417 336.577,315.25 336.5,316.5 Z"/></g>
<g><path style="opacity:0.992" fill="#949697" d="M 522.5,308.5 C 522.833,311.5 521.5,312.833 518.5,312.5C 518.5,313.5 518.5,314.5 518.5,315.5C 521.308,315.307 523.975,314.64 526.5,313.5C 526.586,314.496 526.252,315.329 525.5,316C 522.776,317.335 520.11,317.502 517.5,316.5C 517.338,314.473 517.505,312.473 518,310.5C 518.414,310.957 518.914,311.291 519.5,311.5C 520.735,310.66 521.735,309.66 522.5,308.5 Z"/></g>
<g><path style="opacity:1" fill="#484b4c" d="M 709.5,316.5 C 709.167,316.5 708.833,316.5 708.5,316.5C 706.023,316.949 704.023,316.283 702.5,314.5C 703.602,313.824 704.602,313.158 705.5,312.5C 705.833,312.5 706.167,312.5 706.5,312.5C 707.5,312.5 708.5,312.5 709.5,312.5C 709.5,311.5 709.5,310.5 709.5,309.5C 711.446,309.193 713.113,309.193 714.5,309.5C 713.293,312.965 711.627,315.298 709.5,316.5 Z"/></g>
<g><path style="opacity:0.573" fill="#9fa2a2" d="M 280.5,292.5 C 280.5,300.167 280.5,307.833 280.5,315.5C 287.833,315.5 295.167,315.5 302.5,315.5C 302.5,309.5 302.5,303.5 302.5,297.5C 303.49,303.645 303.823,309.978 303.5,316.5C 295.5,316.5 287.5,316.5 279.5,316.5C 279.174,308.316 279.508,300.316 280.5,292.5 Z"/></g>
<g><path style="opacity:0.588" fill="#9a9b9d" d="M 514.5,313.5 C 515.404,314.209 515.737,315.209 515.5,316.5C 513.265,316.795 511.265,316.461 509.5,315.5C 511.781,315.923 513.448,315.256 514.5,313.5 Z"/></g>
<g><path style="opacity:0.573" fill="#a1a3a5" d="M 560.5,292.5 C 561.492,300.316 561.826,308.316 561.5,316.5C 557.167,316.5 552.833,316.5 548.5,316.5C 548.5,314.5 548.5,312.5 548.5,310.5C 550.833,310.5 553.167,310.5 555.5,310.5C 555.5,305.167 555.5,299.833 555.5,294.5C 556.489,299.975 556.822,305.642 556.5,311.5C 554.167,311.5 551.833,311.5 549.5,311.5C 549.5,312.833 549.5,314.167 549.5,315.5C 553.167,315.5 556.833,315.5 560.5,315.5C 560.5,307.833 560.5,300.167 560.5,292.5 Z"/></g>
<g><path style="opacity:1" fill="#7d8080" d="M 705.5,312.5 C 704.602,313.158 703.602,313.824 702.5,314.5C 704.023,316.283 706.023,316.949 708.5,316.5C 706.562,318.163 704.228,318.829 701.5,318.5C 701.5,316.5 701.5,314.5 701.5,312.5C 702.833,312.5 704.167,312.5 705.5,312.5 Z"/></g>
</svg>
