<?xml version="1.0" encoding="UTF-8"?>
<!DOCTYPE svg PUBLIC "-//W3C//DTD SVG 1.1//EN" "http://www.w3.org/Graphics/SVG/1.1/DTD/svg11.dtd">
<svg xmlns="http://www.w3.org/2000/svg" version="1.1" width="169px" height="205px" style="shape-rendering:geometricPrecision; text-rendering:geometricPrecision; image-rendering:optimizeQuality; fill-rule:evenodd; clip-rule:evenodd" xmlns:xlink="http://www.w3.org/1999/xlink">
<g><path style="opacity:1" fill="#fcfcfd" d="M -0.5,-0.5 C 55.8333,-0.5 112.167,-0.5 168.5,-0.5C 168.5,19.5 168.5,39.5 168.5,59.5C 167.833,57.5 167.167,55.5 166.5,53.5C 165.721,50.4553 164.387,47.7886 162.5,45.5C 161.083,40.3212 158.417,35.9879 154.5,32.5C 153.92,30.2512 152.587,28.5846 150.5,27.5C 146.792,23.7899 142.792,20.4566 138.5,17.5C 136.544,16.5082 134.544,15.5082 132.5,14.5C 124.774,8.98257 116.107,6.64924 106.5,7.5C 105.833,7.16667 105.167,6.83333 104.5,6.5C 103.365,4.78679 101.698,4.12012 99.5,4.5C 98.791,3.59603 97.791,3.26269 96.5,3.5C 91.6842,2.35034 86.6842,2.18368 81.5,3C 78.7187,3.52184 76.3854,4.68851 74.5,6.5C 73.8333,6.83333 73.1667,7.16667 72.5,7.5C 68.4338,7.30698 64.4338,7.64032 60.5,8.5C 57.8478,8.40953 55.5145,9.07619 53.5,10.5C 51.9731,10.427 50.9731,11.0937 50.5,12.5C 48.2459,13.4151 46.2459,14.7484 44.5,16.5C 42.6203,16.2291 41.287,16.8958 40.5,18.5C 29.9811,24.6832 22.3144,33.3498 17.5,44.5C 15.8246,46.6765 14.4912,49.1765 13.5,52C 13.6667,52.8333 13.8333,53.6667 14,54.5C 15.7073,52.9625 17.2073,51.2959 18.5,49.5C 19.922,48.075 21.5887,47.075 23.5,46.5C 28.7271,46.0217 33.7271,45.0217 38.5,43.5C 39.5,43.1667 40.1667,42.5 40.5,41.5C 40.8333,41.5 41.1667,41.5 41.5,41.5C 43.8477,41.4077 45.5144,40.4077 46.5,38.5C 48.5625,37.2237 50.8958,36.3903 53.5,36C 58.8229,35.5006 64.1563,35.334 69.5,35.5C 73.533,34.9751 77.1996,33.6418 80.5,31.5C 89.6484,29.9392 98.6484,30.6059 107.5,33.5C 107.953,34.4584 108.619,35.2917 109.5,36C 114.155,36.4992 118.821,36.6658 123.5,36.5C 127.816,36.3296 131.816,37.3296 135.5,39.5C 135.973,40.9063 136.973,41.573 138.5,41.5C 138.842,42.3382 139.508,42.6716 140.5,42.5C 140.5,43.1667 140.833,43.5 141.5,43.5C 144.337,45.4023 147.671,46.069 151.5,45.5C 152.859,47.0093 152.359,47.676 150,47.5C 147.846,46.7479 145.68,46.5812 143.5,47C 143.924,51.2933 145.258,55.2933 147.5,59C 146.244,59.4169 145.577,60.2502 145.5,61.5C 144.524,62.8149 143.524,64.1482 142.5,65.5C 140.591,63.3512 138.924,61.0179 137.5,58.5C 136.432,57.5655 135.099,57.2322 133.5,57.5C 133.12,59.698 133.787,61.3646 135.5,62.5C 137.061,64.4905 138.061,66.8239 138.5,69.5C 136.535,72.4757 134.535,75.4757 132.5,78.5C 132.957,79.2975 133.624,79.6309 134.5,79.5C 135.601,80.5983 136.934,80.765 138.5,80C 139.252,79.3292 139.586,78.4959 139.5,77.5C 140.391,76.8902 141.391,76.5569 142.5,76.5C 143.441,78.0495 144.107,79.7162 144.5,81.5C 144.369,82.2389 144.536,82.9056 145,83.5C 146.302,84.0848 147.469,84.7515 148.5,85.5C 149.531,86.2485 150.698,86.9152 152,87.5C 153.721,93.0923 155.554,98.5923 157.5,104C 156.552,104.483 155.552,104.649 154.5,104.5C 152.958,103.699 151.292,103.366 149.5,103.5C 147.194,103.007 144.861,102.674 142.5,102.5C 141.833,102.5 141.5,102.167 141.5,101.5C 141.027,100.094 140.027,99.427 138.5,99.5C 136.419,98.0098 134.086,97.0098 131.5,96.5C 129.162,94.9605 126.495,94.2938 123.5,94.5C 117.567,93.8291 111.567,92.8291 105.5,91.5C 103.123,90.1127 100.457,89.2794 97.5,89C 92.3158,88.1837 87.3158,88.3503 82.5,89.5C 78.8379,89.7234 75.5046,90.7234 72.5,92.5C 70.7085,92.366 69.0418,92.6993 67.5,93.5C 62.1563,93.334 56.8229,93.5006 51.5,94C 50.5842,94.2784 49.9175,94.7784 49.5,95.5C 45.1574,96.8412 41.1574,99.0078 37.5,102C 35.2922,102.191 33.2922,102.691 31.5,103.5C 29.8333,103.5 28.1667,103.5 26.5,103.5C 25.5041,103.586 24.6708,103.252 24,102.5C 23.3663,95.3127 22.3663,88.3127 21,81.5C 18.847,74.3003 17.0137,66.9669 15.5,59.5C 15.2668,58.0683 14.6001,57.5683 13.5,58C 12.0437,60.2658 11.2104,62.7658 11,65.5C 8.98534,82.1038 10.8187,98.1038 16.5,113.5C 17.8285,115.798 19.1618,118.132 20.5,120.5C 20.427,122.027 21.0937,123.027 22.5,123.5C 23.4884,124.795 24.4884,126.128 25.5,127.5C 25.427,129.027 26.0937,130.027 27.5,130.5C 30.5162,133.52 33.1829,136.854 35.5,140.5C 36.0798,142.749 37.4131,144.415 39.5,145.5C 41.1667,146.5 42.5,147.833 43.5,149.5C 44.0798,151.749 45.4131,153.415 47.5,154.5C 50.8605,157.194 53.8605,160.194 56.5,163.5C 56.5,165.5 57.5,166.5 59.5,166.5C 65.8333,173.167 72.1667,179.833 78.5,186.5C 81.7681,187.822 85.4348,188.489 89.5,188.5C 93.3492,188.499 97.0159,188.165 100.5,187.5C 100.5,187.167 100.5,186.833 100.5,186.5C 100.5,185.833 100.833,185.5 101.5,185.5C 104.5,184.5 106.5,182.5 107.5,179.5C 110.5,178.5 112.5,176.5 113.5,173.5C 116.5,172.5 118.5,170.5 119.5,167.5C 121.5,164.833 123.833,162.5 126.5,160.5C 127.833,159.833 128.833,158.833 129.5,157.5C 130.167,156.5 130.833,155.5 131.5,154.5C 134.167,153.833 135.833,152.167 136.5,149.5C 136.5,148.833 136.833,148.5 137.5,148.5C 139.587,147.415 140.92,145.749 141.5,143.5C 141.833,142.5 142.5,141.833 143.5,141.5C 145.587,140.415 146.92,138.749 147.5,136.5C 150.025,132.104 153.025,128.104 156.5,124.5C 157.906,124.027 158.573,123.027 158.5,121.5C 159.906,121.027 160.573,120.027 160.5,118.5C 161.931,118.119 162.764,117.119 163,115.5C 163.703,113.071 163.537,110.738 162.5,108.5C 164.335,107.878 165.502,106.544 166,104.5C 166.406,101.258 167.239,98.2578 168.5,95.5C 168.5,131.833 168.5,168.167 168.5,204.5C 144.833,204.5 121.167,204.5 97.5,204.5C 97.9926,202.194 98.3259,199.861 98.5,197.5C 99.0431,197.44 99.3764,197.107 99.5,196.5C 93.1667,195.167 86.8333,195.167 80.5,196.5C 80.6236,197.107 80.9569,197.44 81.5,197.5C 81.6741,199.861 82.0074,202.194 82.5,204.5C 54.8333,204.5 27.1667,204.5 -0.5,204.5C -0.5,136.167 -0.5,67.8333 -0.5,-0.5 Z"/></g>
<g><path style="opacity:1" fill="#efabb0" d="M 96.5,3.5 C 88.9103,2.8969 81.5769,3.8969 74.5,6.5C 76.3854,4.68851 78.7187,3.52184 81.5,3C 86.6842,2.18368 91.6842,2.35034 96.5,3.5 Z"/></g>
<g><path style="opacity:1" fill="#ec8c93" d="M 99.5,4.5 C 101.698,4.12012 103.365,4.78679 104.5,6.5C 102.597,6.20414 100.93,5.53747 99.5,4.5 Z"/></g>
<g><path style="opacity:1" fill="#dc1f2e" d="M 96.5,3.5 C 97.791,3.26269 98.791,3.59603 99.5,4.5C 100.93,5.53747 102.597,6.20414 104.5,6.5C 105.167,6.83333 105.833,7.16667 106.5,7.5C 107.252,17.1644 109.252,26.4978 112.5,35.5C 110.833,34.8333 109.167,34.1667 107.5,33.5C 98.6484,30.6059 89.6484,29.9392 80.5,31.5C 76.6576,31.8925 72.9909,32.8925 69.5,34.5C 70.5819,25.5115 71.5819,16.5115 72.5,7.5C 73.1667,7.16667 73.8333,6.83333 74.5,6.5C 81.5769,3.8969 88.9103,2.8969 96.5,3.5 Z"/></g>
<g><path style="opacity:1" fill="#e17c83" d="M 60.5,8.5 C 58.4855,9.92381 56.1522,10.5905 53.5,10.5C 55.5145,9.07619 57.8478,8.40953 60.5,8.5 Z"/></g>
<g><path style="opacity:1" fill="#c51a29" d="M 72.5,7.5 C 71.5819,16.5115 70.5819,25.5115 69.5,34.5C 69.5,34.8333 69.5,35.1667 69.5,35.5C 64.1563,35.334 58.8229,35.5006 53.5,36C 50.8958,36.3903 48.5625,37.2237 46.5,38.5C 44.326,38.7497 42.6594,39.7497 41.5,41.5C 41.1667,41.5 40.8333,41.5 40.5,41.5C 40.3695,33.4533 41.7028,25.4533 44.5,17.5C 44.5,17.1667 44.5,16.8333 44.5,16.5C 46.2459,14.7484 48.2459,13.4151 50.5,12.5C 52.0269,12.573 53.0269,11.9063 53.5,10.5C 56.1522,10.5905 58.4855,9.92381 60.5,8.5C 64.4338,7.64032 68.4338,7.30698 72.5,7.5 Z"/></g>
<g><path style="opacity:1" fill="#c61c2a" d="M 106.5,7.5 C 116.107,6.64924 124.774,8.98257 132.5,14.5C 133.167,15.8333 134.167,16.8333 135.5,17.5C 136.807,25.509 138.807,33.3423 141.5,41C 141.43,41.7648 141.097,42.2648 140.5,42.5C 139.508,42.6716 138.842,42.3382 138.5,41.5C 138.027,40.0937 137.027,39.427 135.5,39.5C 131.816,37.3296 127.816,36.3296 123.5,36.5C 120.038,35.5184 116.371,35.185 112.5,35.5C 109.252,26.4978 107.252,17.1644 106.5,7.5 Z"/></g>
<g><path style="opacity:1" fill="#e3878f" d="M 53.5,10.5 C 53.0269,11.9063 52.0269,12.573 50.5,12.5C 50.9731,11.0937 51.9731,10.427 53.5,10.5 Z"/></g>
<g><path style="opacity:1" fill="#eeb4b9" d="M 132.5,14.5 C 134.544,15.5082 136.544,16.5082 138.5,17.5C 137.5,17.5 136.5,17.5 135.5,17.5C 134.167,16.8333 133.167,15.8333 132.5,14.5 Z"/></g>
<g><path style="opacity:1" fill="#dc969c" d="M 44.5,16.5 C 44.5,16.8333 44.5,17.1667 44.5,17.5C 43.1667,17.8333 41.8333,18.1667 40.5,18.5C 41.287,16.8958 42.6203,16.2291 44.5,16.5 Z"/></g>
<g><path style="opacity:1" fill="#a81b24" d="M 44.5,17.5 C 41.7028,25.4533 40.3695,33.4533 40.5,41.5C 40.1667,42.5 39.5,43.1667 38.5,43.5C 33.1259,43.3355 28.1259,44.3355 23.5,46.5C 21.5887,47.075 19.922,48.075 18.5,49.5C 17.5028,49.5299 16.8361,49.0299 16.5,48C 16.9891,46.8615 17.3225,45.6948 17.5,44.5C 22.3144,33.3498 29.9811,24.6832 40.5,18.5C 41.8333,18.1667 43.1667,17.8333 44.5,17.5 Z"/></g>
<g><path style="opacity:1" fill="#a61822" d="M 135.5,17.5 C 136.5,17.5 137.5,17.5 138.5,17.5C 142.792,20.4566 146.792,23.7899 150.5,27.5C 151.08,29.7488 152.413,31.4154 154.5,32.5C 158.417,35.9879 161.083,40.3212 162.5,45.5C 162.539,46.5832 162.873,47.5832 163.5,48.5C 163.043,49.2975 162.376,49.6309 161.5,49.5C 160.833,49.1667 160.167,48.8333 159.5,48.5C 159.027,47.0937 158.027,46.427 156.5,46.5C 154.883,45.962 153.216,45.6287 151.5,45.5C 148.493,43.8255 145.16,43.1588 141.5,43.5C 140.833,43.5 140.5,43.1667 140.5,42.5C 141.097,42.2648 141.43,41.7648 141.5,41C 138.807,33.3423 136.807,25.509 135.5,17.5 Z"/></g>
<g><path style="opacity:1" fill="#c96369" d="M 150.5,27.5 C 152.587,28.5846 153.92,30.2512 154.5,32.5C 152.413,31.4154 151.08,29.7488 150.5,27.5 Z"/></g>
<g><path style="opacity:1" fill="#f6c5c8" d="M 80.5,31.5 C 77.1996,33.6418 73.533,34.9751 69.5,35.5C 69.5,35.1667 69.5,34.8333 69.5,34.5C 72.9909,32.8925 76.6576,31.8925 80.5,31.5 Z"/></g>
<g><path style="opacity:1" fill="#eb9ba1" d="M 107.5,33.5 C 109.167,34.1667 110.833,34.8333 112.5,35.5C 116.371,35.185 120.038,35.5184 123.5,36.5C 118.821,36.6658 114.155,36.4992 109.5,36C 108.619,35.2917 107.953,34.4584 107.5,33.5 Z"/></g>
<g><path style="opacity:1" fill="#efb7bb" d="M 46.5,38.5 C 45.5144,40.4077 43.8477,41.4077 41.5,41.5C 42.6594,39.7497 44.326,38.7497 46.5,38.5 Z"/></g>
<g><path style="opacity:1" fill="#e48289" d="M 135.5,39.5 C 137.027,39.427 138.027,40.0937 138.5,41.5C 136.973,41.573 135.973,40.9063 135.5,39.5 Z"/></g>
<g><path style="opacity:1" fill="#ecc6c8" d="M 141.5,43.5 C 145.16,43.1588 148.493,43.8255 151.5,45.5C 147.671,46.069 144.337,45.4023 141.5,43.5 Z"/></g>
<g><path style="opacity:1" fill="#e7b2b6" d="M 38.5,43.5 C 33.7271,45.0217 28.7271,46.0217 23.5,46.5C 28.1259,44.3355 33.1259,43.3355 38.5,43.5 Z"/></g>
<g><path style="opacity:1" fill="#f3f5fa" d="M 151.5,45.5 C 153.216,45.6287 154.883,45.962 156.5,46.5C 156.973,47.9063 157.973,48.573 159.5,48.5C 160.167,48.8333 160.833,49.1667 161.5,49.5C 162.855,51.9289 164.522,53.2623 166.5,53.5C 167.167,55.5 167.833,57.5 168.5,59.5C 168.5,71.5 168.5,83.5 168.5,95.5C 167.239,98.2578 166.406,101.258 166,104.5C 165.502,106.544 164.335,107.878 162.5,108.5C 161.833,108.5 161.167,108.5 160.5,108.5C 158.181,108.008 156.181,107.008 154.5,105.5C 154.5,105.167 154.5,104.833 154.5,104.5C 155.552,104.649 156.552,104.483 157.5,104C 155.554,98.5923 153.721,93.0923 152,87.5C 150.698,86.9152 149.531,86.2485 148.5,85.5C 150.851,84.0839 150.851,82.4172 148.5,80.5C 148.065,77.8427 147.065,75.5093 145.5,73.5C 144.427,72.7494 144.26,71.7494 145,70.5C 147.222,68.6152 149.056,66.4485 150.5,64C 149.381,62.124 147.714,61.2907 145.5,61.5C 145.577,60.2502 146.244,59.4169 147.5,59C 145.258,55.2933 143.924,51.2933 143.5,47C 145.68,46.5812 147.846,46.7479 150,47.5C 152.359,47.676 152.859,47.0093 151.5,45.5 Z"/></g>
<g><path style="opacity:1" fill="#d0757b" d="M 156.5,46.5 C 158.027,46.427 159.027,47.0937 159.5,48.5C 157.973,48.573 156.973,47.9063 156.5,46.5 Z"/></g>
<g><path style="opacity:1" fill="#c86367" d="M 17.5,44.5 C 17.3225,45.6948 16.9891,46.8615 16.5,48C 16.8361,49.0299 17.5028,49.5299 18.5,49.5C 17.2073,51.2959 15.7073,52.9625 14,54.5C 13.8333,53.6667 13.6667,52.8333 13.5,52C 14.4912,49.1765 15.8246,46.6765 17.5,44.5 Z"/></g>
<g><path style="opacity:1" fill="#e9878f" d="M 78.5,52.5 C 80.3635,51.2072 82.3635,51.2072 84.5,52.5C 84.3764,53.1067 84.0431,53.44 83.5,53.5C 82.0813,52.5489 80.4147,52.2155 78.5,52.5 Z"/></g>
<g><path style="opacity:1" fill="#c86066" d="M 162.5,45.5 C 164.387,47.7886 165.721,50.4553 166.5,53.5C 164.522,53.2623 162.855,51.9289 161.5,49.5C 162.376,49.6309 163.043,49.2975 163.5,48.5C 162.873,47.5832 162.539,46.5832 162.5,45.5 Z"/></g>
<g><path style="opacity:1" fill="#b4c3e2" d="M 67.5,57.5 C 67.5,56.5 67.5,55.5 67.5,54.5C 63.4809,54.6458 59.4809,54.9791 55.5,55.5C 55.6107,54.8826 55.944,54.3826 56.5,54C 60.466,53.1721 64.466,52.6721 68.5,52.5C 68.7845,54.4147 68.4511,56.0813 67.5,57.5 Z"/></g>
<g><path style="opacity:1" fill="#95abd6" d="M 90.5,53.5 C 89.391,53.5569 88.391,53.8902 87.5,54.5C 88.0527,52.4482 89.0527,52.1148 90.5,53.5 Z"/></g>
<g><path style="opacity:1" fill="#0e3da4" d="M 90.5,53.5 C 90.8333,54.1667 91.1667,54.8333 91.5,55.5C 93.5,60.8333 95.5,60.8333 97.5,55.5C 99.1417,53.9192 101.142,53.2525 103.5,53.5C 103.5,60.1667 103.5,66.8333 103.5,73.5C 102.5,73.5 101.5,73.5 100.5,73.5C 100.5,69.5 100.5,65.5 100.5,61.5C 99.209,61.2627 98.209,61.596 97.5,62.5C 96.3995,63.6049 95.7329,64.9382 95.5,66.5C 93.5484,65.2153 91.8818,63.5486 90.5,61.5C 90.44,60.9569 90.1067,60.6236 89.5,60.5C 88.5078,64.7828 88.1744,69.1161 88.5,73.5C 87.1667,73.5 85.8333,73.5 84.5,73.5C 84.5,69.1667 84.5,64.8333 84.5,60.5C 86.0075,58.8185 87.0075,56.8185 87.5,54.5C 88.391,53.8902 89.391,53.5569 90.5,53.5 Z"/></g>
<g><path style="opacity:1" fill="#3760b4" d="M 104.5,52.5 C 104.825,59.6866 104.491,66.6866 103.5,73.5C 103.5,66.8333 103.5,60.1667 103.5,53.5C 101.142,53.2525 99.1417,53.9192 97.5,55.5C 97.4142,54.5041 97.7476,53.6708 98.5,53C 100.473,52.5045 102.473,52.3379 104.5,52.5 Z"/></g>
<g><path style="opacity:1" fill="#98aed8" d="M 104.5,52.5 C 105.492,59.6476 105.825,66.9809 105.5,74.5C 103.585,74.7845 101.919,74.4511 100.5,73.5C 101.5,73.5 102.5,73.5 103.5,73.5C 104.491,66.6866 104.825,59.6866 104.5,52.5 Z"/></g>
<g><path style="opacity:1" fill="#1941a6" d="M 67.5,57.5 C 64.1709,57.2153 61.1709,57.8819 58.5,59.5C 57.5655,60.5676 57.2322,61.901 57.5,63.5C 60.5,63.5 63.5,63.5 66.5,63.5C 66.5,64.5 66.5,65.5 66.5,66.5C 63.9039,67.2653 61.2372,67.5987 58.5,67.5C 58.5,69.1667 58.5,70.8333 58.5,72.5C 62.4911,71.872 63.8245,73.2053 62.5,76.5C 59.5176,76.9629 56.5176,77.2962 53.5,77.5C 52.8701,69.7572 53.5367,62.4238 55.5,55.5C 59.4809,54.9791 63.4809,54.6458 67.5,54.5C 67.5,55.5 67.5,56.5 67.5,57.5 Z"/></g>
<g><path style="opacity:1" fill="#dc2834" d="M 78.5,52.5 C 80.4147,52.2155 82.0813,52.5489 83.5,53.5C 82.8902,54.391 82.5569,55.391 82.5,56.5C 81.0937,56.9731 80.427,57.9731 80.5,59.5C 78.9348,61.5093 77.9348,63.8427 77.5,66.5C 76.6618,66.8417 76.3284,67.5084 76.5,68.5C 74.461,69.911 73.461,71.911 73.5,74.5C 71.2188,74.9227 69.5521,74.256 68.5,72.5C 70.2451,70.9674 71.2451,68.9674 71.5,66.5C 72.242,64.0202 73.242,61.6869 74.5,59.5C 75.9063,59.0269 76.573,58.0269 76.5,56.5C 76.6596,54.847 77.3263,53.5137 78.5,52.5 Z"/></g>
<g><path style="opacity:1" fill="#9aafd9" d="M 121.5,54.5 C 123.213,55.6354 123.88,57.302 123.5,59.5C 122.463,58.0697 121.796,56.403 121.5,54.5 Z"/></g>
<g><path style="opacity:1" fill="#4c6cba" d="M 91.5,55.5 C 92.4822,56.1408 93.4822,56.8075 94.5,57.5C 95.5178,56.8075 96.5178,56.1408 97.5,55.5C 95.5,60.8333 93.5,60.8333 91.5,55.5 Z"/></g>
<g><path style="opacity:1" fill="#7c98ce" d="M 67.5,57.5 C 64.7273,58.6572 61.7273,59.3239 58.5,59.5C 61.1709,57.8819 64.1709,57.2153 67.5,57.5 Z"/></g>
<g><path style="opacity:1" fill="#ee959c" d="M 76.5,56.5 C 76.573,58.0269 75.9063,59.0269 74.5,59.5C 74.427,57.9731 75.0937,56.9731 76.5,56.5 Z"/></g>
<g><path style="opacity:1" fill="#ea9299" d="M 82.5,56.5 C 82.573,58.0269 81.9063,59.0269 80.5,59.5C 80.427,57.9731 81.0937,56.9731 82.5,56.5 Z"/></g>
<g><path style="opacity:1" fill="#6986c6" d="M 116.5,56.5 C 116.573,58.0269 115.906,59.0269 114.5,59.5C 114.427,57.9731 115.094,56.9731 116.5,56.5 Z"/></g>
<g><path style="opacity:1" fill="#8fa5d4" d="M 137.5,58.5 C 136.325,58.281 135.325,58.6143 134.5,59.5C 135.127,60.4168 135.461,61.4168 135.5,62.5C 133.787,61.3646 133.12,59.698 133.5,57.5C 135.099,57.2322 136.432,57.5655 137.5,58.5 Z"/></g>
<g><path style="opacity:1" fill="#89a2d2" d="M 58.5,59.5 C 58.5,60.5 58.5,61.5 58.5,62.5C 60.5,62.5 62.5,62.5 64.5,62.5C 65.5,62.5 66.5,62.5 67.5,62.5C 67.7678,64.099 67.4345,65.4324 66.5,66.5C 66.5,65.5 66.5,64.5 66.5,63.5C 63.5,63.5 60.5,63.5 57.5,63.5C 57.2322,61.901 57.5655,60.5676 58.5,59.5 Z"/></g>
<g><path style="opacity:1" fill="#6386c5" d="M 90.5,61.5 C 89.5166,65.2984 89.1832,69.2984 89.5,73.5C 89.1667,73.5 88.8333,73.5 88.5,73.5C 88.1744,69.1161 88.5078,64.7828 89.5,60.5C 90.1067,60.6236 90.44,60.9569 90.5,61.5 Z"/></g>
<g><path style="opacity:1" fill="#c3d0e8" d="M 97.5,62.5 C 99.4136,65.6843 100.08,69.351 99.5,73.5C 98.6805,70.6946 98.1805,67.6946 98,64.5C 97.2917,65.3805 96.4584,66.0472 95.5,66.5C 95.7329,64.9382 96.3995,63.6049 97.5,62.5 Z"/></g>
<g><path style="opacity:1" fill="#627ec2" d="M 44.5,60.5 C 40.0108,60.8867 35.6775,61.8867 31.5,63.5C 31.5,70.5 31.5,77.5 31.5,84.5C 30.1806,77.3231 30.1806,69.9898 31.5,62.5C 35.7672,60.0428 40.1005,59.3762 44.5,60.5 Z"/></g>
<g><path style="opacity:1" fill="#6485c4" d="M 97.5,62.5 C 98.209,61.596 99.209,61.2627 100.5,61.5C 100.5,65.5 100.5,69.5 100.5,73.5C 100.167,73.5 99.8333,73.5 99.5,73.5C 100.08,69.351 99.4136,65.6843 97.5,62.5 Z"/></g>
<g><path style="opacity:1" fill="#a7b9dd" d="M 113.5,62.5 C 113.008,64.8185 112.008,66.8185 110.5,68.5C 110.461,65.911 111.461,63.911 113.5,62.5 Z"/></g>
<g><path style="opacity:1" fill="#1f45a8" d="M 137.5,58.5 C 138.924,61.0179 140.591,63.3512 142.5,65.5C 143.524,64.1482 144.524,62.8149 145.5,61.5C 147.714,61.2907 149.381,62.124 150.5,64C 149.056,66.4485 147.222,68.6152 145,70.5C 144.26,71.7494 144.427,72.7494 145.5,73.5C 145.166,76.491 146.166,78.8243 148.5,80.5C 148.719,81.675 148.386,82.675 147.5,83.5C 146.482,82.8075 145.482,82.1408 144.5,81.5C 144.107,79.7162 143.441,78.0495 142.5,76.5C 141.053,75.1148 140.053,75.4482 139.5,77.5C 138.18,78.9418 136.514,79.6085 134.5,79.5C 133.624,79.6309 132.957,79.2975 132.5,78.5C 134.535,75.4757 136.535,72.4757 138.5,69.5C 138.061,66.8239 137.061,64.4905 135.5,62.5C 135.461,61.4168 135.127,60.4168 134.5,59.5C 135.325,58.6143 136.325,58.281 137.5,58.5 Z"/></g>
<g><path style="opacity:1" fill="#f2f5fa" d="M 26.5,103.5 C 24.6508,104.593 22.9842,105.926 21.5,107.5C 18.5041,108.474 16.8375,110.474 16.5,113.5C 10.8187,98.1038 8.98534,82.1038 11,65.5C 11.2104,62.7658 12.0437,60.2658 13.5,58C 14.6001,57.5683 15.2668,58.0683 15.5,59.5C 17.0137,66.9669 18.847,74.3003 21,81.5C 22.3663,88.3127 23.3663,95.3127 24,102.5C 24.6708,103.252 25.5041,103.586 26.5,103.5 Z"/></g>
<g><path style="opacity:1" fill="#f5c3c7" d="M 80.5,59.5 C 80.8337,62.491 79.8337,64.8243 77.5,66.5C 77.9348,63.8427 78.9348,61.5093 80.5,59.5 Z"/></g>
<g><path style="opacity:1" fill="#1b43a7" d="M 121.5,54.5 C 121.796,56.403 122.463,58.0697 123.5,59.5C 124.434,60.5676 124.768,61.901 124.5,63.5C 124.41,66.1522 125.076,68.4855 126.5,70.5C 127.11,71.391 127.443,72.391 127.5,73.5C 127.843,75.4832 127.176,76.8166 125.5,77.5C 123.649,72.2046 119.982,70.5379 114.5,72.5C 114.137,73.1835 113.804,73.8501 113.5,74.5C 109.814,74.87 108.814,73.5367 110.5,70.5C 110.5,69.8333 110.5,69.1667 110.5,68.5C 112.008,66.8185 113.008,64.8185 113.5,62.5C 114.11,61.609 114.443,60.609 114.5,59.5C 115.906,59.0269 116.573,58.0269 116.5,56.5C 117.552,54.744 119.219,54.0773 121.5,54.5 Z"/></g>
<g><path style="opacity:1" fill="#c0cce6" d="M 118.5,61.5 C 120.28,62.9899 120.946,64.9899 120.5,67.5C 119.167,67.5 117.833,67.5 116.5,67.5C 116.604,65.2972 117.27,63.2972 118.5,61.5 Z"/></g>
<g><path style="opacity:1" fill="#5473bc" d="M 124.5,63.5 C 125.924,65.5145 126.59,67.8478 126.5,70.5C 125.076,68.4855 124.41,66.1522 124.5,63.5 Z"/></g>
<g><path style="opacity:1" fill="#1b42a7" d="M 44.5,60.5 C 46.4779,61.3171 47.4779,62.8171 47.5,65C 46.9558,68.0884 45.6225,70.755 43.5,73C 45.3875,74.3937 46.7209,76.227 47.5,78.5C 44.0052,81.3372 41.3385,80.6705 39.5,76.5C 38.4324,75.5655 37.099,75.2322 35.5,75.5C 35.5,78.1667 35.5,80.8333 35.5,83.5C 34.2921,84.2341 32.9587,84.5674 31.5,84.5C 31.5,77.5 31.5,70.5 31.5,63.5C 35.6775,61.8867 40.0108,60.8867 44.5,60.5 Z"/></g>
<g><path style="opacity:1" fill="#c0cee7" d="M 40.5,69.5 C 39.3646,71.2132 37.698,71.8799 35.5,71.5C 35.5,69.1667 35.5,66.8333 35.5,64.5C 37.5273,64.3379 39.5273,64.5045 41.5,65C 42.9156,66.9151 42.5822,68.4151 40.5,69.5 Z"/></g>
<g><path style="opacity:1" fill="#fbfcfd" d="M 40.5,69.5 C 39.1667,69.5 37.8333,69.5 36.5,69.5C 36.1667,66.5 37.5,65.1667 40.5,65.5C 40.5,66.8333 40.5,68.1667 40.5,69.5 Z"/></g>
<g><path style="opacity:1" fill="#d2dcee" d="M 64.5,62.5 C 65.5676,61.5655 66.901,61.2322 68.5,61.5C 68.7989,63.604 68.4656,65.604 67.5,67.5C 64.6843,68.0182 62.0176,68.8515 59.5,70C 61.1341,70.4935 62.8008,70.6602 64.5,70.5C 64.9746,73.0821 64.3079,75.0821 62.5,76.5C 63.8245,73.2053 62.4911,71.872 58.5,72.5C 58.5,70.8333 58.5,69.1667 58.5,67.5C 61.2372,67.5987 63.9039,67.2653 66.5,66.5C 67.4345,65.4324 67.7678,64.099 67.5,62.5C 66.5,62.5 65.5,62.5 64.5,62.5 Z"/></g>
<g><path style="opacity:1" fill="#ec8990" d="M 71.5,66.5 C 71.2451,68.9674 70.2451,70.9674 68.5,72.5C 68.7549,70.0326 69.7549,68.0326 71.5,66.5 Z"/></g>
<g><path style="opacity:1" fill="#7c96c9" d="M 110.5,70.5 C 108.814,73.5367 109.814,74.87 113.5,74.5C 112.081,75.4511 110.415,75.7845 108.5,75.5C 108.12,73.302 108.787,71.6354 110.5,70.5 Z"/></g>
<g><path style="opacity:1" fill="#f1a8ad" d="M 76.5,68.5 C 76.3211,74.3313 73.3211,76.6646 67.5,75.5C 67.2627,74.209 67.596,73.209 68.5,72.5C 69.5521,74.256 71.2188,74.9227 73.5,74.5C 73.461,71.911 74.461,69.911 76.5,68.5 Z"/></g>
<g><path style="opacity:1" fill="#c7d3e9" d="M 84.5,60.5 C 84.5,64.8333 84.5,69.1667 84.5,73.5C 85.8333,73.5 87.1667,73.5 88.5,73.5C 88.8333,73.5 89.1667,73.5 89.5,73.5C 88.0821,75.3079 86.0821,75.9746 83.5,75.5C 83.1795,70.3054 83.5128,65.3054 84.5,60.5 Z"/></g>
<g><path style="opacity:1" fill="#92a9d6" d="M 142.5,76.5 C 141.391,76.5569 140.391,76.8902 139.5,77.5C 140.053,75.4482 141.053,75.1148 142.5,76.5 Z"/></g>
<g><path style="opacity:1" fill="#617dc2" d="M 145.5,73.5 C 147.065,75.5093 148.065,77.8427 148.5,80.5C 146.166,78.8243 145.166,76.491 145.5,73.5 Z"/></g>
<g><path style="opacity:1" fill="#7d97ce" d="M 127.5,73.5 C 128.931,74.7804 129.598,76.4471 129.5,78.5C 127.901,78.7678 126.568,78.4345 125.5,77.5C 127.176,76.8166 127.843,75.4832 127.5,73.5 Z"/></g>
<g><path style="opacity:1" fill="#99add7" d="M 139.5,77.5 C 139.586,78.4959 139.252,79.3292 138.5,80C 136.934,80.765 135.601,80.5983 134.5,79.5C 136.514,79.6085 138.18,78.9418 139.5,77.5 Z"/></g>
<g><path style="opacity:1" fill="#7996cc" d="M 39.5,76.5 C 38.5,76.5 37.5,76.5 36.5,76.5C 36.8016,79.0593 36.4682,81.3926 35.5,83.5C 35.5,80.8333 35.5,78.1667 35.5,75.5C 37.099,75.2322 38.4324,75.5655 39.5,76.5 Z"/></g>
<g><path style="opacity:1" fill="#849cd0" d="M 148.5,80.5 C 150.851,82.4172 150.851,84.0839 148.5,85.5C 147.469,84.7515 146.302,84.0848 145,83.5C 144.536,82.9056 144.369,82.2389 144.5,81.5C 145.482,82.1408 146.482,82.8075 147.5,83.5C 148.386,82.675 148.719,81.675 148.5,80.5 Z"/></g>
<g><path style="opacity:1" fill="#b3c3e2" d="M 82.5,89.5 C 87.3158,88.3503 92.3158,88.1837 97.5,89C 100.457,89.2794 103.123,90.1127 105.5,91.5C 99.5209,90.6693 93.5209,90.0027 87.5,89.5C 85.8333,89.5 84.1667,89.5 82.5,89.5 Z"/></g>
<g><path style="opacity:1" fill="#003ba3" d="M 87.5,89.5 C 93.5209,90.0027 99.5209,90.6693 105.5,91.5C 107.395,93.2413 109.728,94.2413 112.5,94.5C 112.951,126.476 106.951,157.142 94.5,186.5C 91.1667,186.5 87.8333,186.5 84.5,186.5C 84.2532,182.589 82.7532,179.256 80,176.5C 78.1054,166.585 75.4388,156.918 72,147.5C 71.0605,138.771 69.7272,130.105 68,121.5C 67.4997,112.495 66.9997,103.495 66.5,94.5C 67.1667,94.5 67.5,94.1667 67.5,93.5C 69.0418,92.6993 70.7085,92.366 72.5,92.5C 77.6029,91.4125 82.6029,90.4125 87.5,89.5 Z"/></g>
<g><path style="opacity:1" fill="#4265b7" d="M 82.5,89.5 C 84.1667,89.5 85.8333,89.5 87.5,89.5C 82.6029,90.4125 77.6029,91.4125 72.5,92.5C 75.5046,90.7234 78.8379,89.7234 82.5,89.5 Z"/></g>
<g><path style="opacity:1" fill="#afbfdc" d="M 67.5,93.5 C 67.5,94.1667 67.1667,94.5 66.5,94.5C 60.7876,94.313 55.1209,94.6463 49.5,95.5C 49.9175,94.7784 50.5842,94.2784 51.5,94C 56.8229,93.5006 62.1563,93.334 67.5,93.5 Z"/></g>
<g><path style="opacity:1" fill="#7b92ca" d="M 105.5,91.5 C 111.567,92.8291 117.567,93.8291 123.5,94.5C 119.833,94.5 116.167,94.5 112.5,94.5C 109.728,94.2413 107.395,93.2413 105.5,91.5 Z"/></g>
<g><path style="opacity:1" fill="#869dc8" d="M 123.5,94.5 C 126.495,94.2938 129.162,94.9605 131.5,96.5C 128.572,96.4349 125.905,95.7682 123.5,94.5 Z"/></g>
<g><path style="opacity:1" fill="#06388c" d="M 66.5,94.5 C 66.9997,103.495 67.4997,112.495 68,121.5C 69.7272,130.105 71.0605,138.771 72,147.5C 75.4388,156.918 78.1054,166.585 80,176.5C 82.7532,179.256 84.2532,182.589 84.5,186.5C 87.8333,186.5 91.1667,186.5 94.5,186.5C 96.5,186.5 98.5,186.5 100.5,186.5C 100.5,186.833 100.5,187.167 100.5,187.5C 93.3134,187.825 86.3134,187.491 79.5,186.5C 73.5624,175.991 67.0624,165.658 60,155.5C 55.5982,145.143 50.4315,135.31 44.5,126C 42.2313,118.64 39.5647,111.473 36.5,104.5C 34.9547,103.548 33.288,103.215 31.5,103.5C 33.2922,102.691 35.2922,102.191 37.5,102C 41.1574,99.0078 45.1574,96.8412 49.5,95.5C 55.1209,94.6463 60.7876,94.313 66.5,94.5 Z"/></g>
<g><path style="opacity:1" fill="#01378b" d="M 112.5,94.5 C 116.167,94.5 119.833,94.5 123.5,94.5C 125.905,95.7682 128.572,96.4349 131.5,96.5C 134.086,97.0098 136.419,98.0098 138.5,99.5C 138.973,100.906 139.973,101.573 141.5,101.5C 141.5,102.167 141.833,102.5 142.5,102.5C 140.223,109.752 137.89,117.086 135.5,124.5C 125.19,144.114 114.523,163.448 103.5,182.5C 102.833,183.5 102.167,184.5 101.5,185.5C 100.833,185.5 100.5,185.833 100.5,186.5C 98.5,186.5 96.5,186.5 94.5,186.5C 106.951,157.142 112.951,126.476 112.5,94.5 Z"/></g>
<g><path style="opacity:1" fill="#92a6cc" d="M 138.5,99.5 C 140.027,99.427 141.027,100.094 141.5,101.5C 139.973,101.573 138.973,100.906 138.5,99.5 Z"/></g>
<g><path style="opacity:1" fill="#869ac4" d="M 149.5,103.5 C 151.292,103.366 152.958,103.699 154.5,104.5C 154.5,104.833 154.5,105.167 154.5,105.5C 152.447,105.598 150.78,104.931 149.5,103.5 Z"/></g>
<g><path style="opacity:1" fill="#052d70" d="M 31.5,103.5 C 33.288,103.215 34.9547,103.548 36.5,104.5C 39.5647,111.473 42.2313,118.64 44.5,126C 50.4315,135.31 55.5982,145.143 60,155.5C 67.0624,165.658 73.5624,175.991 79.5,186.5C 79.1667,186.5 78.8333,186.5 78.5,186.5C 72.1667,179.833 65.8333,173.167 59.5,166.5C 58.8333,165.167 57.8333,164.167 56.5,163.5C 53.8605,160.194 50.8605,157.194 47.5,154.5C 46.9202,152.251 45.5869,150.585 43.5,149.5C 42.5,147.833 41.1667,146.5 39.5,145.5C 38.9202,143.251 37.5869,141.585 35.5,140.5C 33.1829,136.854 30.5162,133.52 27.5,130.5C 27.573,128.973 26.9063,127.973 25.5,127.5C 24.4884,126.128 23.4884,124.795 22.5,123.5C 22.573,121.973 21.9063,120.973 20.5,120.5C 19.1618,118.132 17.8285,115.798 16.5,113.5C 16.8375,110.474 18.5041,108.474 21.5,107.5C 23.3911,106.464 25.2245,106.464 27,107.5C 27.9066,105.391 29.4066,104.058 31.5,103.5 Z"/></g>
<g><path style="opacity:1" fill="#042d6f" d="M 142.5,102.5 C 144.861,102.674 147.194,103.007 149.5,103.5C 150.78,104.931 152.447,105.598 154.5,105.5C 156.181,107.008 158.181,108.008 160.5,108.5C 161.582,109.594 162.248,110.927 162.5,112.5C 161.822,114.516 161.156,116.516 160.5,118.5C 159.094,118.973 158.427,119.973 158.5,121.5C 157.094,121.973 156.427,122.973 156.5,124.5C 153.025,128.104 150.025,132.104 147.5,136.5C 145.413,137.585 144.08,139.251 143.5,141.5C 142.5,141.833 141.833,142.5 141.5,143.5C 139.413,144.585 138.08,146.251 137.5,148.5C 136.833,148.5 136.5,148.833 136.5,149.5C 134.5,150.833 132.833,152.5 131.5,154.5C 130.833,155.5 130.167,156.5 129.5,157.5C 127.5,157.5 126.5,158.5 126.5,160.5C 123.833,162.5 121.5,164.833 119.5,167.5C 117.167,169.167 115.167,171.167 113.5,173.5C 111.167,175.167 109.167,177.167 107.5,179.5C 106.167,180.5 104.833,181.5 103.5,182.5C 114.523,163.448 125.19,144.114 135.5,124.5C 137.89,117.086 140.223,109.752 142.5,102.5 Z"/></g>
<g><path style="opacity:1" fill="#3c5390" d="M 26.5,103.5 C 28.1667,103.5 29.8333,103.5 31.5,103.5C 29.4066,104.058 27.9066,105.391 27,107.5C 25.2245,106.464 23.3911,106.464 21.5,107.5C 22.9842,105.926 24.6508,104.593 26.5,103.5 Z"/></g>
<g><path style="opacity:1" fill="#c3cee3" d="M 160.5,108.5 C 161.167,108.5 161.833,108.5 162.5,108.5C 163.537,110.738 163.703,113.071 163,115.5C 162.764,117.119 161.931,118.119 160.5,118.5C 161.156,116.516 161.822,114.516 162.5,112.5C 162.248,110.927 161.582,109.594 160.5,108.5 Z"/></g>
<g><path style="opacity:1" fill="#94a6c8" d="M 160.5,118.5 C 160.573,120.027 159.906,121.027 158.5,121.5C 158.427,119.973 159.094,118.973 160.5,118.5 Z"/></g>
<g><path style="opacity:1" fill="#93a5c8" d="M 20.5,120.5 C 21.9063,120.973 22.573,121.973 22.5,123.5C 21.0937,123.027 20.427,122.027 20.5,120.5 Z"/></g>
<g><path style="opacity:1" fill="#90a3c6" d="M 158.5,121.5 C 158.573,123.027 157.906,124.027 156.5,124.5C 156.427,122.973 157.094,121.973 158.5,121.5 Z"/></g>
<g><path style="opacity:1" fill="#889bbf" d="M 25.5,127.5 C 26.9063,127.973 27.573,128.973 27.5,130.5C 26.0937,130.027 25.427,129.027 25.5,127.5 Z"/></g>
<g><path style="opacity:1" fill="#9eaecf" d="M 147.5,136.5 C 146.92,138.749 145.587,140.415 143.5,141.5C 144.08,139.251 145.413,137.585 147.5,136.5 Z"/></g>
<g><path style="opacity:1" fill="#a2b2d1" d="M 35.5,140.5 C 37.5869,141.585 38.9202,143.251 39.5,145.5C 37.4131,144.415 36.0798,142.749 35.5,140.5 Z"/></g>
<g><path style="opacity:1" fill="#99aaca" d="M 141.5,143.5 C 140.92,145.749 139.587,147.415 137.5,148.5C 138.08,146.251 139.413,144.585 141.5,143.5 Z"/></g>
<g><path style="opacity:1" fill="#9aaacb" d="M 43.5,149.5 C 45.5869,150.585 46.9202,152.251 47.5,154.5C 45.4131,153.415 44.0798,151.749 43.5,149.5 Z"/></g>
<g><path style="opacity:1" fill="#b5c2dd" d="M 136.5,149.5 C 135.833,152.167 134.167,153.833 131.5,154.5C 132.833,152.5 134.5,150.833 136.5,149.5 Z"/></g>
<g><path style="opacity:1" fill="#91a1c4" d="M 129.5,157.5 C 128.833,158.833 127.833,159.833 126.5,160.5C 126.5,158.5 127.5,157.5 129.5,157.5 Z"/></g>
<g><path style="opacity:1" fill="#95a7c8" d="M 56.5,163.5 C 57.8333,164.167 58.8333,165.167 59.5,166.5C 57.5,166.5 56.5,165.5 56.5,163.5 Z"/></g>
<g><path style="opacity:1" fill="#afbcd5" d="M 119.5,167.5 C 118.5,170.5 116.5,172.5 113.5,173.5C 115.167,171.167 117.167,169.167 119.5,167.5 Z"/></g>
<g><path style="opacity:1" fill="#abb8d1" d="M 113.5,173.5 C 112.5,176.5 110.5,178.5 107.5,179.5C 109.167,177.167 111.167,175.167 113.5,173.5 Z"/></g>
<g><path style="opacity:1" fill="#afbbd4" d="M 107.5,179.5 C 106.5,182.5 104.5,184.5 101.5,185.5C 102.167,184.5 102.833,183.5 103.5,182.5C 104.833,181.5 106.167,180.5 107.5,179.5 Z"/></g>
<g><path style="opacity:1" fill="#c9d5ea" d="M 78.5,186.5 C 78.8333,186.5 79.1667,186.5 79.5,186.5C 86.3134,187.491 93.3134,187.825 100.5,187.5C 97.0159,188.165 93.3492,188.499 89.5,188.5C 85.4348,188.489 81.7681,187.822 78.5,186.5 Z"/></g>
<g><path style="opacity:1" fill="#8a8b8e" d="M 98.5,197.5 C 92.8333,196.167 87.1667,196.167 81.5,197.5C 80.9569,197.44 80.6236,197.107 80.5,196.5C 86.8333,195.167 93.1667,195.167 99.5,196.5C 99.3764,197.107 99.0431,197.44 98.5,197.5 Z"/></g>
<g><path style="opacity:1" fill="#3e3e40" d="M 81.5,197.5 C 87.1667,196.167 92.8333,196.167 98.5,197.5C 98.1667,197.5 97.8333,197.5 97.5,197.5C 94.8333,197.5 92.1667,197.5 89.5,197.5C 89.5,199.833 89.5,202.167 89.5,204.5C 87.5,204.5 85.5,204.5 83.5,204.5C 83.5905,201.848 82.9238,199.515 81.5,197.5 Z"/></g>
<g><path style="opacity:1" fill="#5d5f63" d="M 97.5,197.5 C 97.0074,199.806 96.6741,202.139 96.5,204.5C 94.1667,204.5 91.8333,204.5 89.5,204.5C 89.5,202.167 89.5,199.833 89.5,197.5C 92.1667,197.5 94.8333,197.5 97.5,197.5 Z"/></g>
<g><path style="opacity:1" fill="#b1b3b6" d="M 81.5,197.5 C 82.9238,199.515 83.5905,201.848 83.5,204.5C 83.1667,204.5 82.8333,204.5 82.5,204.5C 82.0074,202.194 81.6741,199.861 81.5,197.5 Z"/></g>
<g><path style="opacity:1" fill="#b5bbc7" d="M 97.5,197.5 C 97.8333,197.5 98.1667,197.5 98.5,197.5C 98.3259,199.861 97.9926,202.194 97.5,204.5C 97.1667,204.5 96.8333,204.5 96.5,204.5C 96.6741,202.139 97.0074,199.806 97.5,197.5 Z"/></g>
</svg>
