<svg width="136" height="136" viewBox="0 0 136 136" fill="none" xmlns="http://www.w3.org/2000/svg">
<g filter="url(#filter0_d_64_507)">
<circle cx="68" cy="66" r="62" fill="#D3BDEA"/>
</g>
<circle cx="68" cy="66" r="55" fill="white"/>
<path d="M44.5962 96.436V101H43.4219V96.4233C43.4219 95.6447 43.2632 95.0946 42.9458 94.7729C42.6326 94.4513 42.0889 94.2905 41.3145 94.2905H38.3564V93.2114H41.3335C42.1121 93.2114 42.7406 93.3215 43.2188 93.5415C43.6969 93.7573 44.0461 94.1022 44.2661 94.5762C44.4862 95.0459 44.5962 95.6659 44.5962 96.436ZM39.6514 95.9409V101H38.4834V95.9409H39.6514ZM52.5752 100.213C52.2832 100.408 51.9193 100.566 51.4834 100.689C51.0518 100.812 50.5101 100.903 49.8584 100.962C49.2067 101.021 48.4006 101.055 47.4399 101.063L45.9546 93.2114H47.167L47.9478 97.2168L48.4111 97.1279C48.665 97.0687 48.8745 96.9925 49.0396 96.8994C49.2046 96.8021 49.3358 96.6667 49.4331 96.4932C49.5135 96.3577 49.5749 96.1906 49.6172 95.9917C49.6595 95.7928 49.6912 95.5558 49.7124 95.2808L49.8711 93.2114H51.0771L50.8804 95.2935C50.8507 95.6447 50.8148 95.9494 50.7725 96.2075C50.7301 96.4614 50.6794 96.6667 50.6201 96.8232C50.5143 97.1406 50.3556 97.3861 50.144 97.5596C49.9325 97.7288 49.5812 97.8791 49.0903 98.0103L48.1382 98.2324L48.4492 99.8701H48.6016C49.4521 99.8701 50.1335 99.8215 50.6455 99.7241C51.1576 99.6226 51.5617 99.466 51.8579 99.2544C52.0568 99.1105 52.224 98.9328 52.3594 98.7212C52.4948 98.5096 52.609 98.2303 52.7021 97.8833C52.7952 97.5363 52.8735 97.0898 52.937 96.5439L53.3369 93.2114H54.562L54.1558 96.4995C54.0711 97.2358 53.9611 97.8431 53.8257 98.3213C53.6903 98.7952 53.521 99.1803 53.3179 99.4766C53.119 99.7686 52.8714 100.014 52.5752 100.213ZM57.3994 93.2114V97.3057H56.2314V93.2114H57.3994ZM60.1543 93.2114C60.5225 93.2114 60.8229 93.241 61.0557 93.3003C61.2926 93.3553 61.4873 93.4611 61.6396 93.6177C61.792 93.77 61.9274 93.9943 62.0459 94.2905C62.1094 94.4386 62.1834 94.6693 62.2681 94.9824C62.3527 95.2913 62.45 95.6849 62.5601 96.1631L63.6646 101H62.5093L61.792 97.8008C61.4365 97.8896 61.1763 97.9976 61.0112 98.1245C60.8504 98.2515 60.7171 98.4398 60.6113 98.6895C60.5563 98.8122 60.5034 98.973 60.4526 99.1719C60.4061 99.3665 60.3595 99.5951 60.313 99.8574L60.1035 101H58.9038L59.126 99.8447C59.2233 99.3411 59.3206 98.9349 59.418 98.626C59.5195 98.3128 59.6465 98.0589 59.7988 97.8643C59.9215 97.7035 60.0718 97.5638 60.2495 97.4453C60.4272 97.3226 60.6833 97.2126 61.0176 97.1152L61.5952 96.9438C61.4894 96.4953 61.3963 96.1208 61.3159 95.8203C61.2355 95.5156 61.1678 95.285 61.1128 95.1284C61.0028 94.8153 60.8822 94.5973 60.751 94.4746C60.6198 94.3519 60.4336 94.2905 60.1924 94.2905H59.3354V93.2114H60.1543ZM70.0312 96.6709C70.0312 95.8711 69.8556 95.2744 69.5044 94.8809C69.1532 94.4873 68.6009 94.2905 67.8477 94.2905H66.0957V96.4868H67.6382V97.5659H64.9087V93.2114H67.8604C68.9945 93.2114 69.8366 93.495 70.3867 94.062C70.9411 94.6248 71.2183 95.5029 71.2183 96.6963V97.2168C71.2183 99.7389 70.0249 101 67.6382 101H64.9785V99.9209H67.6699C68.474 99.9209 69.0685 99.6987 69.4536 99.2544C69.8387 98.8058 70.0312 98.1309 70.0312 97.2295V96.6709ZM75.8521 99.9717C77.0243 99.9717 77.9425 99.8638 78.6069 99.6479L76.252 93.2114H77.5405L79.6226 99.1528C80.0203 98.8693 80.3398 98.4906 80.5811 98.0166C80.8265 97.5384 81.0042 96.9121 81.1143 96.1377C81.2285 95.3633 81.2856 94.3879 81.2856 93.2114H82.5107C82.5107 95.1665 82.3034 96.6984 81.8887 97.8071C81.6094 98.5435 81.2179 99.1528 80.7144 99.6353C80.2108 100.113 79.5612 100.482 78.7656 100.74C77.9743 100.994 77.0031 101.15 75.8521 101.209V99.9717ZM90.2104 99.9209V101H83.4121V99.9209H88.1982V96.4233C88.1982 95.6447 88.0396 95.0946 87.7222 94.7729C87.409 94.4513 86.8652 94.2905 86.0908 94.2905H83.7104V93.2114H86.1035C87.2715 93.2114 88.1073 93.4611 88.6108 93.9604C89.1144 94.4598 89.3662 95.285 89.3662 96.436V99.9209H90.2104ZM97.8975 95.6299C97.8975 96.4255 97.7367 97.1808 97.415 97.896C97.0934 98.6112 96.6385 99.2523 96.0503 99.8193C95.4621 100.382 94.7638 100.833 93.9556 101.171V99.832C94.84 99.4342 95.5192 98.882 95.9932 98.1753C96.4714 97.4644 96.7104 96.6688 96.7104 95.7886C96.7104 95.2215 96.5856 94.8301 96.3359 94.6143C96.0905 94.3984 95.6652 94.2905 95.0601 94.2905H91.7212V93.2114H95.0093C96.0545 93.2114 96.7972 93.3997 97.2373 93.7764C97.6774 94.1488 97.8975 94.7666 97.8975 95.6299ZM93.2129 95.9409V103.444H92.0449V95.9409H93.2129Z" fill="#6929AC"/>
<g clip-path="url(#clip0_64_507)">
<path d="M40.0551 40.8757C40.0507 40.6135 40.0852 40.3525 40.1567 40.1013L40.2407 39.8532C40.337 39.6091 40.4688 39.3804 40.6313 39.1755L40.8041 38.9782C40.9866 38.7896 41.1958 38.6297 41.4243 38.5026L41.6586 38.3864C41.8993 38.282 42.1538 38.2143 42.4135 38.1843L42.6752 38.1667H47.9448V40.7224H42.6108V80.8337H93.3891V50.8757C94.2751 50.6054 95.1311 50.2473 95.9448 49.8063V80.6794C95.9492 80.9418 95.9148 81.2033 95.8432 81.4548L95.7592 81.7028C95.6629 81.9469 95.5309 82.1747 95.3686 82.3796L95.1957 82.5768C94.9525 82.8284 94.6622 83.0293 94.3412 83.1686C94.0202 83.308 93.6746 83.3835 93.3246 83.3893H42.6752C42.3253 83.3835 41.9797 83.308 41.6586 83.1686C41.418 83.0642 41.1948 82.9247 40.9955 82.7556L40.8041 82.5768C40.6217 82.3881 40.4685 82.1738 40.3491 81.9411L40.2407 81.7028C40.1443 81.4586 40.0851 81.2018 40.0639 80.9411L40.0551 80.6794V40.8845H40.0561L40.0551 40.8757Z" stroke="#6929AC"/>
<path d="M50.2222 51.8889H53.7778V55.4445H50.2222V51.8889Z" fill="#6929AC"/>
<path d="M60.8889 51.8889H64.4445V55.4445H60.8889V51.8889Z" fill="#6929AC"/>
<path d="M71.5555 51.8889H75.1111V55.4445H71.5555V51.8889Z" fill="#6929AC"/>
<path d="M82.2222 51.8889H85.7778V55.4445H82.2222V51.8889Z" fill="#6929AC"/>
<path d="M50.2222 60.7778H53.7778V64.3333H50.2222V60.7778Z" fill="#6929AC"/>
<path d="M60.8889 60.7778H64.4445V64.3333H60.8889V60.7778Z" fill="#6929AC"/>
<path d="M71.5555 60.7778H75.1111V64.3333H71.5555V60.7778Z" fill="#6929AC"/>
<path d="M82.2222 60.7778H85.7778V64.3333H82.2222V60.7778Z" fill="#6929AC"/>
<path d="M50.2222 69.6667H53.7778V73.2222H50.2222V69.6667Z" fill="#6929AC"/>
<path d="M60.8889 69.6667H64.4445V73.2222H60.8889V69.6667Z" fill="#6929AC"/>
<path d="M71.5555 69.6667H75.1111V73.2222H71.5555V69.6667Z" fill="#6929AC"/>
<path d="M82.2222 69.6667H85.7778V73.2222H82.2222V69.6667Z" fill="#6929AC"/>
<path d="M53.7773 31.0555C54.0739 31.0555 54.3605 31.1583 54.5879 31.3446L54.6816 31.4296C54.9211 31.6691 55.0555 31.9942 55.0557 32.3329V42.9999C55.0557 43.2962 54.9527 43.5821 54.7666 43.8094L54.6816 43.9032C54.442 44.1428 54.1162 44.2782 53.7773 44.2782C53.4809 44.2781 53.1951 44.1745 52.9678 43.9882L52.874 43.9032C52.6346 43.6636 52.5 43.3386 52.5 42.9999V32.3329C52.5001 32.0365 52.6029 31.7506 52.7891 31.5233L52.874 31.4296C53.0837 31.2199 53.3589 31.0905 53.6514 31.0614L53.7773 31.0555Z" stroke="#6929AC"/>
<path d="M75.5115 38.1667C75.546 39.0276 75.6616 39.883 75.8552 40.7224H59.6111V38.1667H75.5115Z" stroke="#6929AC"/>
<path d="M89.3331 29.2778C93.9661 29.2778 97.7217 33.0335 97.7218 37.6664C97.7218 42.2995 93.9662 46.0551 89.3331 46.0551C84.7002 46.055 80.9445 42.2994 80.9445 37.6664C80.9446 33.0336 84.7002 29.2779 89.3331 29.2778Z" stroke="#6929AC"/>
</g>
<defs>
<filter id="filter0_d_64_507" x="0" y="0" width="136" height="136" filterUnits="userSpaceOnUse" color-interpolation-filters="sRGB">
<feFlood flood-opacity="0" result="BackgroundImageFix"/>
<feColorMatrix in="SourceAlpha" type="matrix" values="0 0 0 0 0 0 0 0 0 0 0 0 0 0 0 0 0 0 127 0" result="hardAlpha"/>
<feOffset dy="2"/>
<feGaussianBlur stdDeviation="3"/>
<feComposite in2="hardAlpha" operator="out"/>
<feColorMatrix type="matrix" values="0 0 0 0 0 0 0 0 0 0 0 0 0 0 0 0 0 0 0.25 0"/>
<feBlend mode="normal" in2="BackgroundImageFix" result="effect1_dropShadow_64_507"/>
<feBlend mode="normal" in="SourceGraphic" in2="effect1_dropShadow_64_507" result="shape"/>
</filter>
<clipPath id="clip0_64_507">
<rect width="64" height="64" fill="white" transform="translate(36 27)"/>
</clipPath>
</defs>
</svg>
