<svg width="56" height="56" viewBox="0 0 56 56" fill="none" xmlns="http://www.w3.org/2000/svg">
<g clip-path="url(#clip0_103_177)">
<circle cx="28" cy="28" r="27" fill="white" stroke="#6929AC" stroke-width="2"/>
<path d="M30.3008 7.90002C24.9051 7.90002 19.8736 10.3337 16.4234 14.6752C13.9485 17.7998 12.6498 21.6528 12.6498 25.6284V28.4688C12.6498 29.929 11.637 31.3076 9.60803 31.4301C9.12122 31.4709 8.71445 31.796 8.71445 32.2827C8.63277 33.622 10.054 36.0557 12.0013 38.0027C13.3408 39.3812 14.9221 40.4772 16.6276 41.3282C16.5014 42.0338 16.5316 42.7584 16.716 43.4511C16.9004 44.1437 17.2346 44.7875 17.6949 45.337C18.1552 45.8864 18.7305 46.3283 19.3801 46.6313C20.0298 46.9343 20.738 47.0911 21.4549 47.0907C22.5815 47.0992 23.6758 46.7149 24.5497 46.0039C25.4236 45.293 26.0223 44.2997 26.243 43.1951H30.3417C30.8693 45.9538 33.7494 47.86 36.8336 46.8048C39.5127 45.913 40.6889 42.8701 39.7136 40.3955C40.7847 39.6902 41.7897 38.8893 42.7162 38.0027C44.3671 36.3681 45.6766 34.4217 46.5684 32.2766C47.4602 30.1315 47.9166 27.8306 47.9111 25.5076C47.9111 20.8002 46.0847 16.3788 42.757 13.0532C39.4409 9.76972 34.9679 7.91922 30.3008 7.90002ZM30.3008 9.88781C34.4796 9.88781 38.4149 11.5114 41.3767 14.4726C42.835 15.9239 43.9911 17.6499 44.7782 19.5507C45.5653 21.4515 45.9677 23.4895 45.9622 25.5468C45.9683 27.6041 45.5665 29.6422 44.78 31.5433C43.9935 33.4444 42.8379 35.1707 41.3799 36.6225C38.4359 39.5494 34.4558 41.1969 30.3041 41.2073H26.2855C26.0605 40.1017 25.4621 39.107 24.5906 38.3903C23.719 37.6735 22.6275 37.2783 21.499 37.2709C20.6779 37.2706 19.8697 37.4746 19.147 37.8643C18.4244 38.2541 17.8101 38.8175 17.3595 39.5037V39.5429C15.8929 38.7966 14.5621 37.8094 13.4225 36.6225C12.0437 35.244 11.2727 33.9863 10.9476 33.1761C11.8523 32.9601 12.672 32.479 13.3016 31.7943C14.143 30.8921 14.6076 29.7024 14.6003 28.4688V25.5468C14.6003 22.1004 15.7373 18.6916 17.8871 15.9737C20.9305 12.0781 25.4327 9.88781 30.3008 9.88781ZM26.3639 19.6651C26.1082 19.6648 25.8549 19.7151 25.6187 19.8129C25.3824 19.9106 25.1678 20.0541 24.9871 20.2349C24.8063 20.4158 24.663 20.6305 24.5654 20.8668C24.4678 21.1031 24.4178 21.3563 24.4183 21.612C24.4176 21.8679 24.4675 22.1215 24.5651 22.3581C24.6627 22.5947 24.8061 22.8097 24.987 22.9907C25.168 23.1718 25.3829 23.3153 25.6194 23.4131C25.856 23.5109 26.1095 23.561 26.3655 23.5606C26.6213 23.5608 26.8747 23.5105 27.1111 23.4126C27.3474 23.3148 27.5621 23.1712 27.7429 22.9902C27.9237 22.8091 28.0669 22.5942 28.1644 22.3577C28.2619 22.1212 28.3118 21.8678 28.3111 21.612C28.3116 21.3562 28.2615 21.1028 28.1638 20.8664C28.0661 20.63 27.9226 20.4152 27.7417 20.2343C27.5608 20.0535 27.346 19.9101 27.1096 19.8124C26.8731 19.7147 26.6197 19.6646 26.3639 19.6651ZM38.1323 19.6651C37.8765 19.6646 37.6231 19.7147 37.3866 19.8124C37.1502 19.9101 36.9354 20.0535 36.7544 20.2343C36.5735 20.4152 36.4301 20.63 36.3324 20.8664C36.2347 21.1028 36.1846 21.3562 36.1851 21.612C36.1844 21.8679 36.2343 22.1215 36.332 22.3581C36.4296 22.5947 36.5729 22.8097 36.7539 22.9907C36.9348 23.1718 37.1497 23.3153 37.3863 23.4131C37.6228 23.5109 37.8763 23.561 38.1323 23.5606C38.3883 23.561 38.6418 23.5109 38.8784 23.4131C39.1149 23.3153 39.3299 23.1718 39.5108 22.9907C39.6917 22.8097 39.8351 22.5947 39.9327 22.3581C40.0303 22.1215 40.0802 21.8679 40.0796 21.612C40.08 21.3562 40.0299 21.1028 39.9322 20.8664C39.8345 20.63 39.6911 20.4152 39.5102 20.2343C39.3293 20.0535 39.1145 19.9101 38.878 19.8124C38.6416 19.7147 38.3882 19.6646 38.1323 19.6651ZM26.0813 27.4545C25.9174 27.4533 25.7558 27.4934 25.6116 27.5712C25.4673 27.649 25.3451 27.762 25.2561 27.8996C25.1672 28.0373 25.1144 28.1951 25.1027 28.3586C25.0911 28.522 25.1208 28.6858 25.1893 28.8347C25.8246 30.1806 26.8292 31.3183 28.0861 32.1155C29.343 32.9128 30.8005 33.3366 32.2889 33.3378C33.7794 33.3449 35.2406 32.9244 36.4992 32.1262C37.7579 31.3281 38.7612 30.1857 39.3902 28.8347C39.4587 28.6857 39.4885 28.5218 39.4768 28.3582C39.465 28.1946 39.4121 28.0366 39.323 27.8989C39.2338 27.7613 39.1113 27.6483 38.9669 27.5706C38.8224 27.4929 38.6606 27.453 38.4966 27.4545H38.4558C38.2734 27.4536 38.0949 27.5073 37.9433 27.6086C37.7916 27.7098 37.6737 27.8541 37.6047 28.0229C37.1301 29.031 36.378 29.883 35.4366 30.4792C34.4951 31.0754 33.4033 31.3911 32.2889 31.3892C31.1746 31.3911 30.0827 31.0754 29.1413 30.4792C28.1999 29.883 27.4478 29.031 26.9732 28.0229C26.8885 27.8574 26.7612 27.7175 26.6044 27.6176C26.4476 27.5177 26.267 27.4614 26.0813 27.4545Z" fill="#6929AC"/>
</g>
<defs>
<clipPath id="clip0_103_177">
<rect width="56" height="56" fill="white"/>
</clipPath>
</defs>
</svg>
